<svg width="156" height="205" viewBox="0 0 156 205" fill="none" xmlns="http://www.w3.org/2000/svg">
<path d="M213.339 14.3251C213.601 14.5709 213.863 14.8168 214.133 15.0701C226.34 26.7296 235.156 42.8337 238.187 62.3312C238.27 62.8617 238.353 63.3922 238.438 63.9388C239.924 75.3607 238.759 89.8196 232.255 101.765C228.828 107.805 225.479 113.199 220.782 118.124C220.099 118.844 220.099 118.844 219.401 119.578C212.808 126.153 205.244 131.438 197.763 135.839C197.451 136.024 197.138 136.208 196.816 136.398C194.921 137.509 193.022 138.598 191.12 139.676C190.275 140.158 189.433 140.651 188.59 141.143C188.101 141.428 187.611 141.713 187.107 142.006C186.68 142.257 186.252 142.507 185.812 142.765C185.486 142.923 185.16 143.082 184.825 143.245C184.6 143.115 184.376 142.985 184.145 142.85C183.91 143.064 183.676 143.277 183.434 143.496C182.184 144.472 181.019 145.05 179.679 145.696C179.168 145.946 178.657 146.196 178.131 146.454C177.386 146.817 177.386 146.817 176.625 147.187C173.936 148.525 171.329 149.946 168.712 151.625C168.439 151.768 168.167 151.911 167.886 152.058C167.662 151.928 167.438 151.798 167.206 151.663C166.958 151.879 166.709 152.094 166.452 152.316C165.452 153.124 164.489 153.762 163.433 154.409C162.855 154.765 162.855 154.765 162.265 155.129C161.654 155.504 161.654 155.504 161.031 155.887C149.986 162.762 141.596 170.992 132.339 181.34C120.593 194.446 109.467 201.962 94.9678 204.322C79.2656 206.066 63.8822 203.833 50.2895 198.771C49.9946 198.664 49.6998 198.557 49.3959 198.446C39.8803 194.917 30.8488 189.521 23.0965 182.976C22.7909 182.718 22.4853 182.461 22.1705 182.195C10.755 172.434 0.338384 159.266 0.584435 139.902C1.2454 115.589 12.2003 90.2331 25.3309 67.7013C25.6154 67.212 25.8998 66.7227 26.1929 66.2185C30.6372 58.5976 35.1498 51.375 40.7242 44.6238C41.0573 44.2181 41.3904 43.8123 41.7336 43.3942C56.6755 25.3982 74.4917 13.68 93.5502 10.027C97.3437 9.39819 101.112 8.94732 104.879 8.5246C105.268 8.48051 105.657 8.43643 106.059 8.39101C109.622 7.99466 113.169 7.68097 116.709 7.43021C124.558 6.86649 132.332 6.13581 140.328 4.49831C167.876 -1.08571 193.954 -3.8831 213.339 14.3251Z" fill="#9A4A4D"/>
</svg>
