<svg width="165" height="168" viewBox="0 0 165 168" fill="none" xmlns="http://www.w3.org/2000/svg">
<path d="M118.811 25.0238C112.48 21.6045 110.518 20.6316 105.925 18.6318C71.7744 3.98433 39.5653 -1.87811 12.4388 1.67234C7.69541 2.29872 -1.50873 4.29592 -5.35955 5.5428C-16.4165 9.11939 -25.9433 14.643 -32.7557 21.4931C-35.9395 24.7147 -40.3116 31.1743 -41.7168 34.7941C-43.9441 40.5647 -44.4798 46.0125 -43.3275 51.7293C-41.6404 60.2073 -37.3797 66.6007 -29.0779 73.1647C-25.7836 75.745 -22.7644 77.516 -16.952 80.2809C-11.0006 83.102 -1.12759 89.5787 3.18706 93.4922C12.8089 102.215 19.6457 110.997 30.9043 129.073C33.0736 132.557 36.2073 137.512 37.8727 140.107C49.6294 158.335 58.4418 165.618 70.5724 167.078C83.3798 168.632 99.7321 162.101 120.644 147.068C143.46 130.698 156.93 114.94 161.895 98.8425C165.207 88.1244 164.651 77.3486 160.22 66.8958C158.651 63.1418 154.558 56.3345 151.777 52.7635C147.655 47.4393 142.533 42.2972 136.139 37.0548C133.09 34.5303 121.387 26.3994 118.811 25.0238ZM131.162 34.8377C142.654 43.1801 152.012 53.5811 157.478 64.1189C162.076 73.0393 163.768 83.2678 162.154 92.3747C160.686 100.565 157.861 106.922 151.877 115.503C144.233 126.489 134.798 135.391 118.858 146.734C95.3121 163.464 78.1544 169.082 64.5736 164.435C55.2394 161.247 47.6527 153.44 36.4847 135.493C19.3787 108.097 13.2328 100.187 1.29642 90.2256C-1.94194 87.5074 -10.3897 82.0704 -14.1339 80.2779C-20.911 77.0549 -22.2771 76.2985 -26.5767 73.2683C-33.6033 68.3444 -37.4579 63.8944 -40.2524 57.5195C-47.682 40.6279 -37.4711 21.544 -15.2785 10.914C-8.38133 7.613 -1.78429 5.51257 6.6981 3.91528C34.927 -1.35749 69.6754 4.28431 105.879 20.0339C115.106 24.0253 121.07 27.519 131.162 34.8377Z" fill="black"/>
</svg>
