<svg width="175" height="476" viewBox="0 0 175 476" fill="none" xmlns="http://www.w3.org/2000/svg">
<path d="M-111.62 172.688C-111.416 183.137 -110.613 194.967 -109.455 204.752C-100.925 275.743 -83.9445 334.971 -58.5186 382.683C-26.7981 442.151 17.0253 477.495 56.9534 475.889C86.8861 474.701 107.869 453.557 115.148 417.334C116.025 412.814 116.544 407.912 116.931 399.278C117.484 387.601 117.345 384.178 115.882 368.853C114.884 358.885 114.917 339.425 115.862 329.061C117.935 307.032 123.108 284.258 131.559 259.748C134.172 252.155 144.323 226.312 149.932 212.873C168.626 168.242 173.732 151.312 174.73 130.69C175.815 108.392 170.802 92.8075 156.934 75.5494C147.503 63.7292 136.714 54.4303 120.973 44.3459C89.2851 24.0485 49.5714 7.56556 18.5794 1.76906C9.25585 0.0233401 -12.8524 -0.430385 -20.8808 0.959222C-43.4951 4.78514 -62.813 16.1396 -76.3461 33.5194C-89.3425 50.2262 -98.2278 70.437 -104.157 96.926C-109.216 119.205 -112.122 148.74 -111.62 172.688Z" fill="#155E9F"/>
</svg>
