<svg width="134" height="166" viewBox="0 0 134 166" fill="none" xmlns="http://www.w3.org/2000/svg">
<path d="M64.6369 1.17835C64.9809 1.13776 65.3248 1.09717 65.6792 1.05535C81.8326 -0.757121 98.2059 0.8959 112.389 6.84536C112.775 7.00712 113.161 7.16888 113.559 7.33555C121.653 10.9706 129.651 17.1463 132.169 25.1111C133.34 29.21 134.173 33.0196 133.723 37.3449C133.66 37.9755 133.66 37.9755 133.595 38.6189C132.757 44.56 130.411 50.5052 127.587 56.0668C127.469 56.2995 127.351 56.5321 127.229 56.7718C126.512 58.179 125.777 59.5799 125.034 60.9782C124.706 61.6006 124.385 62.2258 124.066 62.851C123.879 63.2136 123.692 63.5763 123.499 63.9499C123.337 64.2672 123.175 64.5844 123.008 64.9113C122.865 65.1407 122.722 65.3702 122.574 65.6067C122.328 65.6723 122.083 65.738 121.83 65.8057C121.788 66.0091 121.745 66.2124 121.701 66.422C121.376 67.4439 120.87 68.2686 120.278 69.2102C120.054 69.5704 119.83 69.9306 119.599 70.3018C119.271 70.8267 119.271 70.8267 118.937 71.3623C117.771 73.2678 116.718 75.1624 115.815 77.1617C115.701 77.3576 115.588 77.5535 115.471 77.7553C115.226 77.821 114.98 77.8867 114.727 77.9544C114.675 78.1659 114.624 78.3775 114.57 78.5954C114.327 79.424 114.007 80.1673 113.624 80.9623C113.416 81.3986 113.416 81.3986 113.203 81.8436C112.982 82.3036 112.982 82.3036 112.757 82.7729C108.816 91.1298 107.666 98.6367 107.173 107.409C106.533 118.529 102.926 127.175 93.6693 135.576C83.1481 144.361 70.4252 151.448 57.2913 156.52C57.0079 156.631 56.7246 156.742 56.4326 156.856C47.2468 160.412 37.2751 162.999 27.5432 164.481C27.1598 164.54 26.7764 164.598 26.3814 164.658C11.9754 166.794 -3.78058 167.1 -15.4625 159.508C-29.87 149.794 -37.3187 134.36 -41.4312 118.891C-41.521 118.555 -41.6108 118.219 -41.7034 117.874C-43.0921 112.64 -44.1862 107.524 -44.2079 102.042C-44.2106 101.713 -44.2133 101.385 -44.2162 101.046C-44.2129 86.3891 -38.2419 72.667 -26.4127 61.4119C-23.998 59.2096 -21.4925 57.0886 -18.9718 54.9799C-18.7113 54.7617 -18.4509 54.5435 -18.1826 54.3187C-15.795 52.3247 -13.3694 50.3713 -10.9105 48.4459C-5.46213 44.1731 -0.171868 39.8749 4.72672 35.1125C21.6393 18.7267 39.1736 4.17485 64.6369 1.17835Z" fill="#FFD10B"/>
</svg>
