<svg width="237" height="281" viewBox="0 0 237 281" fill="none" xmlns="http://www.w3.org/2000/svg">
<path d="M168.872 94.4055C164.659 91.3217 159.68 88.0964 155.381 85.6581C124.145 68.026 94.4778 57.8966 66.2831 55.1921C31.1305 51.8351 1.10632 61.4367 -12.8595 80.4681C-23.335 94.7308 -22.6343 110.907 -10.9502 125.305C-9.48053 127.088 -7.72918 128.819 -4.45083 131.625C-0.0283211 135.434 1.37794 136.411 7.98253 140.392C12.2955 142.961 19.9905 148.896 23.7496 152.487C31.7163 160.15 38.8441 169.48 45.4609 180.86C47.5128 184.383 54.0356 196.958 57.3068 203.651C68.1467 225.908 72.9852 233.429 80.7872 240.165C89.2217 247.451 97.2274 249.863 109.134 248.672C117.264 247.888 124.893 245.705 134.643 241.463C154.27 232.92 175.321 219.49 188.951 206.86C193.052 203.061 201.316 192.932 203.702 188.781C210.457 177.115 213.024 164.69 211.09 153.118C209.226 142.001 204.471 131.727 196.148 120.916C189.174 111.79 178.54 101.456 168.872 94.4055Z" fill="#DD7619"/>
</svg>
