<svg width="270" height="444" viewBox="0 0 270 444" fill="none" xmlns="http://www.w3.org/2000/svg">
<path d="M278.275 44.2133C290.115 54.6696 300.933 65.8918 310.212 78.6837C310.604 79.2206 310.997 79.7575 311.401 80.3107C317.545 88.7769 323.011 97.618 328.212 106.684C328.858 107.808 329.503 108.932 330.169 110.09C335.083 118.978 339.176 128.171 343.18 137.502C350.189 153.787 355.138 164.804 372.212 171.684C385.426 175.647 399.444 175.899 413.115 176.838C443.013 178.926 470.411 184.718 491.837 207.371C516.262 235.714 528.474 280.633 526.212 317.684C524.967 333.393 522.05 348.365 515.212 362.684C514.783 363.584 514.353 364.483 513.911 365.41C505.189 382.462 491.176 397.242 475.212 407.684C474.23 408.337 473.247 408.991 472.235 409.664C444.088 427.719 411.199 436.296 378.212 439.684C377.568 439.751 376.925 439.817 376.262 439.886C299.241 447.789 215.796 444.758 145.212 409.684C144.423 409.298 143.634 408.911 142.822 408.513C84.2534 379.625 42.2943 328.277 21.2543 266.795C7.5436 225.875 1.80808 183.675 0.211816 140.684C0.1497 139.019 0.1497 139.019 0.0863279 137.321C-0.983962 103.841 7.85088 73.7102 29.2118 47.6837C30.0355 46.5178 30.0355 46.5178 30.8759 45.3283C31.3167 44.7856 31.7576 44.2429 32.2118 43.6837C32.8718 43.6837 33.5318 43.6837 34.2118 43.6837C34.4799 43.0444 34.7481 42.405 35.0243 41.7462C36.2118 39.6837 36.2118 39.6837 39.2118 38.6837C39.5418 37.6937 39.8718 36.7037 40.2118 35.6837C42.052 34.0342 43.8681 32.54 45.8368 31.0587C46.4151 30.6214 46.9934 30.1841 47.5893 29.7336C58.6345 21.5389 70.1579 15.0902 83.2118 10.6837C83.8639 10.4624 84.516 10.241 85.1879 10.0128C99.1607 5.41265 113.658 3.50345 128.212 1.68375C129.037 1.57772 129.863 1.4717 130.713 1.36246C183.346 -4.70869 237.845 9.49863 278.275 44.2133Z" fill="#00A144"/>
</svg>
