<svg width="121" height="149" viewBox="0 0 121 149" fill="none" xmlns="http://www.w3.org/2000/svg">
<path d="M-138.216 119.08C-133.769 121.4 -128.349 123.822 -123.533 125.649C-88.5084 138.856 -52.6425 146.349 -15.8365 148.184C30.0583 150.462 74.157 142.887 100.393 128.244C120.067 117.271 125.482 104.927 115.447 94.0291C114.173 92.6803 112.502 91.3724 109.201 89.257C104.758 86.385 103.252 85.651 95.9464 82.6647C91.1629 80.7387 83.1596 76.2705 79.5218 73.5594C71.8329 67.7735 65.9253 60.7087 61.5098 52.0746C60.1385 49.4012 56.3188 39.8539 54.5549 34.771C48.7413 17.8671 45.198 12.1645 37.3659 7.08524C28.9005 1.59095 19.0958 -0.185426 2.63579 0.820574C-8.59212 1.48541 -19.6956 3.21347 -34.4585 6.53182C-64.1765 13.2129 -97.728 23.637 -120.997 33.39C-127.998 36.3236 -143.078 44.124 -147.913 47.3126C-161.57 56.2739 -169.901 65.7807 -171.85 74.5991C-173.714 83.0716 -171.365 90.8766 -164.434 99.0624C-158.654 105.973 -148.431 113.776 -138.216 119.08Z" fill="#DD7619"/>
</svg>
