<svg width="24" height="27" viewBox="0 0 24 27" fill="none" xmlns="http://www.w3.org/2000/svg">
<path d="M6.82645 0C3.20498 0 0.268188 3.25985 0.268188 7.27969V18.9272C0.268188 22.9471 3.20498 26.2069 6.82645 26.2069H17.3197C20.9412 26.2069 23.8779 22.9471 23.8779 18.9272V7.27969C23.8779 3.25985 20.9412 0 17.3197 0H6.82645ZM19.943 2.91188C20.667 2.91188 21.2546 3.56414 21.2546 4.36782C21.2546 5.17149 20.667 5.82375 19.943 5.82375C19.219 5.82375 18.6313 5.17149 18.6313 4.36782C18.6313 3.56414 19.219 2.91188 19.943 2.91188ZM12.0731 5.82375C15.6945 5.82375 18.6313 9.0836 18.6313 13.1034C18.6313 17.1233 15.6945 20.3831 12.0731 20.3831C8.45159 20.3831 5.5148 17.1233 5.5148 13.1034C5.5148 9.0836 8.45159 5.82375 12.0731 5.82375ZM12.0731 8.73563C11.0295 8.73563 10.0286 9.19581 9.29063 10.0149C8.55268 10.8341 8.13811 11.945 8.13811 13.1034C8.13811 14.2619 8.55268 15.3728 9.29063 16.192C10.0286 17.0111 11.0295 17.4713 12.0731 17.4713C13.1167 17.4713 14.1176 17.0111 14.8555 16.192C15.5935 15.3728 16.008 14.2619 16.008 13.1034C16.008 11.945 15.5935 10.8341 14.8555 10.0149C14.1176 9.19581 13.1167 8.73563 12.0731 8.73563Z" fill="black"/>
</svg>
