<svg width="24" height="27" viewBox="0 0 24 27" fill="none" xmlns="http://www.w3.org/2000/svg">
<path d="M20.5506 3.8099C19.4633 2.5973 18.1685 1.63595 16.7416 0.981862C15.3147 0.327774 13.7843 -0.00596905 12.2395 8.07997e-05C5.76637 8.07997e-05 0.490932 5.82782 0.485003 12.9823C0.485003 15.2737 1.02752 17.503 2.05177 19.4767L0.390137 26.2069L6.62164 24.4019C8.34554 25.4386 10.2768 25.9819 12.2395 25.9825H12.2454C18.72 25.9825 23.994 20.1548 23.9999 12.9937C24.0014 11.2871 23.6972 9.59699 23.105 8.0208C22.5128 6.44461 21.6456 5.0135 20.5506 3.8099ZM12.2395 23.7844C10.4889 23.7851 8.7705 23.2645 7.26495 22.2775L6.9092 22.0416L3.2124 23.1129L4.1996 19.1278L3.96836 18.7167C2.98977 16.9974 2.47222 15.0068 2.4757 12.9757C2.4757 7.03661 6.85881 2.19163 12.2454 2.19163C13.5287 2.18908 14.7997 2.46725 15.9852 3.01008C17.1708 3.55292 18.2473 4.34969 19.1528 5.35446C20.0615 6.35531 20.7819 7.54506 21.2724 8.85509C21.7629 10.1651 22.0138 11.5695 22.0107 12.9872C22.0047 18.9476 17.6216 23.7844 12.2395 23.7844ZM17.5979 15.7029C17.3059 15.5407 15.8637 14.7562 15.5924 14.6448C15.3226 14.5383 15.1255 14.4826 14.9328 14.8069C14.7356 15.1296 14.1724 15.865 14.0034 16.0763C13.8344 16.2942 13.6595 16.3187 13.366 16.1582C13.074 15.9944 12.1268 15.6537 11.0062 14.5449C10.1317 13.685 9.54618 12.6203 9.37127 12.2976C9.20229 11.9733 9.35496 11.7997 9.50171 11.6375C9.63067 11.4934 9.79372 11.2575 9.94046 11.0708C10.0887 10.8841 10.1376 10.7465 10.234 10.5303C10.3303 10.3108 10.2844 10.1241 10.2117 9.96195C10.1376 9.79979 9.55211 8.19954 9.30457 7.55419C9.0674 6.91704 8.82579 7.00549 8.64495 6.9973C8.47597 6.98583 8.27883 6.98583 8.08169 6.98583C7.93281 6.98992 7.78631 7.02797 7.65137 7.09759C7.51643 7.16721 7.39598 7.2669 7.29756 7.3904C7.02778 7.71471 6.2733 8.49928 6.2733 10.0995C6.2733 11.6998 7.32572 13.2378 7.47395 13.4556C7.61921 13.6735 9.54025 16.9477 12.4885 18.3563C13.1852 18.6921 13.7336 18.8903 14.162 19.041C14.8661 19.2899 15.502 19.2523 16.0089 19.172C16.5722 19.077 17.7447 18.3858 17.9922 17.6274C18.2353 16.8674 18.2353 16.2188 18.1612 16.0829C18.0886 15.9453 17.8914 15.865 17.5979 15.7029Z" fill="black"/>
</svg>
