<svg width="399" height="708" viewBox="0 0 399 708" fill="none" xmlns="http://www.w3.org/2000/svg">
<path d="M467.829 503.273C471.958 490.875 475.849 476.547 478.39 464.442C496.661 376.557 498.401 298.187 483.723 229.041C465.387 142.844 420.307 78.8339 364.972 60.2869C323.496 46.3655 285.854 60.5014 260.609 99.3906C257.502 104.26 254.724 109.761 250.553 119.721C244.869 133.176 243.616 137.273 239.154 156.052C236.315 168.29 228.061 191.167 222.396 202.876C210.265 227.732 193.577 251.877 171.669 276.387C164.889 283.983 140.091 309.191 126.744 322.131C82.3277 365.069 68.1966 382.375 58.131 406.125C47.2394 431.803 47.5282 452.703 59.2317 480.105C67.155 498.837 78.0019 515.299 95.2951 535.22C130.11 575.317 177.521 615.035 217.5 637.716C229.526 644.542 259.599 656.391 271.175 658.865C303.745 665.938 334.979 662.467 360.836 648.947C385.674 635.943 406.363 616.713 425.653 588.585C441.976 564.963 458.414 531.703 467.829 503.273Z" fill="#00A144"/>
</svg>
