<svg width="113" height="198" viewBox="0 0 113 198" fill="none" xmlns="http://www.w3.org/2000/svg">
<path d="M158.505 107.687C158.808 104.728 158.944 101.417 158.877 98.7113C158.351 79.0883 154.347 63.3774 146.878 51.5074C137.557 36.7148 122.994 29.5945 108.509 32.7238C97.65 35.0656 89.3069 42.4846 85.3726 53.2755C84.8929 54.6201 84.529 56.049 84.0786 58.531C83.4582 61.8897 83.3852 62.8539 83.3622 67.1152C83.364 69.884 82.6514 75.4216 81.9369 78.4329C80.3948 84.838 77.7056 91.6624 73.7697 99.2C72.552 101.535 67.9536 109.566 65.4431 113.764C57.0816 127.71 54.6272 132.868 53.5241 138.801C52.3293 145.217 53.5798 149.314 57.9695 153.295C60.9516 156.026 64.5155 157.949 69.8402 159.764C80.5595 163.416 94.3162 165.447 105.306 165.021C108.612 164.893 116.584 163.543 119.536 162.61C127.845 160.008 135.234 155.485 140.749 149.635C146.047 144.013 149.985 137.669 153.081 129.737C155.711 123.062 157.825 114.465 158.505 107.687Z" fill="#00A144"/>
</svg>
