<svg width="269" height="428" viewBox="0 0 269 428" fill="none" xmlns="http://www.w3.org/2000/svg">
<path d="M6.13781 338.832C0.899594 327.147 -3.33941 315.222 -5.93779 302.621C-6.04897 302.091 -6.16015 301.561 -6.27471 301.016C-7.99638 292.675 -9.09955 284.274 -9.93425 275.791C-10.0385 274.739 -10.1427 273.687 -10.2501 272.603C-10.9337 264.347 -10.9163 256.129 -10.7884 247.837C-10.5806 233.358 -10.5913 223.496 -20.8323 212.788C-29.204 205.52 -39.3805 200.771 -49.0781 195.62C-70.2745 184.329 -88.4274 171.077 -96.6834 147.138C-105.269 117.961 -99.4854 80.3411 -85.6865 53.324C-79.6272 41.9616 -72.585 31.6953 -62.8877 23.1947C-62.2787 22.6604 -61.6696 22.1261 -61.0421 21.5755C-49.0704 11.6406 -33.9706 5.12767 -18.8654 2.4999C-17.9323 2.32991 -16.9992 2.15991 -16.0379 1.98476C10.4788 -2.38233 37.3602 1.89247 62.6117 10.0866C63.1046 10.2459 63.5975 10.4052 64.1053 10.5693C123.063 29.706 183.139 59.1237 223.3 108.36C223.751 108.906 224.201 109.452 224.666 110.014C258.061 150.707 271.94 202.82 267.188 255.719C263.81 290.832 254.177 324.308 241.255 357.03C240.755 358.297 240.755 358.297 240.245 359.59C230.055 385.017 213.715 404.713 189.552 417.259C188.567 417.864 188.567 417.864 187.562 418.482C187.061 418.745 186.561 419.008 186.045 419.279C185.562 419.064 185.079 418.85 184.581 418.629C184.176 419.02 183.77 419.412 183.352 419.815C181.807 420.974 181.807 420.974 179.283 420.747C178.717 421.381 178.152 422.016 177.568 422.669C175.681 423.306 173.862 423.834 171.936 424.304C171.369 424.443 170.803 424.582 170.219 424.726C159.45 427.271 148.903 428.353 137.905 427.407C137.356 427.36 136.806 427.314 136.239 427.266C124.506 426.166 113.27 422.88 102.022 419.508C101.384 419.319 100.745 419.13 100.087 418.935C59.5775 406.36 24.3489 377.988 6.13781 338.832Z" fill="#E0C41A"/>
</svg>
