<svg width="78" height="100" viewBox="0 0 78 100" fill="none" xmlns="http://www.w3.org/2000/svg">
<path d="M-14.2014 69.595C-14.4177 66.8815 -14.317 64.1964 -13.6647 61.5026C-13.6378 61.3891 -13.6109 61.2757 -13.5832 61.1589C-13.1519 59.3756 -12.5343 57.6275 -11.8296 55.8837C-11.7424 55.6674 -11.6552 55.451 -11.5654 55.2281C-10.8421 53.5407 -9.91947 51.9141 -8.95666 50.2814C-7.27984 47.4293 -6.18181 45.4748 -7.95969 42.5738C-9.57889 40.4965 -12.0033 38.7807 -14.2438 37.0217C-19.1373 33.1708 -22.9282 29.1631 -22.6526 23.7924C-21.8879 17.359 -16.0086 10.3477 -8.98595 6.04716C-5.95818 4.258 -2.76741 2.76085 0.997113 1.81568C1.2336 1.75623 1.47008 1.69677 1.71373 1.63552C6.29875 0.579477 11.4099 0.439525 16.0888 1.06957C16.3787 1.10697 16.6686 1.14437 16.9673 1.1829C25.1536 2.33761 32.4809 5.2319 38.8976 8.77839C39.0229 8.84748 39.1482 8.91659 39.2773 8.98778C54.2582 17.2691 68.4162 27.6722 74.5795 40.4839C74.6494 40.6264 74.7193 40.7689 74.7913 40.9156C79.944 51.5198 78.1553 62.8996 70.8697 73.0159C65.9691 79.7138 59.4349 85.611 52.0299 91.1085C51.7432 91.3214 51.7432 91.3214 51.4508 91.5386C45.6536 95.7991 38.7103 98.4557 30.2943 99.1004C29.9407 99.1453 29.9407 99.1453 29.58 99.1911C29.4053 99.2051 29.2306 99.2191 29.0506 99.2335C28.9344 99.1542 28.8181 99.0749 28.6983 98.9931C28.5368 99.0398 28.3752 99.0865 28.2088 99.1346C27.6309 99.2464 27.6309 99.2464 26.9236 99.0093C26.6885 99.0918 26.4533 99.1743 26.2111 99.2593C25.592 99.2417 25.0049 99.2079 24.3933 99.154C24.2132 99.1385 24.0332 99.123 23.8477 99.107C20.4368 98.7908 17.2539 98.2017 14.1665 97.1766C14.0121 97.1256 13.8576 97.0745 13.6985 97.0219C10.4146 95.9103 7.51943 94.4036 4.63024 92.879C4.46588 92.7929 4.30152 92.7068 4.13218 92.618C-6.22511 87.0416 -13.2856 78.7382 -14.2014 69.595Z" fill="#E0C41A"/>
</svg>
