<svg width="413" height="760" viewBox="0 0 413 760" fill="none" xmlns="http://www.w3.org/2000/svg">
<path d="M573.901 418.695C566.505 430.201 557.384 442.772 549.192 452.778C489.599 525.272 426.974 577.917 361.154 610.994C279.078 652.197 197.623 656.847 146.472 623.334C108.116 598.227 95.085 557.948 110.272 511.718C112.208 505.973 114.873 500.088 120.258 490.14C127.5 476.661 130.017 472.95 142.387 457.001C150.493 446.663 163.725 424.907 169.559 412.584C181.876 386.339 190.643 356.799 196.307 322.717C198.068 312.162 202.415 275.241 204.244 255.778C210.231 191.092 215.101 168.131 227.863 144.311C241.656 118.55 258.847 105.132 288.768 96.8781C309.171 91.1714 329.633 89.3598 357.11 90.6044C412.42 93.114 475.631 106.259 520.138 124.408C533.529 129.866 562.767 146.923 572.324 154.852C599.305 177.09 616.836 205.116 622.687 235.274C628.295 264.254 626.134 293.88 615.821 328.169C607.241 357.065 590.895 392.354 573.901 418.695Z" fill="#155E9F"/>
</svg>
