<svg width="140" height="159" viewBox="0 0 140 159" fill="none" xmlns="http://www.w3.org/2000/svg">
<path d="M153.553 83.7697C151.361 86.2014 148.691 88.8738 146.321 91.0148C129.087 106.53 111.482 118.086 93.4551 125.743C70.9772 135.282 49.4466 137.438 36.7078 131.443C27.1549 126.951 24.5903 119.021 29.5776 109.468C30.2102 108.28 31.0375 107.053 32.6677 104.966C34.8623 102.138 35.604 101.352 39.2005 97.9495C41.5551 95.7428 45.5031 91.1562 47.3024 88.5831C51.1058 83.1045 54.0461 77.0144 56.2671 70.0545C56.9569 67.8988 58.8926 60.3857 59.7912 56.4323C62.7539 43.2937 64.5277 38.5888 68.3963 33.5929C72.5776 28.19 77.3886 25.226 85.4376 23.1136C90.9282 21.6573 96.3506 20.9859 103.553 20.8261C118.051 20.5053 134.4 22.2118 145.72 25.2074C149.127 26.1082 156.453 29.1119 158.798 30.5686C165.419 34.6512 169.431 40.0426 170.323 46.0388C171.177 51.8011 169.973 57.81 166.524 64.8812C163.647 70.8386 158.589 78.2018 153.553 83.7697Z" fill="#155E9F"/>
</svg>
