<svg width="528" height="463" viewBox="0 0 528 463" fill="none" xmlns="http://www.w3.org/2000/svg">
<path d="M365.636 2.49043C366.579 2.64406 367.521 2.7977 368.492 2.95599C412.692 10.4501 455.006 28.4651 488.441 57.5561C489.351 58.3475 490.261 59.1388 491.199 59.9541C510.11 77.2722 526.954 102.098 527.967 127.886C528.156 141.058 527.653 153.095 523.376 165.648C522.758 167.48 522.758 167.48 522.128 169.349C515.667 186.415 505.2 202.288 493.734 216.635C493.255 217.235 492.776 217.835 492.282 218.454C489.372 222.081 486.424 225.677 483.453 229.257C482.137 230.853 480.841 232.463 479.545 234.074C478.791 235.007 478.036 235.941 477.258 236.902C476.602 237.72 475.946 238.537 475.269 239.38C474.725 239.95 474.18 240.521 473.619 241.108C472.921 241.108 472.222 241.108 471.502 241.108C471.244 241.682 470.986 242.255 470.72 242.845C469.129 245.636 467.196 247.694 464.952 250.031C464.1 250.928 463.248 251.824 462.371 252.748C461.126 254.053 461.126 254.053 459.857 255.385C455.403 260.142 451.253 264.956 447.43 270.203C446.989 270.697 446.548 271.191 446.094 271.701C445.395 271.701 444.697 271.701 443.977 271.701C443.688 272.291 443.4 272.881 443.103 273.489C441.866 275.768 440.487 277.731 438.903 279.799C438.038 280.934 438.038 280.934 437.156 282.093C436.242 283.29 436.242 283.29 435.309 284.511C418.886 306.31 410.481 327.801 402.921 353.594C393.295 386.28 377.552 409.207 346.977 426.892C312.769 444.712 273.923 455.704 235.421 460.352C234.589 460.457 233.757 460.562 232.9 460.67C205.966 463.946 177.635 463.701 150.728 460.352C149.668 460.22 148.607 460.089 147.515 459.953C107.727 454.819 65.6562 443.145 40.0356 411.149C8.68736 370.642 -0.0994404 318.617 0.000846326 269.151C0.00142205 268.078 0.00199778 267.004 0.00259095 265.898C0.0437621 249.164 0.783024 233.019 4.63249 216.635C4.85937 215.652 5.08624 214.669 5.32 213.656C15.7739 169.905 41.4136 133.711 80.8561 109.563C88.8398 104.917 97.0067 100.587 105.205 96.3061C106.053 95.8628 106.9 95.4194 107.773 94.9627C115.536 90.9175 123.371 87.0241 131.275 83.2407C148.792 74.838 165.908 66.2334 182.314 55.9299C238.916 20.5259 295.863 -8.90665 365.636 2.49043Z" fill="#7E4E39"/>
</svg>
