<svg width="68" height="141" viewBox="0 0 68 141" fill="none" xmlns="http://www.w3.org/2000/svg">
<path d="M10.8615 1.00746C11.1704 1.01496 11.4794 1.02246 11.7977 1.03018C26.2948 1.46504 40.5493 4.98875 52.3276 12.0316C52.6483 12.2231 52.9689 12.4147 53.2993 12.612C59.9913 16.8431 66.2779 23.3063 67.4982 30.6591C68.016 34.4274 68.2714 37.8974 67.3291 41.6614C67.1935 42.2104 67.1935 42.2104 67.0551 42.7705C65.566 47.9128 62.7448 52.8687 59.5489 57.4255C59.4154 57.6161 59.2819 57.8068 59.1443 58.0032C58.3329 59.1557 57.5079 60.3006 56.675 61.4421C56.3065 61.9505 55.9448 62.4623 55.5834 62.9743C55.3727 63.2711 55.162 63.5679 54.9448 63.8736C54.7618 64.1334 54.5787 64.3933 54.39 64.6609C54.2344 64.8456 54.0788 65.0302 53.9185 65.2204C53.6934 65.2475 53.4684 65.2746 53.2365 65.3025C53.1733 65.4768 53.1101 65.6511 53.045 65.8306C52.629 66.6924 52.078 67.3571 51.4359 68.1141C51.1927 68.4041 50.9495 68.694 50.6989 68.9928C50.3433 69.4152 50.3433 69.4152 49.9805 69.8461C48.7108 71.3824 47.5411 72.9232 46.4915 74.5754C46.3666 74.7341 46.2418 74.8929 46.1132 75.0564C45.8881 75.0835 45.663 75.1106 45.4312 75.1385C45.3587 75.3189 45.2863 75.4992 45.2117 75.685C44.8922 76.3862 44.5163 77.0025 44.0775 77.6565C43.8385 78.0156 43.8385 78.0156 43.5946 78.3819C43.3415 78.7604 43.3415 78.7604 43.0834 79.1465C38.5493 86.0317 36.5871 92.5177 35.0463 100.204C33.0793 109.947 28.8032 117.129 19.568 123.383C9.16712 129.817 -2.96445 134.474 -15.2052 137.299C-15.4695 137.361 -15.7338 137.423 -16.0061 137.487C-24.5683 139.471 -33.7025 140.499 -42.4857 140.581C-42.8317 140.585 -43.1778 140.588 -43.5343 140.592C-56.5286 140.662 -70.4848 138.947 -79.8469 130.769C-91.3491 120.373 -95.9835 105.8 -97.6665 91.6174C-97.7035 91.3096 -97.7406 91.0019 -97.7788 90.6848C-98.3458 85.8865 -98.6675 81.2298 -97.9957 76.3843C-97.9567 76.0937 -97.9177 75.8032 -97.8775 75.5039C-96.0274 62.5574 -89.0236 51.1889 -77.1562 42.738C-74.7456 41.0969 -72.2651 39.5392 -69.7727 37.9942C-69.5152 37.8343 -69.2576 37.6744 -68.9923 37.5096C-66.632 36.0491 -64.2432 34.6294 -61.8285 33.2386C-56.4773 30.1509 -51.2626 27.021 -46.3354 23.4317C-29.331 11.0892 -12.0084 0.44513 10.8615 1.00746Z" fill="#FFD10B"/>
</svg>
