<svg width="55" height="73" viewBox="0 0 55 73" fill="none" xmlns="http://www.w3.org/2000/svg">
<path d="M54.6133 45.0126C54.6189 45.151 54.6245 45.2894 54.6303 45.4321C54.8547 51.9319 53.631 58.4745 50.6926 64.0827C50.6127 64.2353 50.5328 64.388 50.4505 64.5453C48.6738 67.7429 45.844 70.8685 42.4497 71.7736C40.707 72.1894 39.0957 72.4732 37.312 72.2363C37.0519 72.2025 37.0519 72.2025 36.7865 72.1681C34.3437 71.7542 31.9485 70.7359 29.7285 69.5307C29.6356 69.4803 29.5428 69.43 29.4471 69.3781C28.8855 69.0719 28.3271 68.7592 27.77 68.4428C27.522 68.303 27.2725 68.1664 27.023 68.03C26.8784 67.9503 26.7337 67.8707 26.5846 67.7886C26.458 67.7195 26.3314 67.6504 26.201 67.5792C26.1103 67.5187 26.0196 67.4582 25.9261 67.3958C25.9068 67.2966 25.8876 67.1973 25.8677 67.0951C25.7845 67.0753 25.7014 67.0556 25.6157 67.0353C25.2014 66.8916 24.8751 66.6779 24.503 66.428C24.3605 66.3335 24.2181 66.239 24.0713 66.1416C23.8638 66.0033 23.8638 66.0033 23.6521 65.8623C22.8979 65.37 22.1447 64.9227 21.343 64.5345C21.2652 64.4864 21.1875 64.4384 21.1074 64.3889C21.0881 64.2897 21.0688 64.1904 21.049 64.0882C20.9627 64.0646 20.8765 64.0411 20.7876 64.0168C20.451 63.9084 20.1525 63.7705 19.8344 63.6064C19.6599 63.5172 19.6599 63.5172 19.4818 63.4261C19.2977 63.3315 19.2977 63.3315 19.11 63.2351C15.7643 61.5456 12.6806 60.9861 9.04932 60.6736C4.44642 60.2712 0.969755 58.7116 -2.2202 54.8905C-5.52834 50.5573 -8.05836 45.3636 -9.73687 40.0315C-9.77374 39.9165 -9.81061 39.8014 -9.8486 39.6829C-11.0262 35.9536 -11.7749 31.9219 -12.0725 28.0008C-12.0843 27.8463 -12.0961 27.6918 -12.1082 27.5327C-12.5241 21.7291 -12.1351 15.4083 -8.59585 10.8244C-4.08498 5.17555 2.57658 2.39156 9.14355 0.945566C9.28603 0.913954 9.42852 0.882343 9.57532 0.849773C11.7971 0.361633 13.96 -0.00997465 16.2403 0.0531928C16.377 0.0564052 16.5137 0.0596171 16.6545 0.0629268C22.7488 0.256345 28.2588 2.83007 32.5511 7.72004C33.3877 8.71701 34.1875 9.7493 34.9817 10.7875C35.0639 10.8948 35.1461 11.0021 35.2308 11.1126C35.9817 12.0959 36.7145 13.094 37.4345 14.1051C39.0326 16.3454 40.6465 18.5227 42.4662 20.549C48.7253 27.5442 54.2016 34.7647 54.6133 45.0126Z" fill="#00A144"/>
</svg>
