<svg width="63" height="56" viewBox="0 0 63 56" fill="none" xmlns="http://www.w3.org/2000/svg">
<path d="M22.4345 51.9671C23.7772 51.9308 25.2983 51.7928 26.5573 51.5948C35.6918 50.1372 43.3297 47.2489 49.5031 42.9307C57.1977 37.5435 61.8143 30.1084 61.6777 23.3397C61.5771 18.2654 58.8975 14.7116 54.2571 13.4835C53.6779 13.3355 53.0492 13.2483 51.9407 13.1842C50.4416 13.0923 50.0017 13.1164 48.0305 13.367C46.7482 13.5378 44.2484 13.5353 42.9188 13.3768C40.0925 13.0289 37.1759 12.1556 34.0421 10.7269C33.0712 10.2851 29.7691 8.5684 28.0525 7.61967C22.3519 4.45779 20.1858 3.59498 17.5385 3.42907C14.6759 3.24874 12.6653 4.10119 10.4241 6.45502C8.88925 8.05569 7.67591 9.88634 6.35304 12.5565C3.69041 17.9318 1.5038 24.6671 0.705182 29.9221C0.464682 31.503 0.367873 35.2511 0.532391 36.6119C0.984463 40.4451 2.4094 43.7182 4.61843 46.0096C6.74195 48.2102 9.32275 49.7133 12.7152 50.7141C15.5683 51.5681 19.3574 52.0561 22.4345 51.9671Z" fill="#155E9F"/>
<path d="M27.7593 52.5869C29.6415 52.0851 30.2089 51.9086 31.4856 51.4285C40.9378 47.8053 48.3835 42.4694 53.0862 35.9275C53.9075 34.7823 55.3568 32.3714 55.8871 31.2634C57.4106 28.0832 58.2721 24.7538 58.3524 21.6732C58.3862 20.2286 58.0565 17.7537 57.6653 16.5858C57.0393 14.7267 56.1387 13.3 54.8549 12.1621C52.9554 10.4701 50.9326 9.82048 48.0801 9.97662C46.9526 10.0445 46.029 10.2499 44.37 10.801C42.6732 11.3676 39.5264 11.8741 37.9511 11.8341C34.439 11.7461 31.466 11.06 25.9026 9.05825C24.8304 8.67221 23.296 8.13334 22.4876 7.85632C16.7977 5.92223 13.7114 6.01185 11.0454 8.20199C8.22828 10.5111 6.20454 15.5141 4.85081 23.5241C3.36796 32.2556 3.61812 38.8809 5.61122 43.8054C6.9369 47.0857 9.03757 49.5691 11.8439 51.1625C12.8473 51.7395 14.9134 52.5242 16.1224 52.803C17.9203 53.2237 19.8821 53.3908 22.1137 53.3157C23.1824 53.2857 26.9962 52.795 27.7593 52.5869ZM23.5065 52.8075C19.6951 53.2032 15.9251 52.6548 12.8986 51.2578C10.3423 50.0692 8.11834 47.956 6.75493 45.4202C5.53164 43.1365 4.91551 41.0106 4.51242 37.686C3.99272 33.4333 4.21193 29.3078 5.26526 23.2302C6.82597 14.259 9.17738 9.30744 12.7186 7.58237C15.1516 6.39546 18.0925 6.68904 23.6141 8.67861C32.0545 11.7038 34.7298 12.3242 38.928 12.226C40.0699 12.2032 42.7431 11.7445 43.8139 11.3923C45.7481 10.7496 46.1577 10.6458 47.5668 10.4758C49.8645 10.1912 51.448 10.4571 53.1778 11.4095C57.766 13.9281 59.2744 20.6727 56.8543 27.8887C56.1016 30.1306 55.1864 32.02 53.8059 34.1832C49.2036 41.3717 41.2971 47.293 31.2357 51.0806C28.6757 52.0512 26.852 52.4584 23.5065 52.8075Z" fill="black"/>
<path d="M9.97194 24.16L7.27194 30.64C7.22394 30.768 7.15194 30.868 7.05594 30.94C6.95994 31.012 6.85194 31.048 6.73194 31.048C6.55594 31.048 6.42394 31 6.33594 30.904C6.24794 30.8 6.19994 30.672 6.19194 30.52C6.19194 30.464 6.20394 30.4 6.22794 30.328L9.27594 22.96C9.33194 22.824 9.41194 22.72 9.51594 22.648C9.62794 22.576 9.74794 22.544 9.87594 22.552C9.99594 22.552 10.1079 22.588 10.2119 22.66C10.3159 22.732 10.3919 22.832 10.4399 22.96L13.4519 30.22C13.4839 30.3 13.4999 30.38 13.4999 30.46C13.4999 30.636 13.4399 30.78 13.3199 30.892C13.2079 30.996 13.0799 31.048 12.9359 31.048C12.8159 31.048 12.7039 31.012 12.5999 30.94C12.5039 30.86 12.4319 30.76 12.3839 30.64L9.65994 24.196L9.97194 24.16ZM7.75194 28.936L8.29194 27.784H11.6879L11.8919 28.936H7.75194ZM18.2112 22.6C18.7952 22.6 19.3112 22.712 19.7592 22.936C20.2072 23.152 20.5792 23.456 20.8752 23.848C21.1792 24.232 21.4072 24.68 21.5592 25.192C21.7112 25.696 21.7872 26.232 21.7872 26.8C21.7872 27.576 21.6512 28.284 21.3792 28.924C21.1072 29.556 20.7072 30.06 20.1792 30.436C19.6512 30.812 18.9952 31 18.2112 31H15.2832C15.1152 31 14.9712 30.944 14.8512 30.832C14.7312 30.712 14.6712 30.564 14.6712 30.388V23.212C14.6712 23.036 14.7312 22.892 14.8512 22.78C14.9712 22.66 15.1152 22.6 15.2832 22.6H18.2112ZM18.0912 29.848C18.6592 29.848 19.1192 29.708 19.4712 29.428C19.8232 29.148 20.0792 28.78 20.2392 28.324C20.4072 27.86 20.4912 27.352 20.4912 26.8C20.4912 26.392 20.4432 26.008 20.3472 25.648C20.2592 25.28 20.1152 24.956 19.9152 24.676C19.7232 24.388 19.4752 24.164 19.1712 24.004C18.8752 23.836 18.5152 23.752 18.0912 23.752H15.8232L15.9312 23.644V29.968L15.8592 29.848H18.0912ZM29.225 22.588C29.401 22.588 29.541 22.648 29.645 22.768C29.749 22.88 29.801 23.024 29.801 23.2V27.748C29.801 28.388 29.661 28.96 29.381 29.464C29.101 29.968 28.717 30.364 28.229 30.652C27.741 30.932 27.177 31.072 26.537 31.072C25.905 31.072 25.341 30.932 24.845 30.652C24.357 30.364 23.969 29.968 23.681 29.464C23.401 28.96 23.261 28.388 23.261 27.748V23.2C23.261 23.024 23.321 22.88 23.441 22.768C23.561 22.648 23.717 22.588 23.909 22.588C24.061 22.588 24.197 22.648 24.317 22.768C24.445 22.88 24.509 23.024 24.509 23.2V27.748C24.509 28.172 24.601 28.544 24.785 28.864C24.977 29.176 25.229 29.424 25.541 29.608C25.853 29.784 26.185 29.872 26.537 29.872C26.921 29.872 27.273 29.784 27.593 29.608C27.913 29.424 28.169 29.176 28.361 28.864C28.561 28.544 28.661 28.172 28.661 27.748V23.2C28.661 23.024 28.709 22.88 28.805 22.768C28.909 22.648 29.049 22.588 29.225 22.588ZM36.4011 29.824C36.5691 29.824 36.7091 29.88 36.8211 29.992C36.9411 30.104 37.0011 30.244 37.0011 30.412C37.0011 30.58 36.9411 30.72 36.8211 30.832C36.7091 30.944 36.5691 31 36.4011 31H32.3691C32.1931 31 32.0451 30.944 31.9251 30.832C31.8131 30.712 31.7571 30.564 31.7571 30.388V23.212C31.7571 23.036 31.8171 22.892 31.9371 22.78C32.0571 22.66 32.2131 22.6 32.4051 22.6C32.5651 22.6 32.7051 22.66 32.8251 22.78C32.9531 22.892 33.0171 23.036 33.0171 23.212V30.028L32.7651 29.824H36.4011ZM40.0829 31C39.8909 31 39.7349 30.944 39.6149 30.832C39.5029 30.712 39.4469 30.564 39.4469 30.388V23.2H40.7309V30.388C40.7309 30.564 40.6669 30.712 40.5389 30.832C40.4189 30.944 40.2669 31 40.0829 31ZM37.3589 23.752C37.1909 23.752 37.0469 23.7 36.9269 23.596C36.8069 23.484 36.7469 23.34 36.7469 23.164C36.7469 22.996 36.8069 22.86 36.9269 22.756C37.0469 22.652 37.1909 22.6 37.3589 22.6H42.8189C42.9869 22.6 43.1269 22.656 43.2389 22.768C43.3589 22.872 43.4189 23.008 43.4189 23.176C43.4189 23.352 43.3589 23.492 43.2389 23.596C43.1269 23.7 42.9869 23.752 42.8189 23.752H37.3589ZM52.1983 26.8C52.1983 27.408 52.0983 27.976 51.8983 28.504C51.6983 29.024 51.4143 29.48 51.0463 29.872C50.6863 30.264 50.2583 30.572 49.7623 30.796C49.2663 31.012 48.7223 31.12 48.1303 31.12C47.5463 31.12 47.0063 31.012 46.5103 30.796C46.0143 30.572 45.5823 30.264 45.2143 29.872C44.8543 29.48 44.5743 29.024 44.3743 28.504C44.1823 27.976 44.0863 27.408 44.0863 26.8C44.0863 26.192 44.1823 25.628 44.3743 25.108C44.5743 24.58 44.8543 24.12 45.2143 23.728C45.5823 23.336 46.0143 23.032 46.5103 22.816C47.0063 22.592 47.5463 22.48 48.1303 22.48C48.7223 22.48 49.2663 22.592 49.7623 22.816C50.2583 23.032 50.6863 23.336 51.0463 23.728C51.4143 24.12 51.6983 24.58 51.8983 25.108C52.0983 25.628 52.1983 26.192 52.1983 26.8ZM50.9023 26.8C50.9023 26.208 50.7823 25.676 50.5423 25.204C50.3103 24.732 49.9863 24.36 49.5703 24.088C49.1543 23.816 48.6743 23.68 48.1303 23.68C47.5943 23.68 47.1183 23.816 46.7023 24.088C46.2863 24.36 45.9623 24.732 45.7303 25.204C45.4983 25.668 45.3823 26.2 45.3823 26.8C45.3823 27.392 45.4983 27.924 45.7303 28.396C45.9623 28.868 46.2863 29.24 46.7023 29.512C47.1183 29.784 47.5943 29.92 48.1303 29.92C48.6743 29.92 49.1543 29.784 49.5703 29.512C49.9863 29.24 50.3103 28.868 50.5423 28.396C50.7823 27.924 50.9023 27.392 50.9023 26.8ZM56.2512 31.12C55.6752 31.12 55.1632 31.04 54.7152 30.88C54.2672 30.72 53.8392 30.456 53.4312 30.088C53.3432 30.024 53.2752 29.948 53.2272 29.86C53.1872 29.764 53.1672 29.668 53.1672 29.572C53.1672 29.42 53.2232 29.284 53.3352 29.164C53.4472 29.044 53.5872 28.984 53.7552 28.984C53.8832 28.984 54.0032 29.028 54.1152 29.116C54.4192 29.396 54.7352 29.608 55.0632 29.752C55.3992 29.896 55.7912 29.968 56.2392 29.968C56.5592 29.968 56.8512 29.916 57.1152 29.812C57.3872 29.708 57.6032 29.568 57.7632 29.392C57.9232 29.216 58.0032 29.012 58.0032 28.78C58.0032 28.492 57.9192 28.256 57.7512 28.072C57.5912 27.88 57.3552 27.724 57.0432 27.604C56.7392 27.476 56.3712 27.368 55.9392 27.28C55.5392 27.208 55.1792 27.108 54.8592 26.98C54.5472 26.852 54.2792 26.692 54.0552 26.5C53.8312 26.3 53.6592 26.064 53.5392 25.792C53.4192 25.52 53.3592 25.204 53.3592 24.844C53.3592 24.356 53.4872 23.936 53.7432 23.584C53.9992 23.232 54.3472 22.96 54.7872 22.768C55.2272 22.576 55.7232 22.48 56.2752 22.48C56.7792 22.48 57.2512 22.56 57.6912 22.72C58.1312 22.872 58.4872 23.08 58.7592 23.344C58.9512 23.512 59.0472 23.692 59.0472 23.884C59.0472 24.028 58.9872 24.164 58.8672 24.292C58.7552 24.412 58.6232 24.472 58.4712 24.472C58.3592 24.472 58.2632 24.44 58.1832 24.376C58.0552 24.24 57.8832 24.12 57.6672 24.016C57.4512 23.904 57.2192 23.812 56.9712 23.74C56.7312 23.668 56.4992 23.632 56.2752 23.632C55.9152 23.632 55.6072 23.684 55.3512 23.788C55.0952 23.884 54.8992 24.02 54.7632 24.196C54.6272 24.364 54.5592 24.564 54.5592 24.796C54.5592 25.068 54.6352 25.292 54.7872 25.468C54.9472 25.644 55.1672 25.788 55.4472 25.9C55.7272 26.004 56.0472 26.1 56.4072 26.188C56.8472 26.284 57.2392 26.392 57.5832 26.512C57.9352 26.632 58.2312 26.788 58.4712 26.98C58.7112 27.164 58.8952 27.396 59.0232 27.676C59.1512 27.956 59.2152 28.304 59.2152 28.72C59.2152 29.2 59.0792 29.62 58.8072 29.98C58.5352 30.34 58.1752 30.62 57.7272 30.82C57.2872 31.02 56.7952 31.12 56.2512 31.12Z" fill="white"/>
</svg>
