<svg width="400" height="350" viewBox="0 0 400 350" fill="none" xmlns="http://www.w3.org/2000/svg">
<path d="M37.8875 29.2704C35.1078 29.398 32.8449 29.7516 30.4491 30.4335C20.914 33.1461 13.291 40.2412 9.96495 49.4948C9.15282 51.748 8.60648 54.2017 8.35915 56.7029C8.17826 58.515 8.18565 60.7573 8.37761 62.6824C8.95348 68.4759 11.2607 74.0469 14.9817 78.6154C15.7532 79.5633 16.2774 80.1358 17.2298 81.0801C18.7471 82.5749 20.1055 83.6833 21.811 84.8099C26.2814 87.7705 31.1542 89.4404 36.6139 89.8888C37.4113 89.9545 40.5048 89.9545 41.2837 89.8888C45.4662 89.5388 49.106 88.5471 52.6905 86.7788C56.5333 84.8792 59.9147 82.2213 62.6797 78.9253C63.514 77.9299 64.5476 76.4934 65.249 75.3522C69.21 68.8988 70.5869 61.2021 69.114 53.7132C68.0545 48.328 65.3892 43.1325 61.5981 39.0745C56.5149 33.6346 49.7003 30.2256 42.3026 29.4308C41.1508 29.3068 38.8695 29.223 37.8875 29.2704ZM29.5927 37.9223C31.42 38.2432 32.8302 38.8849 35.6689 40.6897C37.559 41.8892 38.2308 42.2793 39.2534 42.7715C40.3276 43.2856 41.2616 43.5955 42.4133 43.8289C43.7829 44.1023 45.0047 44.219 47.7069 44.3247C51.1437 44.4596 52.4764 44.5982 54.0194 44.981C58.0062 45.9727 61.443 48.8786 63.3848 52.9001C65.7473 57.804 65.5775 63.4735 62.9012 68.8988C60.8081 73.1427 57.4267 76.6538 53.4288 78.7357C50.0215 80.504 45.5991 81.4957 41.1176 81.4957C33.7235 81.4921 26.6026 78.7831 20.8918 73.8063C20.3049 73.2959 18.6991 71.7208 18.0604 71.0317C14.8894 67.6008 13.2172 64.6658 12.8333 61.862C12.741 61.1875 12.741 59.2332 12.8333 58.3618C13.1766 55.1205 14.1585 51.4709 15.5576 48.2369C16.4805 46.0967 17.3147 44.682 18.5108 43.2127C20.8734 40.3105 23.893 38.3817 26.7761 37.9296C27.4405 37.8239 27.4553 37.8239 28.345 37.8348C28.9688 37.8421 29.2568 37.864 29.5927 37.9223Z" fill="#00A144"/>
<path d="M29.5346 218.739C28.4758 220.303 28.1935 220.371 27.2052 219.487C25.5111 217.991 22.5465 217.515 20.7818 218.399C19.5112 219.079 19.2994 219.623 19.5818 221.391C19.8641 223.091 19.6524 223.771 18.523 224.451C17.4642 225.063 17.2524 225.743 17.6053 227.103C17.8171 228.123 18.2406 229.143 18.523 229.415C18.8053 229.687 23.3935 229.959 28.8288 230.027C37.4404 230.163 38.711 230.027 39.2757 229.007C40.3345 227.171 39.3463 224.723 37.4404 224.247C35.8875 223.907 35.7463 223.567 36.0993 221.595C36.8052 217.379 31.9346 215.271 29.5346 218.739ZM34.1934 219.419C34.6875 219.963 34.8287 220.983 34.4758 221.935L33.9816 223.499L33.4169 221.935C32.9228 220.711 32.4287 220.439 31.3699 220.779C29.6758 221.323 29.6052 220.915 31.0876 219.487C32.4287 218.127 33.064 218.127 34.1934 219.419ZM26.9229 221.255C28.4052 222.479 29.9582 223.907 30.3817 224.451C30.7346 224.927 32.5699 225.471 34.4052 225.675C37.0875 226.015 37.7228 226.287 37.7228 227.375C37.7228 228.531 37.1581 228.599 28.7582 228.463C19.8641 228.259 19.723 228.259 19.5112 226.627C19.2994 225.199 19.4406 225.063 20.9935 225.471C23.1112 225.947 23.8876 225.267 22.6876 223.907C20.9935 222.003 20.7818 220.507 22.0523 219.827C23.817 218.807 24.0288 218.875 26.9229 221.255Z" fill="black"/>
<path d="M22.8624 222.43C22.8624 223.212 23.4891 224.349 24.255 225.06C25.369 226.127 25.7868 226.127 26.6919 225.416C28.0148 224.278 28.0148 223.638 26.6223 222.287C25.0905 220.723 22.8624 220.794 22.8624 222.43Z" fill="black"/>
<path d="M19.2526 236.607V241.955H23.7649H28.2772V237.463C28.2772 234.896 27.9301 232.614 27.4442 232.115C26.9582 231.616 24.945 231.259 22.9318 231.259H19.2526V236.607ZM26.75 236.75L26.9582 240.529H23.8343H20.641V237.107C20.641 235.181 20.8492 233.399 21.1269 233.113C21.4046 232.828 22.7236 232.685 24.112 232.828C26.5417 233.042 26.5417 233.042 26.75 236.75Z" fill="black"/>
<path d="M29.0884 236.871L29.2979 241.361H33.1391H36.9803L37.539 237.862C38.3771 232.844 38.0977 232.448 33.1391 232.448H28.8789L29.0884 236.871ZM36.2819 236.211C35.5835 240.173 35.4438 240.371 32.7899 240.371H30.3455V237.069V233.768H33.4883H36.7009L36.2819 236.211Z" fill="black"/>
<path d="M27.1231 201.56C27.0481 201.566 26.7412 201.589 26.4412 201.609C21.1188 201.956 15.817 203.876 11.4629 207.031C9.59451 208.383 7.81813 210.04 6.35201 211.792C2.24008 216.699 0 222.826 0 229.175C0 235.53 2.22303 241.612 6.35201 246.558C7.00324 247.34 7.55559 247.927 8.40116 248.742C9.49222 249.798 10.3037 250.478 11.4527 251.313C15.4487 254.203 20.0721 256.008 25.0262 256.609C26.9765 256.846 29.4143 256.876 31.3509 256.691C37.9518 256.061 44.0277 253.283 48.7226 248.759C53.4619 244.192 56.343 238.289 57.0045 231.798C57.1647 230.227 57.1647 228.122 57.0045 226.552C56.343 220.064 53.4585 214.158 48.7226 209.591C45.5824 206.562 41.8183 204.312 37.6416 202.959C35.4629 202.253 33.3523 201.833 30.9247 201.619C30.369 201.569 27.5015 201.527 27.1231 201.56ZM30.8906 205.268C34.4025 205.506 37.1711 206.123 39.0054 207.073C41.6444 208.443 44.205 211.525 46.6019 216.214C49.2579 221.407 50.2092 227.126 49.3671 232.838C48.6067 238.018 46.203 243.096 42.8377 246.63C40.5704 249.009 37.6313 250.811 34.215 251.91C32.5954 252.431 31.027 252.748 29.1688 252.923C28.5687 252.979 26.2809 252.979 25.674 252.923C22.7452 252.649 20.2971 251.857 17.9854 250.442C14.3884 248.237 11.8482 244.687 11.2004 240.958C11.0674 240.176 11.0333 239.77 11.0333 238.909C11.0368 237.173 11.2788 235.913 12.2744 232.438C13.1848 229.267 13.4337 227.944 13.4337 226.278C13.4337 224.747 13.2837 223.958 12.3256 220.431C12.2233 220.048 12.0767 219.484 12.0051 219.177C11.3027 216.25 11.4493 214.217 12.4995 212.228C13.5632 210.211 15.6533 208.37 18.2923 207.116C20.754 205.948 23.1612 205.414 26.748 205.235C27.4879 205.199 30.1985 205.219 30.8906 205.268Z" fill="#155E9F"/>
<path d="M192.977 0.880337C181.063 4.15177 173.845 9.22981 169.692 17.1398C166.33 23.6827 165.935 29.9814 168.456 37.452C170.582 43.5554 172.016 46.2897 175.624 50.6354C183.188 59.8149 188.972 62.0121 199.057 59.5219C203.358 58.4477 204.644 57.9595 207.215 56.2505C208.747 55.274 208.945 55.2251 210.576 55.9087C214.235 57.4224 223.133 60.059 223.628 59.7661C223.924 59.6196 223.628 59.0337 222.935 58.3989C221.601 57.1782 218.684 51.9049 218.684 50.6354C218.684 50.1959 219.228 49.2194 219.821 48.4381C221.403 46.6315 224.171 41.7976 225.457 38.7703C227.138 34.7665 228.225 27.4424 227.978 21.2901C227.83 16.0168 227.731 15.675 225.951 12.5501C221.452 4.64004 212.059 -0.0962067 200.936 0.00144577C197.97 0.00144577 195.004 0.343239 192.977 0.880337ZM209.291 1.85688C217.3 4.10294 222.837 8.35091 225.704 14.3567L227.236 17.6281L226.94 24.0733C226.594 31.788 225.556 36.6707 223.38 41.0164C221.749 44.1413 218.437 48.8776 217.596 49.1705C216.756 49.5123 217.25 50.9771 219.228 54.2486C220.315 56.104 221.156 57.813 221.057 58.0571C220.859 58.5942 209.587 54.8345 209.39 54.1509C209.291 53.9068 208.203 54.3462 206.967 55.1763C201.282 59.0825 192.334 60.5961 187.044 58.5942C181.952 56.6899 175.229 50.0006 172.065 43.6531C170.285 40.1375 168.258 34.0829 167.912 31.3486C167.566 28.0771 168.506 22.462 170.137 18.5558C171.225 15.9191 172.312 14.5032 175.921 10.9388C180.222 6.69079 180.568 6.49548 185.808 4.49356C188.824 3.3217 192.581 2.10102 194.213 1.7104C198.563 0.685028 205.435 0.733856 209.291 1.85688Z" fill="black"/>
<path d="M205.979 20.3136C200.936 30.0302 197.031 36.329 195.449 37.3055C194.905 37.6473 192.433 36.2801 190.604 34.62C187.984 32.2763 185.017 33.0087 185.116 35.9872C185.116 37.2567 186.154 38.2821 194.312 45.2155C197.031 47.5593 197.08 47.4616 204.891 32.9111C206.028 30.7627 207.907 27.5889 209.044 25.8311C211.664 21.8273 212.257 20.7042 212.257 19.7765C212.257 18.5558 210.774 17.5305 209.093 17.5305C207.61 17.5305 207.313 17.7746 205.979 20.3136ZM210.823 18.8C211.664 19.7765 211.12 21.1437 208.203 25.587C206.967 27.4912 204.199 32.1298 202.073 35.9872C199.947 39.7957 197.871 43.4578 197.574 44.0437C196.684 45.6062 195.696 45.1667 191.494 41.5047C185.759 36.4755 185.215 35.6454 187.193 34.4247C188.132 33.8388 188.033 33.7899 191.939 36.9149C193.965 38.5262 194.756 38.9168 195.399 38.5262C196.437 37.9891 200.145 32.6669 202.32 28.5166C206.077 21.4855 206.868 20.1671 208.055 19.0929C209.587 17.8234 209.934 17.7746 210.823 18.8Z" fill="black"/>
<path d="M240.189 31.9833C239.596 32.911 239.497 33.3993 239.892 33.7899C240.288 34.1805 240.436 34.0829 240.436 33.497C240.436 33.0087 240.782 32.5204 241.178 32.3739C241.969 32.0321 242.216 30.7138 241.474 30.7138C241.227 30.7138 240.683 31.2997 240.189 31.9833Z" fill="black"/>
<path d="M234.108 33.1064C233.169 35.2548 232.724 38.2821 233.416 37.8427C233.762 37.6474 234.009 36.9638 234.009 36.2802C234.009 35.5966 234.256 34.6201 234.553 34.0342C235.097 33.0576 235.097 33.0576 236.234 34.1318C236.877 34.7177 237.668 35.0595 237.964 34.8642C238.36 34.6201 237.964 34.0342 236.877 33.1064C235.987 32.374 235.146 31.7393 234.998 31.6905C234.85 31.6905 234.454 32.3252 234.108 33.1064Z" fill="black"/>
<path d="M242.908 32.081C242.908 32.3251 243.551 33.1064 244.342 33.8388L245.726 35.1571L247.555 33.9364C249.73 32.4716 251.46 31.8857 251.708 32.4716C252.449 34.4735 253.636 36.329 254.031 36.1825C254.328 36.1337 254.525 35.8895 254.525 35.6454C254.525 34.8642 255.168 34.5224 256.107 34.8153C257.096 35.1083 258.728 39.0633 258.728 41.1141C258.728 42.0418 259.024 42.3836 259.865 42.5301C260.853 42.6765 260.952 42.9207 260.804 45.5085C260.754 47.071 260.26 49.6588 259.716 51.2213C258.48 54.8345 258.48 54.981 259.716 53.9068C261.249 52.4908 261.496 53.4674 260.26 56.2505C258.579 60.0591 258.48 60.5473 259.42 60.2055C259.865 60.0591 260.211 59.5708 260.211 59.229C260.211 58.8384 260.656 57.6665 261.199 56.5923C262.386 54.2974 262.435 52.8814 261.397 52.2955C260.656 51.9049 260.656 51.5631 261.447 48.0964C262.386 43.9949 262.188 42.1394 260.804 41.7C260.161 41.5047 259.667 40.577 259.271 38.7704C258.431 35.206 257.047 33.497 255.168 33.7411C254.13 33.9364 253.586 33.7411 253.388 33.204C252.696 31.3486 250.917 31.2509 247.654 32.8622L245.33 34.0341L244.539 32.8622C243.798 31.7392 242.908 31.2998 242.908 32.081Z" fill="black"/>
<path d="M115.361 34.6688C109.379 37.4032 105.82 41.8953 103.941 49.1705C102.112 56.2993 101.272 75.342 102.557 81.4454C102.854 82.8614 102.952 84.668 102.804 85.4492C102.557 86.8164 103.496 88.1347 103.892 86.9141C104.139 86.1816 108.292 80.0782 109.033 79.297C109.33 79.004 109.478 80.4688 109.33 83.5938C109.231 86.5234 109.379 88.33 109.676 88.33C109.973 88.33 110.714 87.4023 111.406 86.2305L112.593 84.1797L113.038 87.1094C113.68 91.6991 114.966 96.1912 115.559 95.9959C115.855 95.8494 116.004 95.4588 115.905 95.117C115.312 93.4081 116.004 89.8925 117.586 86.5723C119.316 82.8614 120.008 82.2266 120.552 83.9356C120.7 84.4727 121.046 84.9121 121.294 84.9121C121.986 84.9121 122.282 83.4961 122.282 80.2247C122.282 78.4669 122.48 77.0998 122.777 77.0998C123.222 77.0998 123.469 77.9787 123.37 79.4923C123.37 80.2735 124.655 81.7384 125.051 81.3477C125.199 81.2013 125.001 80.1271 124.606 78.9552C124.21 77.8322 123.765 75.6349 123.568 74.1701C123.222 71.2893 123.271 71.2893 125.496 74.3654C126.534 75.7814 127.918 75.0002 127.473 73.2912C126.385 69.2386 127.028 59.9126 128.808 53.9068C129.401 51.9537 129.401 51.9537 129.599 53.4185C129.895 56.0064 130.736 58.5454 131.23 58.5454C131.576 58.5454 131.626 58.2036 131.428 57.6665C131.23 57.2271 130.983 56.0552 130.884 55.1275C130.093 49.5123 129.895 49.2194 128.561 51.9049C127.424 54.3462 125.594 66.9925 125.891 70.5081L126.138 73.3889L124.507 71.4846L122.826 69.5315L122.777 63.8676C122.777 60.7426 123.024 57.4712 123.37 56.5435C124.26 53.858 126.682 50.7818 128.363 50.0494C129.945 49.3659 129.945 49.3659 128.66 49.317C127.028 49.2682 124.606 51.856 123.123 55.0786C121.986 57.5688 121.738 62.8422 122.381 71.2405C122.579 73.7795 122.579 75.4885 122.48 75.0002C121.837 72.9006 121.294 74.5607 121.294 78.6134C121.294 81.3966 121.096 82.9102 120.799 82.7149C120.552 82.5684 120.305 81.8848 120.305 81.2501C120.305 80.6153 120.107 79.9317 119.81 79.7853C119.563 79.6388 119.316 79.9317 119.316 80.4688C119.316 81.0059 118.476 83.1543 117.388 85.2539C116.35 87.3535 115.312 89.5996 115.114 90.2831C114.718 91.455 114.718 91.455 114.323 90.5273C114.125 89.9902 113.927 87.7441 113.927 85.5469C113.878 81.7384 113.235 79.9317 112.593 81.836C112.049 83.4473 110.714 85.8887 110.319 85.8887C110.121 85.8887 110.071 84.7168 110.22 83.3008C110.714 77.6369 110.912 76.3185 111.208 75.2443C111.456 74.4631 111.307 74.1701 110.714 74.1701C110.269 74.1701 109.923 74.5607 109.923 75.1467C109.923 76.5138 108.687 78.8087 106.265 81.836C103.842 84.9121 103.793 84.8145 103.002 77.5392C102.31 70.7522 102.359 65.8207 103.249 58.0571C104.782 44.9714 107.946 39.0633 115.312 35.6942C118.624 34.1806 119.316 34.0341 122.134 34.2782C124.853 34.4735 125.594 34.7665 127.869 36.5243C129.352 37.5985 130.835 39.1121 131.181 39.7957C131.824 40.9676 131.824 41.1629 130.785 41.9441C128.956 43.4089 127.374 48.2917 128.709 48.2917C129.006 48.2917 129.203 47.6081 129.203 46.8268C129.203 44.9226 130.39 42.6277 131.675 41.9441C132.812 41.3582 133.109 42.1394 131.972 42.7742C130.489 43.6531 129.401 48.2917 130.686 48.2917C130.983 48.2917 131.181 48.6334 131.181 49.0729C131.181 49.4635 131.428 49.6588 131.725 49.4635C132.021 49.317 132.12 48.7311 131.972 48.1452C131.675 46.9733 132.664 44.4343 133.801 43.5066C134.889 42.5789 134.444 41.7 131.082 38.2332C125.842 32.8622 121.59 31.8857 115.361 34.6688ZM131.774 45.362C131.329 46.3874 130.835 47.071 130.736 46.778C130.538 46.1432 131.675 43.4089 132.17 43.4089C132.417 43.4089 132.219 44.2878 131.774 45.362Z" fill="black"/>
<path d="M230.054 35.1083C230.054 37.0125 233.515 41.6023 234.306 40.8211C234.504 40.6257 234.108 40.0398 233.416 39.5027C232.724 38.9656 231.784 37.6473 231.34 36.5731C230.598 34.6688 230.054 34.0829 230.054 35.1083Z" fill="black"/>
<path d="M237.964 37.3055C236.481 38.7703 235.393 40.0398 235.542 40.1863C235.838 40.4793 241.425 35.5477 241.425 34.9618C241.425 34.2294 240.584 34.7665 237.964 37.3055Z" fill="black"/>
<path d="M242.067 37.3055C242.117 38.7704 242.364 39.991 242.611 39.991C242.858 39.991 243.798 39.4539 244.638 38.7704C246.368 37.5008 246.863 37.5985 246.863 39.2098C246.863 40.0887 247.011 40.0399 248.346 38.7704C249.137 37.9891 249.928 37.452 250.027 37.5985C250.126 37.6962 250.57 38.6239 250.966 39.6004C251.757 41.4559 252.795 42.0906 252.795 40.7234C252.795 40.3328 252.597 39.991 252.4 39.991C252.152 39.991 251.708 39.1121 251.361 38.0379C250.719 35.8407 250.373 35.6942 249.186 37.0614C248.741 37.5985 248.148 38.0379 247.851 38.0379C247.604 38.0379 247.357 37.5985 247.357 37.0614C247.357 35.7919 247.11 35.8407 245.182 37.3055C243.303 38.7215 242.908 38.5262 242.908 36.2313C242.908 35.3524 242.71 34.62 242.463 34.62C242.166 34.62 242.018 35.8407 242.067 37.3055Z" fill="black"/>
<path d="M229.263 40.0398C229.51 42.4323 229.412 42.9694 228.868 42.7741C228.423 42.5788 228.176 42.9206 228.176 43.7995C228.176 45.362 230.796 48.2916 232.18 48.2916C232.823 48.2916 233.02 48.5357 232.823 49.024C232.526 49.8541 233.663 60.6937 234.553 65.8206C235.295 69.8244 237.42 72.0705 241.622 73.3888C245.034 74.463 247.654 74.1701 250.719 72.4123C251.905 71.7287 252.943 71.2404 253.042 71.3381C253.092 71.3869 253.339 72.9982 253.586 74.8537C253.883 77.0509 254.278 78.3204 254.723 78.4669C255.218 78.6134 255.316 78.4669 255.069 77.7833C254.871 77.2462 254.575 75.1955 254.427 73.1935C254.179 69.5803 254.179 69.4827 255.465 68.7991C256.206 68.4573 257.195 67.1878 257.739 66.0159C258.579 64.1605 258.629 63.1839 258.381 59.2777C258.184 56.4458 257.887 54.7856 257.59 54.9809C257.294 55.1274 257.244 56.8364 257.442 59.3266C257.739 62.7933 257.64 63.6234 256.8 65.2347C254.871 68.9944 248.89 73.1935 245.528 73.1935C241.919 73.1935 237.519 70.801 236.086 68.0667C235.542 66.9925 234.256 58.5453 233.713 52.5884C233.416 49.1705 233.465 48.8287 234.405 48.3404C234.948 48.0475 235.739 47.4615 236.184 47.0709C236.778 46.485 237.173 46.4362 237.915 46.8268C239.348 47.5592 244.589 47.4127 247.703 46.5338C250.422 45.7526 253.833 43.3112 253.191 42.6276C252.993 42.4812 252.054 42.9694 251.114 43.7995C249.236 45.4108 243.748 46.9244 241.178 46.5338C238.014 45.9967 237.519 45.8014 236.036 44.5807C234.454 43.2624 233.861 43.8971 235.245 45.362C235.937 46.1432 235.888 46.2897 234.701 47.0221C233.614 47.7545 233.218 47.8033 231.982 47.2662C230.499 46.6803 228.324 44.4342 228.818 43.9948C228.917 43.8483 229.609 44.1413 230.301 44.5807C231.488 45.362 232.526 45.2643 232.526 44.4342C232.526 44.1901 232.131 43.8971 231.636 43.7995C230.647 43.5065 229.164 38.575 229.758 37.5984C229.955 37.3055 229.857 37.0613 229.51 37.0613C229.066 37.0613 229.016 37.8914 229.263 40.0398Z" fill="black"/>
<path d="M33.5325 48.9606C31.9929 49.7139 30.2758 51.2203 29.3876 52.5529C27.9072 54.6966 27.7888 55.3919 27.7888 60.7223C27.7888 65.8789 27.6112 66.9218 26.2493 69.6449C24.7098 72.7157 24.9466 74.0483 26.7822 72.4839C28.7954 70.7458 31.9929 70.1084 34.4799 70.8037C39.0985 72.1942 45.6119 71.2093 48.3949 68.7179C51.5332 65.9948 53.0727 59.2738 51.4739 55.5078C50.2897 52.6688 49.1646 51.452 45.9079 49.3662C42.4736 47.2804 37.4405 47.1066 33.5325 48.9606ZM45.9079 50.9306C49.5791 53.8855 50.8818 56.261 50.7634 59.5056C50.5858 63.7351 48.4541 67.4432 45.5527 68.8338C42.1183 70.4561 38.0326 70.6878 34.8351 69.4711C32.4074 68.5441 32.0521 68.5441 30.2165 69.4132C27.4335 70.6878 27.3151 70.6299 28.677 68.0226C29.7428 65.9948 29.8021 65.4733 29.1507 63.0978C28.2625 59.9111 29.1507 54.8704 31.0455 52.4949C34.0654 48.7289 42.2367 47.8598 45.9079 50.9306Z" fill="black"/>
<path d="M32.9426 54.6139C31.1323 58.0583 33.7017 62.938 38.8991 65.9232C40.8846 67.1288 41.9358 67.3584 43.6293 67.0714C47.2499 66.4973 48.3595 63.7991 45.7316 61.9621C44.3885 60.9861 44.1549 60.9287 43.2205 61.7899C41.819 63.0528 41.4686 62.938 38.8407 60.8139L36.5632 58.9195L37.6728 57.0824C38.6071 55.475 38.6655 55.1305 37.9064 54.4416C37.4392 53.9824 36.3296 53.4083 35.4537 53.2361C34.1105 52.8916 33.7601 53.1213 32.9426 54.6139ZM36.9136 55.0157C37.1472 55.2453 36.7384 56.1639 36.0376 57.1398L34.7529 58.8621L37.9648 61.675C39.7167 63.1676 41.3518 64.4306 41.6438 64.4306C41.9358 64.4306 42.6949 64.0288 43.2789 63.5121C44.1549 62.7084 44.4469 62.651 45.206 63.2825C45.9652 63.914 46.0236 64.1436 45.3812 64.7177C43.6877 66.2677 41.7022 66.1529 38.8991 64.4306C35.5705 62.3639 33.8185 59.7232 33.8185 56.7954C33.8185 54.9583 33.9937 54.6713 35.1617 54.6713C35.9208 54.6713 36.7384 54.8435 36.9136 55.0157Z" fill="black"/>
<path d="M142.798 39.0145C139.536 39.4051 135.63 40.8211 135.63 41.5535C135.63 41.8465 136.026 41.8953 136.52 41.7C139.783 40.3328 141.76 39.8446 145.122 39.6004C150.461 39.2586 154.119 40.6258 157.926 44.3855C160.151 46.5827 160.793 47.5593 161.337 49.6589C161.634 51.0748 161.832 52.8815 161.733 53.7115C161.584 54.4928 161.683 55.274 161.93 55.4205C162.128 55.567 162.326 55.0787 162.375 54.2974C162.573 48.0964 160.892 44.532 156.196 41.6023C152.389 39.2098 148.039 38.3309 142.798 39.0145Z" fill="black"/>
<path d="M252.597 44.7761C252.449 44.9225 252.845 45.7526 253.537 46.6315C254.278 47.5592 254.773 48.8775 254.773 49.8053C254.773 51.6119 255.761 55.1274 256.305 55.1274C256.898 55.1274 257.343 53.4673 256.8 53.272C256.058 53.0279 255.613 50.0006 256.157 48.9752C256.552 48.194 256.305 47.7057 254.773 46.2409C253.734 45.2643 252.746 44.5807 252.597 44.7761Z" fill="black"/>
<path d="M137.558 53.1744C134.938 55.0298 132.664 56.8853 132.516 57.3247C132.12 58.3013 132.961 58.3013 133.504 57.3247C133.752 56.9341 135.482 55.4693 137.36 54.1509C139.882 52.3932 141.266 51.7096 142.452 51.7096C143.787 51.7096 144.084 51.8561 143.837 52.4908C143.688 52.9303 143.392 53.8092 143.243 54.4439C142.947 55.4693 143.095 55.6158 144.43 55.6158C145.32 55.6158 146.556 55.1275 147.396 54.3951C149.176 52.9303 150.56 52.735 149.275 54.1021C147.891 55.6158 149.275 55.8111 151.697 54.4439C153.329 53.565 153.922 53.4185 153.922 53.9068C153.922 54.2974 153.724 54.7369 153.427 54.8834C153.18 55.0298 152.933 55.4693 152.933 55.8111C152.933 56.7876 155.158 56.2017 156.443 54.8345C157.036 54.1998 157.827 53.6627 158.173 53.6627C158.767 53.6627 160.349 56.4947 160.349 57.52C160.349 57.813 160.596 58.0571 160.843 58.0571C161.14 58.0571 161.337 57.813 161.337 57.52C161.337 56.6411 159.162 52.1979 158.717 52.1979C158.519 52.1979 157.679 52.8326 156.789 53.6627C154.812 55.5669 154.367 55.5181 155.059 53.4185C155.504 51.8561 155.059 50.1471 154.564 51.6119C154.268 52.3932 150.461 54.3463 150.461 53.7115C150.461 53.4674 150.708 53.0767 150.956 52.9303C151.252 52.7838 151.45 52.442 151.45 52.149C151.45 51.6119 149.126 51.5631 148.879 52.0514C148.583 52.735 145.567 54.6392 144.776 54.6392C143.886 54.6392 143.886 54.2974 144.727 52.6861C145.369 51.5631 145.32 51.4166 143.985 50.6354C143.194 50.1471 142.502 49.7565 142.403 49.7565C142.354 49.7565 140.178 51.319 137.558 53.1744Z" fill="black"/>
<path d="M239.843 51.0748C238.854 51.1725 237.766 51.6119 237.42 52.0025C236.629 52.9791 237.173 53.3697 238.36 52.7349C238.953 52.442 239.942 52.1978 240.634 52.1978C241.425 52.1978 241.919 51.9049 241.919 51.4654C241.919 51.0748 241.87 50.7819 241.82 50.8307C241.721 50.8795 240.831 50.9772 239.843 51.0748Z" fill="black"/>
<path d="M247.456 51.0749C246.517 51.4166 247.308 52.1979 248.593 52.1979C249.236 52.1979 249.928 52.3932 250.076 52.6862C250.521 53.4186 251.312 53.2721 251.312 52.442C251.312 52.0514 251.263 51.7096 251.164 51.7096C251.114 51.7096 250.373 51.5143 249.582 51.319C248.741 51.0749 247.802 50.9772 247.456 51.0749Z" fill="black"/>
<path d="M238.656 55.8598C238.508 56.5434 238.508 57.4223 238.656 57.8618C239.151 59.1801 240.189 58.3012 240.337 56.4458C240.436 55.0786 240.288 54.6392 239.744 54.6392C239.299 54.6392 238.854 55.1763 238.656 55.8598Z" fill="black"/>
<path d="M246.863 56.6411C246.863 59.1801 248.049 58.9848 248.247 56.4458C248.346 55.0786 248.197 54.6392 247.654 54.6392C247.06 54.6392 246.863 55.1763 246.863 56.6411Z" fill="black"/>
<path d="M158.173 61.0844C156.888 67.9202 155.009 73.1935 153.279 74.756C150.214 77.6368 144.529 77.7833 140.623 75.0978C138.052 73.3889 136.026 70.8498 135.185 68.1643C134.839 67.1878 134.345 66.3577 134.098 66.3577C133.356 66.3577 133.603 67.4319 134.839 70.0198C135.976 72.4611 137.855 74.6095 139.981 75.9767C141.266 76.8556 141.365 78.4181 140.178 79.8829C139.536 80.713 138.349 81.1036 134.542 81.6895C130.291 82.3731 125.545 83.7402 123.963 84.8144C123.617 85.0098 121.541 89.6972 119.316 95.2635C116.795 101.465 114.966 105.42 114.57 105.42C114.175 105.42 113.878 105.566 113.878 105.761C113.927 106.738 114.916 107.373 117.882 108.349L121.096 109.423L121.689 114.355C121.986 117.089 122.381 120.849 122.579 122.753C123.123 129.15 125.496 133.251 128.561 133.251C129.895 133.251 130.192 133.446 130.192 134.228C130.192 134.814 130.637 135.693 131.131 136.278C131.972 137.157 132.812 137.304 137.706 137.499C140.771 137.597 144.281 137.499 145.517 137.255C147.347 136.913 146.556 136.816 141.464 136.767C138.003 136.767 134.295 136.474 133.158 136.132C131.23 135.546 131.131 135.448 131.379 134.032C131.774 132.079 133.603 131.005 134.394 132.275C134.938 133.105 147.347 132.861 150.708 131.982C156.146 130.517 155.899 130.468 155.899 132.372C155.899 134.179 155.158 135.204 153.823 135.204C152.439 135.204 147.89 136.23 148.138 136.523C148.286 136.62 150.214 136.425 152.488 135.985C154.762 135.546 156.641 135.253 156.641 135.351C156.69 135.4 156.987 136.083 157.234 136.913C157.531 137.694 157.926 138.329 158.173 138.28C158.42 138.232 158.668 138.671 158.668 139.257C158.717 139.843 159.31 142.284 160.052 144.726C160.744 147.118 161.337 149.559 161.337 150.097C161.288 151.854 159.409 149.071 158.47 145.897C157.728 143.261 156.888 142.138 156.888 143.603C156.888 145.604 160.497 152.538 161.337 152.05C162.128 151.561 162.969 156.884 163.117 163.036C163.315 171.385 163.364 171.971 163.809 169.383C164.649 164.598 163.117 151.659 161.041 145.311C160.596 143.993 160.348 142.821 160.497 142.724C160.645 142.577 161.584 144.872 162.573 147.85C163.562 150.829 164.6 153.368 164.847 153.514C165.539 153.954 165.391 152.343 164.551 150.927C164.155 150.194 163.265 147.948 162.524 145.946C160.447 140.136 159.854 138.573 158.816 136.376C158.322 135.204 157.877 133.935 157.877 133.544C157.877 133.153 157.679 132.665 157.382 132.519C156.492 131.982 156.888 129.736 158.717 124.999L160.546 120.263L163.265 118.994C164.798 118.261 166.083 117.773 166.182 117.871C166.281 117.968 166.034 119.14 165.589 120.507C165.193 121.874 164.699 124.365 164.501 126.074C164.303 127.734 164.007 129.198 163.76 129.345C163.265 129.687 164.155 132.763 167.467 142.675C169.692 149.266 170.681 151.415 172.263 153.417C174.141 155.761 174.29 156.102 173.993 158.104C173.696 160.253 172.559 162.548 171.768 162.548C171.571 162.548 171.126 162.01 170.829 161.327C170.137 159.911 168.505 159.716 167.171 160.936C166.33 161.669 166.281 161.669 166.281 160.253C166.281 157.909 167.319 157.421 169.692 158.544C171.224 159.276 171.719 159.374 171.719 158.885C171.719 158.544 170.928 157.958 169.989 157.665C169.049 157.372 167.714 156.444 167.022 155.614C165.589 153.954 164.748 154.1 165.885 155.809C166.479 156.737 166.479 157.128 165.935 158.153C165.193 159.618 165.144 160.839 165.786 162.059C166.33 163.085 164.748 172.411 163.957 172.655C163.71 172.752 163.611 174.217 163.71 175.975C163.858 178.27 163.76 179.149 163.315 179.149C162.87 179.149 162.87 179.344 163.166 179.735C163.463 180.077 163.809 182.225 164.007 184.52C164.155 186.815 164.551 190.428 164.798 192.576C165.44 197.703 166.528 208.201 167.517 217.967C168.852 231.589 171.076 250.241 171.521 251.755C172.015 253.513 169.198 255.905 165.094 257.272C160.546 258.737 154.169 258.493 149.72 256.638C146.358 255.222 145.962 254.441 147.149 251.218C148.434 247.702 149.423 242.575 150.214 234.812C150.659 230.662 151.203 226.121 151.4 224.802C151.746 223.045 151.598 220.603 150.906 216.062C150.362 212.596 149.818 209.617 149.67 209.471C149.472 209.324 149.472 210.154 149.67 211.375C150.511 217.82 150.56 225.73 149.769 232.468C148.681 241.355 147.594 247.556 146.506 250.73C145.32 254.05 144.825 257.272 145.419 257.272C145.715 257.272 146.012 257.077 146.111 256.784C146.21 256.54 147.693 256.833 149.472 257.468L152.686 258.64L152.785 262.888C152.883 267.429 153.427 268.796 155.652 270.261C158.47 272.067 172.609 274.655 176.712 274.118C178.788 273.825 179.382 273.532 180.173 272.214C181.26 270.505 181.359 268.161 180.519 266.306C179.925 265.036 176.465 263.083 173.597 262.399C172.806 262.204 172.213 261.813 172.213 261.569C172.213 261.276 171.867 261.228 171.422 261.374C170.977 261.569 170.285 261.423 169.939 261.13C169.544 260.788 168.456 260.495 167.467 260.397C166.034 260.251 165.786 260.397 165.984 261.081C166.33 262.155 164.056 263.62 162.079 263.62C161.337 263.62 160.892 263.815 161.09 264.108C161.683 265.036 163.809 264.597 165.44 263.132C167.171 261.667 168.258 261.276 168.258 262.106C168.258 262.741 165.786 264.597 164.946 264.597C164.551 264.597 164.303 264.89 164.402 265.183C164.699 265.964 167.616 266.599 169.148 266.257C169.89 266.11 170.186 266.208 169.989 266.55C169.84 266.794 169.84 267.038 169.989 267.038C170.532 267.038 173.449 265.475 174.29 264.694C175.081 264.011 175.377 264.059 177.107 264.841C180.024 266.11 181.013 269.528 179.184 271.921C178.343 272.995 177.849 273.093 174.833 273.141C171.323 273.141 164.056 272.018 159.36 270.7C155.701 269.723 153.922 267.819 153.922 264.841V262.692L155.603 262.985C159.36 263.571 165.144 261.13 164.551 259.226C164.303 258.493 164.748 258.2 166.627 257.565C169 256.784 172.559 253.952 172.757 252.78C172.806 252.439 172.609 251.511 172.263 250.73C171.966 249.948 171.472 246.97 171.175 244.138C170.928 241.306 170.285 235.544 169.741 231.394C169.247 227.244 168.654 221.873 168.456 219.529L168.11 215.232L169.791 215.916C170.73 216.306 172.114 216.843 172.955 217.039C173.894 217.332 174.487 217.918 174.735 218.699C174.982 219.724 175.081 219.822 175.427 219.041C175.624 218.601 176.218 218.211 176.712 218.211C177.206 218.211 177.651 217.918 177.651 217.527C177.651 216.258 185.166 210.349 185.907 211.082C186.105 211.228 185.512 212.107 184.671 212.986C183.781 213.865 183.089 214.695 183.089 214.793C183.089 214.939 186.698 215.086 191.147 215.086C199.651 215.183 202.468 215.33 212.257 216.551C215.668 216.941 218.832 217.332 219.277 217.381C219.722 217.429 220.167 217.283 220.266 217.039C220.513 216.306 209.538 214.939 198.464 214.304C192.927 213.963 187.885 213.572 187.242 213.377C186.154 213.084 186.253 212.888 189.417 209.666C191.246 207.762 194.707 204.441 197.03 202.195L201.381 198.191H204.446C207.61 198.191 216.855 199.266 221.551 200.193C224.072 200.682 224.171 200.779 223.924 202C223.776 202.732 222.985 207.176 222.194 211.863C221.403 216.551 220.167 222.605 219.524 225.291C218.832 227.976 218.387 230.759 218.535 231.443C218.634 232.126 218.387 234.665 217.942 237.058C217.547 239.451 216.706 244.236 216.212 247.654C214.333 259.519 211.812 268.845 207.956 278.171C206.028 282.809 206.028 284.176 207.808 284.665C208.994 285.006 208.994 285.006 207.462 285.348C206.572 285.543 205.83 285.885 205.83 286.081C205.83 286.276 205.237 286.618 204.495 286.813C203.704 286.959 202.765 287.399 202.37 287.741C201.974 288.083 200.639 288.766 199.403 289.254C195.3 290.915 194.015 293.698 195.646 297.555C196.684 299.948 198.365 300.826 201.875 300.778C203.507 300.778 205.286 300.533 205.83 300.241C206.325 299.996 207.264 299.752 207.907 299.752C208.549 299.752 210.428 299.313 212.059 298.825C213.641 298.287 218.14 297.262 221.996 296.578C229.51 295.162 231.834 294.137 232.279 292.184C232.427 291.5 232.625 290.426 232.773 289.743C232.971 288.961 233.366 288.522 233.96 288.522C234.899 288.522 239.299 285.543 240.04 284.42C240.238 284.128 240.436 281.344 240.436 278.268C240.436 275.192 240.683 269.479 240.93 265.573C241.177 261.667 241.622 254.001 241.919 248.484C242.512 236.277 243.155 232.566 244.589 232.224C249.73 231.052 253.586 230.515 253.932 230.857C254.377 231.296 254.773 234.08 255.811 243.552C256.404 249.07 256.206 267.526 255.415 279.587C255.168 283.444 255.267 284.616 255.712 284.616C256.058 284.616 256.948 285.006 257.64 285.495C259.222 286.52 262.336 287.838 264.314 288.229C265.5 288.522 265.599 288.717 265.352 289.889C264.808 291.94 262.435 296.969 260.26 300.436C257.492 304.928 257.047 306.49 257.936 308.59C259.222 311.568 261.941 313.424 265.105 313.424C267.379 313.424 271.927 311.861 273.707 310.494C274.399 309.957 275.239 309.518 275.536 309.518C275.882 309.518 276.475 309.127 276.871 308.639C277.563 307.809 281.814 299.215 282.853 296.578C283.693 294.381 284.533 289.157 284.336 287.106C284.187 285.446 284.286 285.299 286.115 284.713C287.154 284.42 289.23 283.102 290.713 281.833C292.987 279.928 293.383 279.342 293.185 278.317C292.592 275.387 291.306 270.505 290.565 268.259C290.12 266.891 289.18 263.62 288.389 260.935C287.598 258.249 286.412 254.196 285.67 251.901C282.556 241.745 278.502 227.146 278.502 225.828C278.502 225.632 278.7 225.584 278.898 225.73C279.639 226.169 283.693 224.705 283.594 224.021C281.814 213.181 280.826 207.859 278.7 197.801C278.601 197.215 278.156 196.727 277.761 196.727C276.92 196.727 276.772 196.19 276.03 189.403C275.684 186.571 274.893 181.688 274.251 178.514C273.41 174.315 273.212 172.459 273.558 171.532C273.855 170.848 274.053 169.188 274.053 167.87C274.053 166.551 274.201 165.477 274.448 165.477C274.646 165.477 275.19 164.891 275.635 164.11C276.426 162.84 278.057 160.497 282.111 154.833C284.286 151.806 286.511 147.606 287.549 144.481C288.834 140.624 288.983 138.085 288.192 133.446C287.747 131.005 287.154 125.683 286.906 121.63C286.61 117.578 286.165 113.671 285.918 112.988C285.522 112.011 285.621 111.669 286.412 111.279C286.956 110.986 287.697 110.156 288.093 109.423L288.834 108.105L288.884 109.57C288.884 110.644 289.032 110.839 289.477 110.4C289.922 109.961 289.823 109.033 288.933 106.298C287.351 101.367 283.446 91.6503 282.704 90.7714C282.408 90.3808 281.518 89.0136 280.776 87.6953C279.392 85.3027 275.388 82.4707 273.311 82.4707C272.767 82.4707 270.444 81.7872 268.12 81.0059C265.797 80.1759 263.028 79.5411 261.941 79.5411C260.853 79.5411 259.222 79.3458 258.332 79.1017C257.096 78.711 256.75 78.7599 256.898 79.1993C256.997 79.5411 257.887 79.9317 258.876 80.0782C259.914 80.2247 260.853 80.4688 261.002 80.6153C261.15 80.7618 259.716 81.6407 257.887 82.6172C252.152 85.5469 244.737 86.2304 239.645 84.375L236.876 83.3496L238.508 82.3731C239.398 81.836 240.683 81.3477 241.375 81.2989C242.216 81.2012 242.661 80.8594 242.611 80.3223C242.611 79.8829 242.562 78.3204 242.512 76.8556C242.463 75.3419 242.166 74.1701 241.919 74.1701C241.573 74.1701 241.474 75.1466 241.721 77.0509C241.968 79.1993 241.87 80.0294 241.375 80.3223C240.139 81.1036 237.272 82.0313 235.641 82.2266C234.8 82.3242 233.366 82.7149 232.427 83.1543C231.537 83.5449 229.708 84.2773 228.324 84.7168C225.061 85.791 222.293 87.7441 217.201 92.4803C214.877 94.6287 212.01 97.2654 210.774 98.3396C204.841 103.369 203.111 105.078 204.248 104.834C205.138 104.59 205.336 104.736 205.336 105.664C205.336 106.25 205.682 107.568 206.077 108.545C206.819 110.253 206.819 110.4 205.484 112.158C204.743 113.134 202.716 115.38 200.985 117.089L197.821 120.165L192.334 118.603C189.318 117.773 186.402 116.747 185.858 116.357C185.314 115.966 184.474 115.673 183.979 115.673C183.485 115.673 182.743 114.99 182.298 114.062C180.716 110.986 178.096 107.959 176.366 107.129C173.894 106.005 173.202 106.738 174.636 109.082C176.316 111.962 175.723 113.232 173.4 111.523C171.719 110.302 170.878 110.742 172.46 112.011C173.301 112.695 174.339 113.232 174.833 113.232C175.427 113.232 175.674 113.623 175.674 114.501C175.674 116.015 176.514 117.626 177.256 117.626C177.701 117.626 177.701 117.48 177.256 117.04C176.465 116.259 176.465 112.402 177.256 112.158C177.701 112.011 177.404 111.376 176.514 110.351C174.388 107.861 174.883 106.982 177.355 108.886C178.739 109.961 181.112 113.671 181.31 115.039C181.408 115.527 182.101 116.113 182.892 116.357C183.683 116.601 184.77 116.943 185.314 117.187C186.748 117.724 190.258 118.847 194.46 120.068C196.487 120.654 198.761 121.337 199.502 121.581C200.343 121.826 200.985 121.777 201.183 121.484C201.331 121.191 201.035 120.849 200.442 120.703C199.848 120.556 199.403 120.361 199.403 120.214C199.403 119.824 207.066 111.767 207.462 111.767C207.659 111.767 207.808 112.06 207.808 112.451C207.808 113.281 211.169 116.308 213.196 117.382C214.037 117.773 215.767 118.261 217.052 118.456C218.338 118.603 219.722 119.042 220.068 119.433C220.414 119.775 221.502 120.068 222.49 120.068H224.221L224.023 122.607C223.875 124.023 223.43 130.37 222.935 136.669C222.49 142.968 221.848 150.341 221.502 153.026C220.76 159.178 220.711 158.788 221.897 158.934C222.441 158.983 223.776 159.374 224.814 159.764L226.791 160.497L226.692 163.329C226.346 173.143 225.951 180.907 225.704 181.346C225.555 181.59 225.457 183.69 225.555 185.985C225.654 189.988 224.913 198.533 224.418 199.07C224.27 199.168 219.87 198.826 214.63 198.24C209.39 197.703 204.248 197.166 203.259 197.117C201.628 196.971 201.035 197.313 197.327 200.633C195.053 202.635 192.087 205.418 190.653 206.834C189.269 208.25 187.786 209.422 187.39 209.422C186.5 209.422 186.105 207.664 185.561 201.121C185.363 198.289 184.869 193.26 184.572 189.891C184.029 184.178 184.078 181.2 184.869 177.293L185.166 175.731H181.211H177.256L176.91 173.631C176.564 171.434 175.427 166.356 174.636 163.426C174.339 162.255 174.339 160.839 174.685 159.276C175.328 156.444 174.982 155.272 172.51 152.098C171.521 150.829 170.285 148.192 169.544 145.849C168.802 143.603 167.912 141.015 167.517 140.087C165.688 135.595 164.847 131.737 165.094 129.003C165.342 125.976 167.368 116.65 167.764 116.65C167.912 116.699 168.604 117.529 169.346 118.603C170.087 119.677 171.966 121.337 173.499 122.363C176.119 124.072 176.564 124.218 179.579 124.169C181.359 124.12 183.089 124.218 183.336 124.462C183.633 124.658 184.523 124.95 185.314 125.146C186.698 125.488 195.201 129.15 199.552 131.347C201.134 132.128 201.776 132.226 203.309 131.786C206.769 130.859 218.189 122.265 218.189 120.654C218.14 120.019 217.893 120.165 217.151 121.142C215.223 123.73 206.077 130.077 203.012 131.005C201.925 131.347 198.958 130.273 191.494 126.806C189.714 125.976 187.242 124.999 185.957 124.658C184.671 124.267 183.435 123.632 183.188 123.193C182.842 122.607 182.496 122.558 181.408 122.997C180.667 123.242 179.332 123.486 178.442 123.486C176.218 123.486 171.224 120.214 169.84 117.919L168.753 116.064L169.741 114.697C170.977 112.939 171.175 107.519 169.989 107.08C169.544 106.884 169.247 106.152 169.247 105.322C169.247 103.906 169.346 103.857 170.73 104.101C171.571 104.297 172.213 104.345 172.213 104.248C172.213 104.15 171.768 102.246 171.175 100.049C169.89 94.824 165.193 85.6445 163.364 84.668C162.623 84.3262 161.139 83.8867 160.101 83.6914C159.014 83.4961 157.679 83.252 157.184 83.1055C156.443 82.9102 156.295 83.0567 156.591 83.6914C156.789 84.1797 156.245 85.5469 155.207 87.2558C154.317 88.8183 153.081 90.8202 152.537 91.7479C151.944 92.6756 151.005 94.2869 150.461 95.3123C149.868 96.3865 149.324 97.1189 149.176 97.0213C148.632 96.4353 154.268 84.8633 155.454 84.1309C156.295 83.6426 155.899 82.9102 154.91 83.2031C153.477 83.6426 150.955 82.1778 150.955 80.8594C150.955 80.2735 150.807 79.297 150.659 78.7599C150.412 77.881 150.758 77.4904 152.439 76.5626C155.652 74.756 156.838 72.1682 158.915 62.3051C159.953 57.227 160.002 56.5923 159.409 56.5923C159.211 56.5923 158.618 58.643 158.173 61.0844ZM147.347 78.1739C148.582 78.1739 149.027 78.3692 149.225 79.1993C150.016 81.8848 150.758 82.9102 152.29 83.4961C153.18 83.8379 153.922 84.3262 153.922 84.5703C153.922 84.7656 153.328 85.9863 152.587 87.2558C150.115 91.4061 147.445 97.7537 148.039 98.1443C148.385 98.3396 148.434 98.5837 148.088 98.7791C147.841 98.9255 147.297 98.3396 146.951 97.4607C146.605 96.6306 145.913 95.3611 145.468 94.6776C142.502 90.3808 137.608 82.7637 137.608 82.4219C137.608 82.2266 138.399 81.7872 139.338 81.4454C140.574 81.0059 141.216 80.3223 141.76 79.004C142.502 77.1974 142.551 77.1486 144.133 77.6857C145.023 77.9786 146.457 78.2228 147.347 78.1739ZM268.862 82.1778C276.871 84.5703 277.909 85.2051 280.776 89.6972C283.594 94.0428 288.884 107.47 287.895 107.763C287.648 107.861 287.401 108.252 287.401 108.593C287.401 109.765 283.742 112.5 279.244 114.697C275.536 116.503 274.201 116.894 271.284 117.04L267.774 117.236L267.181 110.742C266.44 102.832 266.242 101.855 265.599 102.295C265.303 102.441 265.204 103.125 265.352 103.711C265.5 104.345 265.995 107.812 266.44 111.376C266.835 115.087 267.428 118.017 267.774 118.212C268.12 118.408 269.406 118.456 270.642 118.31L272.866 118.017L273.707 121.826C274.745 126.659 275.635 134.374 275.289 135.79C273.015 146.044 271.482 151.317 269.505 155.712C268.318 158.3 268.17 158.397 265.599 159.032C255.613 161.473 249.334 162.548 245.033 162.548C238.804 162.548 231.142 161.229 226.594 159.374C224.369 158.446 222.391 157.567 222.243 157.421C222.095 157.323 222.243 155.028 222.54 152.44C222.836 149.804 223.232 144.335 223.38 140.331C223.578 136.278 224.171 129.394 224.715 124.95C225.803 116.064 226.149 105.224 225.358 105.078C225.061 105.029 224.913 105.859 225.012 107.031C225.11 108.154 225.012 111.328 224.863 114.062L224.517 119.091L222.738 119.042C221.699 118.994 221.304 118.896 221.798 118.749C223.726 118.261 222.441 117.724 219.228 117.724C212.306 117.626 207.56 113.232 206.374 105.859L205.978 103.466L208.747 100.927C215.371 94.824 220.81 90.039 221.304 89.8437C221.6 89.746 222.787 88.9159 223.973 88.037C225.16 87.1582 227.088 86.1328 228.225 85.8398C229.362 85.5469 230.895 85.0098 231.636 84.6191C232.872 83.9844 233.07 84.0332 234.306 85.1562C234.998 85.791 236.629 86.8652 237.915 87.4511C239.942 88.4765 240.881 88.5741 246.368 88.5253C253.537 88.4277 257.442 87.5976 261.298 85.2539C264.067 83.5938 265.204 82.4707 264.858 81.8848C264.413 81.2012 263.77 81.4454 263.572 82.3731C263.226 83.6914 259.074 85.8886 255.069 86.914C251.065 87.9394 243.55 88.1347 240.189 87.3046C237.964 86.7675 233.96 83.8379 234.602 83.2031C234.8 83.0078 235.542 83.3008 236.333 83.8379C237.074 84.375 239.101 85.2051 240.831 85.6445C243.55 86.4258 244.638 86.4746 248.89 85.9863C253.24 85.5469 254.229 85.2539 258.332 83.1055C260.853 81.7872 263.276 80.7618 263.671 80.7618C264.067 80.8106 266.44 81.4454 268.862 82.1778ZM136.915 86.5234C141.661 94.1893 142.749 95.8982 144.677 99.1697C146.506 102.246 147.495 103.222 147.495 101.953C147.495 101.66 148.335 100.049 149.324 98.4373C153.971 90.7714 158.025 84.375 158.371 84.1797C158.618 84.0332 159.953 84.3262 161.337 84.7656C163.512 85.498 164.056 85.9863 165.045 87.8417C167.714 92.7733 169.346 96.533 169.939 99.072C170.335 100.537 170.78 102.148 170.977 102.636C171.224 103.271 171.126 103.418 170.582 103.174C170.186 103.027 169 103.271 167.962 103.711C166.924 104.15 165.539 104.345 164.946 104.199C164.303 104.052 163.809 104.15 163.809 104.394C163.809 105.175 165.688 105.517 166.726 104.98C168.159 104.199 168.357 104.297 168.159 106.005C168.011 107.373 167.566 107.812 164.798 109.423C161.09 111.523 160.299 111.669 160.497 110.253C160.546 109.668 160.2 108.984 159.706 108.642C159.014 108.203 158.569 108.398 157.135 109.961C156.196 110.937 154.861 112.548 154.169 113.476C153.279 114.599 151.895 115.527 150.066 116.21C140.277 119.921 134.345 121.679 133.455 121.191C132.862 120.8 133.554 108.349 134.246 107.519C134.493 107.177 134.938 107.031 135.185 107.177C135.729 107.519 137.558 105.468 137.608 104.492C137.608 103.955 137.459 103.955 136.866 104.443C135.68 105.42 135.383 104.687 135.235 100.146C135.086 95.4588 134.839 94.2869 134.196 94.9705C133.949 95.2147 134.048 97.8025 134.345 100.732L134.938 106.005L133.059 107.226C129.797 109.375 119.909 109.179 116.894 106.933L115.707 106.054L117.042 102.685C117.783 100.83 118.92 98.0955 119.563 96.6306C120.206 95.1658 121.442 92.1874 122.282 90.039C123.172 87.8906 124.161 85.8886 124.457 85.5957C125.199 84.9121 129.006 83.5449 131.725 83.0078C132.911 82.7637 133.999 82.5684 134.147 82.5196C134.295 82.5196 135.531 84.2773 136.915 86.5234ZM141.315 89.5995C145.913 96.9724 147.149 99.3162 146.902 100.146C146.704 100.634 140.574 91.6014 140.574 90.9179C140.574 90.7714 140.079 89.9413 139.437 89.1113C136.767 85.5957 135.432 82.4707 136.569 82.4707C136.718 82.4707 138.893 85.6933 141.315 89.5995ZM169.741 111.718C169.544 112.841 168.901 114.306 168.308 114.892C166.676 116.601 161.387 119.042 158.865 119.287C157.333 119.384 156.591 119.726 156.492 120.263C156.344 121.044 152.142 123.144 146.259 125.439C144.628 126.074 142.403 126.952 141.315 127.441C129.006 132.714 128.017 132.958 126.435 131.2C124.754 129.345 123.765 126.171 123.271 120.898C122.974 118.163 122.678 115.234 122.529 114.355C122.381 113.476 122.183 112.011 122.035 111.084L121.788 109.472L126.188 109.423C128.66 109.375 131.131 109.13 131.675 108.837C132.812 108.252 132.763 107.861 132.664 113.916C132.614 116.308 132.417 119.238 132.219 120.41C131.972 121.581 131.972 122.607 132.17 122.753C132.565 122.997 144.628 119.042 149.917 116.943C151.697 116.259 153.427 115.673 153.773 115.673C154.119 115.673 154.663 115.087 154.96 114.306C155.553 112.695 158.322 109.814 159.211 109.814C159.706 109.814 159.755 110.058 159.36 110.742C158.618 112.109 158.717 112.255 160.151 112.255C160.892 112.255 162.623 111.621 164.007 110.839C169.296 107.812 169.445 107.763 169.791 108.74C169.989 109.228 169.989 110.546 169.741 111.718ZM285.918 120.312C285.967 124.511 286.461 129.101 287.45 135.595C288.093 139.501 288.043 139.696 286.758 143.651C286.017 145.849 284.781 148.681 284.039 149.999C281.716 154.052 274.893 163.622 273.954 164.208C273.262 164.598 273.064 165.38 273.064 167.821C273.064 169.92 272.767 171.483 272.075 172.801C271.532 173.875 271.186 174.754 271.334 174.754C271.482 174.754 271.729 174.754 271.878 174.706C272.372 174.657 273.064 175.877 273.064 176.805C273.064 177.586 272.965 177.586 272.224 176.952C271.729 176.561 270.395 175.438 269.307 174.51C267.725 173.192 267.181 172.313 266.934 170.799C266.538 168.504 265.352 165.965 264.66 165.965C263.819 165.965 264.116 167.772 264.956 168.114C265.55 168.358 265.698 168.797 265.5 169.774C265.154 171.434 266.143 173.045 268.615 174.998C273.608 179.002 274.695 180.809 271.186 179.393C268.763 178.368 267.873 177.489 266.044 174.315C265.154 172.85 264.413 171.874 264.264 172.215C264.067 172.899 265.797 175.926 267.577 177.83C268.961 179.344 272.026 181.102 273.262 181.102C274.152 181.102 274.201 181.493 275.734 193.065C276.97 202.195 277.365 208.836 277.612 223.435C277.711 229.001 277.909 230.906 278.403 230.906C278.7 230.906 278.996 231.248 278.996 231.589C278.996 231.98 279.54 234.031 280.183 236.13C280.826 238.23 282.309 243.113 283.446 247.019C284.583 250.925 285.67 254.636 285.918 255.319C288.043 261.374 292.394 278.61 291.998 279.489C291.603 280.417 287.203 283.297 284.731 284.274C272.965 288.717 264.759 288.864 258.332 284.762L256.256 283.395L256.602 274.606C257.343 257.468 257.047 246.286 255.564 234.812C254.822 228.904 253.487 221.433 252.548 217.722C251.609 214.109 250.62 209.275 250.323 206.98C250.027 204.685 249.384 200.535 248.84 197.703C248.346 194.871 247.753 191.307 247.604 189.695C247.406 187.84 247.11 187.01 246.813 187.303C246.319 187.791 247.357 195.848 248.346 199.705C249.186 202.879 249.137 203.611 246.368 215.281C245.824 217.576 244.836 222.068 244.144 225.291C243.501 228.513 242.611 232.566 242.166 234.324C241.771 236.179 241.227 242.136 240.93 248.728C240.238 264.841 239.497 279.147 239.2 281.588C238.755 285.543 236.58 287.399 231.834 287.79C228.868 288.034 223.232 286.471 219.771 284.469C218.041 283.444 216.509 283.346 209.538 283.786C208.203 283.883 208.055 283.737 207.907 282.37C207.808 281.491 208.302 279.538 208.945 277.975C212.306 270.016 215.075 259.226 216.953 246.775C217.398 243.796 218.09 239.988 218.486 238.327C218.881 236.619 219.277 233.64 219.425 231.736C219.524 229.783 220.167 225.828 220.859 222.849C221.502 219.92 222.441 215.281 222.886 212.596C223.331 209.91 224.122 205.516 224.616 202.83C225.753 196.922 226.05 194.139 226.346 187.303L226.594 182.03L229.263 177.782C232.575 172.459 233.515 170.653 233.515 169.53C233.515 168.407 232.823 169.237 232.032 171.336C231.686 172.264 230.351 174.657 229.115 176.659L226.841 180.272L226.692 178.319C226.544 176.61 226.89 175.78 229.214 172.459C231.982 168.456 233.465 165.233 232.427 165.575C232.131 165.672 231.587 166.6 231.241 167.577C230.895 168.602 229.856 170.409 228.967 171.629L227.335 173.875L227.187 170.799C227.088 169.09 227.187 166.063 227.335 164.11C227.632 161.034 227.78 160.594 228.472 160.887C230.895 161.913 236.085 162.645 243.007 162.889C248.89 163.085 250.818 163.329 251.015 163.817C251.164 164.208 251.411 166.747 251.609 169.481C251.905 174.364 251.905 174.608 250.57 176.952C249.829 178.27 248.791 179.979 248.247 180.711C247.703 181.493 247.555 182.127 247.802 182.323C248.346 182.616 250.57 178.807 251.856 175.291C252.498 173.582 252.647 172.02 252.4 168.016C252.152 162.499 252.301 162.059 254.773 162.059C256.404 162.059 265.649 160.106 266.786 159.569C267.379 159.227 267.626 159.325 267.626 159.764C267.626 160.692 266.39 161.62 263.028 163.231C259.963 164.745 257.739 166.942 257.739 168.456C257.739 169.09 258.085 169.383 258.826 169.383C260.211 169.383 263.177 168.309 263.177 167.821C263.177 167.235 261.298 167.333 260.952 167.919C260.507 168.651 259.222 168.504 259.222 167.772C259.222 166.747 261.15 165.233 264.561 163.524C267.577 162.059 267.774 161.815 269.356 158.495C271.63 153.612 272.767 150.243 274.844 142.333L276.624 135.448L276.03 130.321C275.734 127.49 275.14 123.827 274.745 122.118C274.399 120.41 274.053 118.847 274.053 118.554C274.053 118.31 276.426 116.943 279.392 115.478L284.682 112.841L285.275 114.599C285.572 115.624 285.868 118.163 285.918 120.312ZM158.074 124.072C155.949 129.882 155.8 130.077 152.587 130.956C151.005 131.396 148.83 131.884 147.742 132.03C144.875 132.421 135.333 131.64 135.581 131.054C135.778 130.614 140.376 128.613 145.715 126.611C146.803 126.22 149.472 125.048 151.648 124.023C153.872 122.997 156.146 121.972 156.789 121.826C157.382 121.63 157.877 121.24 157.877 120.995C157.877 120.751 158.223 120.556 158.618 120.556C159.211 120.556 159.113 121.24 158.074 124.072ZM170.137 162.206C170.285 162.792 169.989 163.036 169.049 163.036C167.813 163.036 167.319 162.157 168.11 161.376C168.703 160.79 169.989 161.278 170.137 162.206ZM174.141 164.842C175.031 168.114 176.168 173.827 176.168 174.901C176.119 175.877 176.069 175.926 175.476 175.145C175.13 174.657 174.784 172.997 174.735 171.483C174.636 168.065 173.4 164.012 172.411 164.012C172.015 164.012 171.719 163.768 171.719 163.524C171.719 163.231 172.164 163.036 172.708 163.036C173.4 163.036 173.795 163.524 174.141 164.842ZM169.741 165.087C169.741 165.721 169.89 168.163 170.087 170.555L170.384 174.901L168.95 174.559C168.159 174.364 167.368 174.022 167.171 173.827C166.825 173.534 167.517 166.014 168.011 164.598C168.407 163.573 169.741 163.915 169.741 165.087ZM171.62 171.336C171.62 173.778 171.521 174.168 171.224 173.045C171.027 172.215 170.829 169.823 170.829 167.674C170.829 164.208 170.878 164.012 171.274 165.965C171.472 167.186 171.62 169.579 171.62 171.336ZM174.042 171.678C174.339 175.096 174.29 175.243 173.251 175.243C172.263 175.243 172.213 175.047 172.263 169.969C172.312 164.891 172.312 164.794 173.054 166.454C173.449 167.381 173.894 169.725 174.042 171.678ZM166.479 170.311C166.33 171.971 165.935 173.29 165.737 173.29C165.193 173.29 165.193 173.045 165.836 169.676C166.577 166.112 166.924 166.454 166.479 170.311ZM167.616 175.047L170.384 175.829L170.087 179.93L169.84 183.983L171.274 183.836C173.746 183.543 174.092 184.276 174.685 190.379C174.982 193.455 175.427 197.41 175.723 199.168C176.02 201.17 176.069 204.978 175.822 209.422L175.427 216.502L174.191 216.355C173.548 216.306 171.818 215.72 170.434 215.086C167.962 213.963 167.813 213.767 167.566 211.765C166.775 205.467 164.452 181.297 164.6 181.151C164.699 181.004 165.589 181.297 166.577 181.737C169.346 183.055 169.544 182.127 166.775 180.711L164.303 179.442V176.854C164.303 175.438 164.452 174.266 164.6 174.266C164.748 174.266 166.133 174.608 167.616 175.047ZM175.921 176.805C176.761 176.805 178.442 176.659 179.678 176.463C184.029 175.78 183.93 176.659 179.382 180.028C175.179 183.104 174.042 183.543 172.559 182.42C171.917 181.932 171.818 181.297 172.065 179.002C172.312 176.366 172.46 176.17 173.4 176.463C173.993 176.659 175.13 176.805 175.921 176.805ZM183.732 185.838C183.93 190.086 184.276 194.432 184.523 195.506C184.77 196.58 185.067 200.291 185.265 203.807L185.512 210.154L182.595 212.058C180.964 213.084 178.838 214.744 177.898 215.672L176.218 217.381L176.316 207.42C176.366 201.365 176.168 195.506 175.773 192.479C175.031 187.205 175.179 185.057 176.069 187.938C176.415 189.061 176.613 189.305 176.613 188.621C176.663 188.035 176.415 186.912 176.119 186.033C175.624 184.569 175.674 184.324 176.959 182.957C178.393 181.444 182.595 178.221 183.139 178.172C183.287 178.172 183.584 181.639 183.732 185.838ZM279.392 206.248C280.727 213.23 281.271 216.258 282.21 222.166C282.507 224.07 282.012 224.558 279.738 224.558H278.601L278.304 214.402C278.107 208.836 277.859 202.879 277.662 201.121C277.513 199.363 277.513 198.045 277.662 198.191C277.81 198.338 278.601 201.951 279.392 206.248ZM251.707 218.406C252.597 221.531 252.004 221.775 246.517 220.359C246.121 220.261 246.072 219.724 246.368 218.601C246.566 217.722 247.258 214.695 247.901 211.863L249.038 206.785L250.125 211.619C250.669 214.304 251.411 217.381 251.707 218.406ZM249.236 221.922C249.878 222.117 250.323 222.41 250.224 222.605C250.125 222.8 248.791 224.363 247.159 226.072L244.292 229.148L244.638 226.462C245.33 221.629 245.923 221.043 249.236 221.922ZM253.289 225.535C253.635 227.39 253.784 229.099 253.586 229.343C253.24 229.685 244.292 231.394 243.995 231.15C243.946 231.101 245.33 229.539 247.11 227.683C248.89 225.828 250.719 223.728 251.164 222.996C251.609 222.263 252.152 221.775 252.301 221.873C252.498 221.97 252.943 223.63 253.289 225.535ZM163.512 259.177C164.254 260.349 160.694 262.155 157.679 262.155C154.96 262.155 153.922 261.667 153.922 260.397C153.922 259.323 154.07 259.274 158.272 259.079C160.645 259.03 162.721 258.884 162.919 258.835C163.117 258.786 163.364 258.933 163.512 259.177ZM170.236 262.595C170.236 263.181 167.566 265.085 166.726 265.085C166.38 265.085 166.726 264.401 167.517 263.62C168.901 262.204 170.236 261.716 170.236 262.595ZM171.966 263.62C171.768 264.157 171.867 264.597 172.164 264.597C172.46 264.597 172.708 264.255 172.708 263.864C172.708 263.132 173.301 262.888 173.845 263.425C173.993 263.62 173.647 264.157 173.004 264.645C171.669 265.671 170.977 265.866 171.521 264.987C171.768 264.597 171.62 264.548 170.928 264.792C168.357 265.866 168.061 265.671 169.741 264.206C171.768 262.448 172.411 262.253 171.966 263.62ZM214.877 285.592C216.212 285.592 219.178 286.667 219.92 287.399C220.365 287.79 220.859 288.034 221.007 287.838C221.65 287.252 219.92 286.032 217.398 285.299C215.915 284.909 214.729 284.42 214.729 284.274C214.729 283.737 218.486 284.762 220.414 285.836C222.985 287.301 227.236 288.522 229.807 288.522C231.784 288.522 231.834 288.571 231.636 289.889C231.488 291.11 231.043 291.452 228.423 292.379C219.129 295.797 217.596 296.188 206.819 298.092C204.495 298.483 201.875 299.02 201.035 299.313C198.909 299.996 197.673 299.557 196.932 297.848C194.707 292.526 198.118 288.961 204.495 289.987C206.176 290.231 208.154 290.915 208.895 291.452C210.428 292.575 210.774 292.623 210.774 291.94C210.774 291.11 207.709 289.547 205.484 289.206C204.298 289.059 203.358 288.717 203.358 288.473C203.358 287.838 203.853 287.936 207.511 289.01C209.291 289.596 211.219 290.475 211.763 291.061C212.306 291.647 212.9 291.989 213.048 291.793C213.74 291.11 211.515 289.499 208.846 288.668C204.94 287.497 204.693 287.057 207.956 287.057C210.626 287.057 214.234 288.229 214.234 289.108C214.234 289.303 214.63 289.499 215.075 289.499C216.459 289.499 214.333 287.643 211.96 286.764L210.032 286.032L211.96 286.325C214.086 286.667 217.201 288.034 217.201 288.62C217.201 288.815 217.448 289.01 217.695 289.01C217.992 289.01 218.189 288.717 218.189 288.327C218.189 287.692 214.976 286.129 212.01 285.348L210.527 284.909L212.257 284.665C213.443 284.469 214.037 284.567 214.136 284.958C214.234 285.299 214.58 285.592 214.877 285.592ZM283.199 286.569C283.347 286.813 283.297 287.057 283.001 287.057C282.704 287.057 282.358 287.887 282.21 288.864C281.913 290.866 281.221 292.77 278.057 300.729C274.844 308.785 274.3 309.518 270.592 311.08C266.588 312.74 263.869 312.838 261.644 311.324C258.381 309.176 257.986 306.637 260.161 302.633C261.199 300.68 261.842 300.045 262.534 300.143C266.736 300.973 272.075 300.68 272.075 299.703C272.075 299.41 271.383 299.362 270.246 299.606C267.28 300.241 264.264 300.045 263.374 299.215C262.682 298.483 262.93 298.385 266.242 298.092C268.862 297.848 270.048 297.506 270.592 296.871C270.988 296.383 271.779 295.846 272.273 295.651C273.954 295.065 272.718 294.772 270.741 295.309C268.17 296.041 266.489 295.993 265.352 295.114C264.512 294.479 264.61 294.43 266.736 294.723C270.098 295.114 274.992 293.649 273.855 292.575C273.707 292.428 273.015 292.672 272.372 293.112C270.592 294.235 265.154 294.137 265.154 292.916C265.154 292.721 267.132 292.428 269.554 292.282C274.794 291.891 275.783 291.598 274.992 290.67C274.547 290.133 274.349 290.133 273.707 290.719C272.866 291.549 266.143 291.793 266.143 290.963C266.143 290.67 266.885 290.475 267.774 290.475C269.851 290.426 273.114 289.694 273.509 289.108C273.657 288.864 274.794 288.424 276.03 288.131C277.316 287.838 279.095 287.252 279.985 286.862C282.062 285.983 282.803 285.934 283.199 286.569ZM271.828 289.01C271.482 289.596 266.637 289.694 266.637 289.108C266.637 288.913 267.873 288.668 269.406 288.62C271.136 288.522 272.026 288.668 271.828 289.01ZM282.704 293.209C282.012 296.286 277.118 307.32 276.673 306.881C276.574 306.783 277.167 305.074 278.057 303.121C280.134 298.287 280.183 298.141 281.765 293.551C282.556 291.354 283.248 289.596 283.347 289.694C283.396 289.791 283.149 291.354 282.704 293.209ZM230.054 293.356C230.054 293.6 229.016 294.039 227.681 294.332C226.396 294.577 224.913 294.967 224.369 295.162C223.677 295.407 223.529 295.358 223.875 294.967C224.418 294.43 228.373 292.965 229.461 292.916C229.758 292.916 230.054 293.112 230.054 293.356ZM267.873 296.871C268.12 297.116 267.329 297.311 265.995 297.311C264.314 297.311 263.671 297.116 263.671 296.627C263.671 296.09 264.116 295.993 265.55 296.188C266.538 296.334 267.577 296.676 267.873 296.871ZM208.549 298.776C208.005 299.02 207.116 299.215 206.572 299.215H205.583L206.572 298.776C207.116 298.532 208.005 298.336 208.549 298.336H209.538L208.549 298.776ZM205.188 299.557C205.039 299.703 204.594 299.752 204.248 299.606C203.853 299.459 204.001 299.313 204.545 299.313C205.089 299.264 205.385 299.41 205.188 299.557Z" fill="black"/>
<path d="M159.558 95.6542C162.672 100.146 163.018 101.318 162.375 104.687C162.128 106.006 162.029 107.226 162.128 107.324C162.623 107.861 162.969 106.689 163.216 103.564C163.414 100.293 163.414 100.195 161.09 96.3378C159.755 94.2382 158.47 92.3339 158.173 92.1386C156.74 91.1621 157.086 92.0898 159.558 95.6542Z" fill="black"/>
<path d="M246.368 164.598C246.319 164.842 246.27 180.321 246.319 181.053C246.368 181.444 246.517 181.639 246.665 181.493C247.06 181.053 247.159 164.94 246.764 164.647C246.517 164.549 246.368 164.501 246.368 164.598Z" fill="black"/>
<path d="M141.711 58.0571C140.079 58.6919 140.228 59.6196 141.859 59.0336C142.551 58.7407 143.639 58.5454 144.282 58.5454C144.924 58.5454 145.616 58.3012 145.765 58.0571C146.16 57.4712 143.243 57.4712 141.711 58.0571Z" fill="black"/>
<path d="M152.29 57.9106C151.648 58.4966 151.944 58.936 152.834 58.6919C153.329 58.5942 154.021 58.8384 154.367 59.229C155.158 60.2055 155.899 60.2544 155.899 59.3755C155.899 58.9848 155.355 58.4477 154.663 58.1548C153.18 57.4712 152.735 57.4224 152.29 57.9106Z" fill="black"/>
<path d="M243.204 58.1547C243.056 58.4965 242.759 59.5219 242.463 60.4496C241.672 62.7933 241.771 63.4281 242.908 63.4281C243.946 63.4281 244.292 62.6468 243.402 62.3539C243.056 62.2562 243.155 61.4262 243.649 60.059C244.539 57.52 244.539 57.5688 243.897 57.5688C243.6 57.5688 243.303 57.8618 243.204 58.1547Z" fill="black"/>
<path d="M129.698 60.7915C129.698 62.4028 132.664 66.5531 133.307 65.9183C133.653 65.5765 133.257 64.7953 132.219 63.6723C130.192 61.3774 130.093 59.7173 132.071 61.6215C133.504 62.9887 134.147 63.2328 134.147 62.4516C134.147 61.7192 131.527 59.5219 130.588 59.5219C129.945 59.5219 129.698 59.9126 129.698 60.7915Z" fill="black"/>
<path d="M144.133 60.5963C143.392 61.3287 143.342 63.2818 144.084 63.7212C145.023 64.2583 146.16 62.647 145.814 61.2798C145.468 59.8638 145.023 59.7174 144.133 60.5963Z" fill="black"/>
<path d="M151.697 61.475C151.351 62.598 151.747 63.4281 152.686 63.4281C153.477 63.4281 153.971 62.2074 153.625 61.2308C153.18 60.2055 152.043 60.3031 151.697 61.475Z" fill="black"/>
<path d="M249.433 63.9163C247.901 65.9183 244.341 67.4807 242.117 67.0413C240.189 66.6995 239.991 67.1878 241.375 68.8479C242.315 69.9709 242.315 69.9709 245.182 69.2385C247.703 68.6038 248.296 68.2131 249.483 66.4554C250.274 65.3323 250.818 63.9163 250.719 63.3792C250.57 62.4515 250.472 62.5003 249.433 63.9163ZM248.84 66.6018C248.84 67.1878 246.418 68.262 244.391 68.5061L242.166 68.8479L244.836 67.8714C246.319 67.3343 247.604 66.7483 247.753 66.6018C248.099 66.3089 248.84 66.2601 248.84 66.6018Z" fill="black"/>
<path d="M148.533 64.5999C148.632 65.5276 148.533 66.4553 148.335 66.6507C147.792 67.2366 147.94 67.8225 148.681 67.8225C149.621 67.8225 149.967 66.7483 149.621 64.6976C149.275 62.4515 148.385 62.4027 148.533 64.5999Z" fill="black"/>
<path d="M142.551 69.7756C142.551 70.9963 145.369 74.1701 146.506 74.1701C147.594 74.1701 150.066 72.2658 149.72 71.7287C149.571 71.4846 148.187 71.1428 146.704 70.9475C144.578 70.7033 143.837 70.4104 143.688 69.7268C143.342 68.5061 142.551 68.5549 142.551 69.7756ZM147.198 72.0217C147.643 72.1682 147.841 72.5099 147.693 72.7541C147.297 73.4377 145.715 73.2912 145.023 72.4611C144.529 71.8752 144.578 71.7287 145.419 71.7287C145.962 71.7287 146.753 71.8752 147.198 72.0217Z" fill="black"/>
<path d="M54.0596 132.763C46.397 133.007 45.4082 133.3 43.6779 135.644C42.7386 136.962 42.6398 137.792 42.6398 145.849C42.5903 154.979 43.3319 159.813 45.0622 161.18C45.5565 161.571 47.1385 161.766 49.4126 161.717L53.0709 161.669L52.3294 162.987C51.9833 163.719 50.7474 165.477 49.6103 166.893C45.6554 171.825 48.9677 170.75 57.2236 164.403C59.4977 162.694 61.3268 162.059 64.2436 162.059H66.9132V165.624C66.9132 168.846 67.0615 169.334 68.1985 170.409C69.385 171.532 69.8794 171.581 76.7511 171.825L84.0677 172.069L86.7373 174.461C90.0001 177.342 93.5596 179.832 93.9551 179.442C94.1034 179.295 93.6584 177.586 92.9169 175.633C92.2248 173.68 91.6315 171.922 91.6315 171.678C91.6315 171.483 93.0652 171.336 94.7955 171.336C101.568 171.336 102.804 169.774 103.101 160.692C103.348 153.27 102.705 149.559 100.926 148.241C99.7392 147.362 98.8493 147.265 90.1979 147.362L80.706 147.46L80.8543 142.333L81.0026 137.206L79.0746 135.253C77.9376 134.13 76.4545 133.153 75.614 133.007C73.4388 132.616 62.4144 132.47 54.0596 132.763ZM76.1578 134.276C77.0477 134.569 78.2342 135.448 78.8274 136.278C79.8656 137.694 79.915 138.231 79.8162 147.509C79.7667 152.831 79.5195 157.762 79.2724 158.397C78.5308 160.35 77.0477 160.692 68.3468 161.034L60.0909 161.327L57.9157 162.938C54.3563 165.575 50.5002 167.967 50.253 167.723C50.1047 167.577 50.7474 166.551 51.7361 165.379C53.763 162.84 54.7023 161.229 54.208 160.936C53.9608 160.79 52.0327 160.692 49.907 160.692C47.7812 160.643 45.8037 160.448 45.5565 160.204C44.37 159.032 43.6779 154.1 43.5791 146.19C43.4307 134.472 43.6779 134.13 53.5158 133.739C62.0189 133.398 74.2298 133.691 76.1578 134.276ZM99.1459 148.876C100.135 149.169 101.074 149.755 101.321 150.243C101.964 151.708 102.162 164.11 101.568 166.356C100.777 169.139 99.5908 169.774 94.4494 170.165C91.8293 170.36 90.1484 170.702 90.1484 171.043C90.1484 171.336 90.6922 172.752 91.3844 174.168C93.5596 178.758 93.0652 178.807 87.9732 174.266L84.0677 170.848L79.3218 170.799C73.5871 170.75 69.5828 170.262 68.7918 169.481C68.4457 169.139 68.0997 167.381 68.0008 165.526L67.803 162.206L72.7467 161.913C75.4657 161.717 78.0364 161.424 78.4319 161.278C79.915 160.741 80.706 157.958 80.8543 153.124L81.0026 148.388H89.1597C93.6584 148.388 98.1077 148.632 99.1459 148.876Z" fill="black"/>
<path d="M54.0101 146.581C51.736 147.753 52.4281 150.341 55.0483 150.341C55.8393 150.341 56.5314 149.999 56.7291 149.56C57.6684 147.167 56.1853 145.556 54.0101 146.581ZM56.037 148.144C56.037 148.925 54.7022 149.706 54.2079 149.218C54.0595 149.022 54.0595 148.583 54.2079 148.144C54.6034 147.167 56.037 147.167 56.037 148.144Z" fill="black"/>
<path d="M60.8324 146.776C60.2886 147.313 60.4369 149.12 61.0795 149.755C61.9694 150.634 63.3536 150.438 63.9469 149.413C64.5896 148.192 64.5896 148.095 63.6503 147.216C62.8593 146.434 61.3762 146.19 60.8324 146.776ZM62.8593 148.436C62.7604 148.729 62.4638 148.925 62.2166 148.925C61.9694 148.925 61.6728 148.729 61.5739 148.436C61.475 148.143 61.7717 147.899 62.2166 147.899C62.6615 147.899 62.9581 148.143 62.8593 148.436Z" fill="black"/>
<path d="M68.7916 146.776C66.8142 147.313 67.9512 150.341 70.1264 150.341C71.5601 150.341 72.3511 148.339 71.3623 147.167C70.7197 146.435 70.3242 146.386 68.7916 146.776ZM70.6702 147.948C71.1646 148.778 70.0276 149.706 69.3354 149.022C68.7422 148.436 69.1377 147.411 69.8792 147.411C70.1264 147.411 70.4725 147.655 70.6702 147.948Z" fill="black"/>
<path d="M153.724 132.616C153.526 132.861 152.439 133.251 151.302 133.593L149.225 134.179L151.697 133.886C154.416 133.593 154.91 133.398 154.91 132.714C154.91 132.177 154.218 132.128 153.724 132.616Z" fill="black"/>
<path d="M133.554 134.276C134.345 135.107 141.563 135.448 145.765 134.814C148.385 134.423 147.94 134.374 142.551 134.423C139.14 134.472 135.581 134.276 134.641 134.032C133.158 133.691 133.01 133.691 133.554 134.276Z" fill="black"/>
<path d="M331.251 134.57C331.202 134.57 328.038 134.716 324.231 134.863C320.375 135.009 316.667 135.4 315.975 135.741C315.085 136.132 314.294 137.157 313.602 138.915C312.614 141.259 312.564 142.04 312.811 147.997C313.009 151.561 313.256 155.858 313.404 157.518C313.652 160.546 313.701 160.546 315.876 161.62C317.656 162.45 318.744 162.596 321.512 162.45L324.973 162.255L322.402 164.891C320.968 166.307 319.189 167.821 318.447 168.212C316.915 168.993 316.519 170.213 317.953 169.628C318.398 169.432 322.896 167.87 327.889 166.161C332.883 164.452 337.282 162.792 337.628 162.499C338.914 161.425 339.804 162.401 339.804 164.842C339.853 168.309 340.545 170.848 341.929 172.215C343.067 173.338 343.511 173.387 350.68 173.68L358.194 173.924L363.632 178.563C369.96 183.983 370.751 183.983 368.18 178.319C367.241 176.317 366.5 174.51 366.5 174.266C366.5 174.022 368.576 173.827 371.097 173.827C376.683 173.827 378.068 173.387 378.809 171.288C379.402 169.53 379.501 158.934 378.908 153.368C378.612 150.438 378.364 149.608 377.227 148.534L375.892 147.216L364.127 147.362L352.311 147.509L351.965 143.407C351.273 135.058 350.878 134.765 339.408 134.618C334.959 134.521 331.301 134.521 331.251 134.57ZM348.603 136.523C349.246 136.913 349.938 137.792 350.235 138.525C350.927 140.234 351.372 155.468 350.828 157.909C350.185 160.692 348.801 161.229 341.583 161.376C337.925 161.425 335.602 161.669 335.404 162.01C335.008 162.596 321.512 167.626 321.215 167.284C321.117 167.186 322.451 165.917 324.231 164.452C325.961 162.987 327.395 161.669 327.395 161.473C327.445 161.278 325.368 161.229 322.896 161.376C317.607 161.718 315.777 161.229 315.036 159.325C314.245 157.225 313.404 142.04 314.047 141.405C314.344 141.112 314.591 140.38 314.591 139.794C314.591 139.208 315.036 138.183 315.629 137.45C316.568 136.279 316.964 136.181 320.425 136.132C322.501 136.132 325.22 135.937 326.456 135.741C330.262 135.107 347.269 135.693 348.603 136.523ZM376.634 149.462C377.524 150.536 377.771 151.513 378.018 155.761C378.167 158.544 378.216 163.134 378.117 165.917C377.919 172.411 377.821 172.557 372.036 172.557C369.663 172.557 366.994 172.411 366.153 172.215C364.077 171.727 364.077 172.069 366.302 176.561C369.07 182.079 368.526 181.932 361.259 175.096L358.689 172.704L351.224 172.606C341.682 172.46 341.831 172.557 341.04 165.331L340.743 162.548H343.61C347.466 162.548 349.938 161.815 351.174 160.253C352.015 159.179 352.163 158.3 352.163 153.71V148.437L357.898 148.485C361.012 148.485 363.682 148.437 363.78 148.339C363.879 148.241 366.549 148.144 369.713 148.144C375.349 148.192 375.546 148.241 376.634 149.462Z" fill="black"/>
<path d="M323.786 148.192C323.341 148.583 322.995 149.266 322.995 149.608C322.995 150.438 324.33 151.806 325.17 151.806C326.11 151.806 327.445 150.145 327.445 149.022C327.445 147.362 325.121 146.874 323.786 148.192ZM326.209 149.413C326.209 149.755 325.813 150.145 325.368 150.243C324.478 150.39 324.132 149.364 324.824 148.681C325.319 148.192 326.209 148.632 326.209 149.413Z" fill="black"/>
<path d="M331.894 148.143C330.608 149.706 332.536 152.098 334.267 151.024C335.305 150.341 335.651 148.388 334.761 147.85C333.772 147.216 332.586 147.313 331.894 148.143ZM334.069 148.778C334.168 148.973 334.118 149.462 333.871 149.804C333.377 150.634 332.339 150.048 332.734 149.12C333.031 148.339 333.674 148.143 334.069 148.778Z" fill="black"/>
<path d="M341.237 147.753C340.298 147.997 339.705 149.559 340.15 150.634C340.348 151.122 340.99 151.317 342.226 151.22C343.907 151.073 344.006 150.975 344.006 149.364C344.006 147.606 343.264 147.167 341.237 147.753ZM343.264 149.12C343.264 149.901 341.93 150.683 341.435 150.194C341.287 149.999 341.287 149.559 341.435 149.12C341.831 148.143 343.264 148.143 343.264 149.12Z" fill="black"/>
<path d="M129.451 137.939C127.621 140.575 126.83 142.87 126.287 147.02C125.595 152.245 125.99 161.766 127.226 167.919C129.352 178.709 130.588 194.481 129.599 198.436C129.253 199.803 129.253 199.803 130.192 198.094C130.983 196.629 131.131 195.652 130.934 192.479C130.291 181.834 129.154 173.338 127.176 164.012C126.83 162.352 126.732 158.3 126.83 153.27C127.028 146.63 127.226 144.726 128.116 142.333C128.709 140.771 129.549 139.062 129.994 138.573C130.439 138.085 130.686 137.45 130.588 137.108C130.489 136.816 129.994 137.157 129.451 137.939Z" fill="black"/>
<path d="M147.248 144.579C147.396 148.143 147.643 151.122 147.742 151.268C147.89 151.366 147.989 148.485 147.989 144.823C147.989 140.478 147.792 138.134 147.445 138.134C147.099 138.134 147.05 140.185 147.248 144.579Z" fill="black"/>
<path d="M144.825 146.337C144.479 152.294 144.776 154.393 146.16 156.249C146.655 156.981 147.248 158.739 147.396 160.155C147.594 161.62 147.989 162.694 148.237 162.596C148.533 162.548 148.632 162.206 148.533 161.864C148.385 161.571 148.286 159.13 148.335 156.444C148.335 152.733 148.286 152.196 148.039 154.247L147.742 156.932L146.556 155.321C145.419 153.759 145.419 153.417 145.616 147.362C145.765 143.896 145.715 141.064 145.518 141.064C145.32 141.064 145.023 143.456 144.825 146.337Z" fill="black"/>
<path d="M136.174 146.19C134.444 150.585 134.048 151.854 134.246 152.05C134.641 152.44 137.212 146.044 136.965 145.36C136.817 145.019 136.471 145.36 136.174 146.19Z" fill="black"/>
<path d="M134.197 153.612C132.367 156.444 130.884 158.153 130.439 158.153C130.242 158.153 130.489 157.567 130.934 156.835L131.824 155.516L130.291 156.688C128.709 157.958 128.215 158.934 129.401 158.495C129.797 158.348 130.192 158.446 130.291 158.739C130.39 158.983 131.477 158.055 132.713 156.639C135.531 153.319 136.866 151.317 136.223 151.317C135.976 151.317 135.037 152.343 134.197 153.612Z" fill="black"/>
<path d="M148.484 167.235C148.484 167.772 149.027 171.336 149.72 175.194C150.659 180.516 151.005 184.178 151.054 190.33C151.153 199.119 151.104 199.559 148.039 209.422C146.902 213.035 145.419 218.406 144.726 221.384C144.084 224.314 143.194 227.83 142.848 229.197C141.216 234.958 138.102 248.142 137.36 252.39C136.915 254.929 136.471 257.565 136.322 258.249C136.026 259.714 133.554 260.642 128.808 261.081C125.941 261.276 125.397 261.179 122.084 259.518C117.734 257.321 115.559 255.222 113.136 250.778C111.554 247.946 111.357 247.312 111.802 246.14C112.098 245.407 112.593 243.943 112.889 242.82C113.136 241.697 114.372 238.572 115.608 235.788C116.844 233.005 117.734 230.662 117.586 230.515C117.339 230.222 115.41 234.275 115.361 235.154C115.361 236.13 114.372 235.935 110.467 234.079C108.489 233.152 106.71 232.371 106.512 232.371C105.622 232.371 97.5638 240.622 95.9819 243.113C92.6696 248.386 90.1483 254.978 89.5057 259.958C89.0607 263.474 89.1102 264.499 90.1483 268.747C91.9775 276.657 95.6853 284.909 99.8874 290.329C100.827 291.549 101.519 292.575 101.42 292.672C100.233 293.698 85.0069 303.17 84.562 303.17C83.7216 303.17 79.8161 299.069 78.1847 296.53C73.241 288.913 70.9175 281.295 70.522 271.921C70.1265 261.765 71.659 253.122 75.169 246.286C77.2948 242.185 81.7935 236.326 86.5395 231.492C92.0764 225.828 92.0764 225.388 86.5889 223.435C82.0407 221.824 78.3824 220.261 78.0858 219.724C77.7892 219.334 78.9756 219.187 93.3617 217.918C106.166 216.746 113.038 216.404 113.927 216.843C114.372 217.039 115.509 219.48 116.498 222.459C117.487 225.339 118.525 227.781 118.871 227.927C119.711 228.171 119.019 225.535 116.992 220.896C116.103 218.748 115.41 216.599 115.559 216.062C115.757 215.232 115.559 215.183 112.494 215.476C104.633 216.16 78.8768 218.211 77.3937 218.211C76.1083 218.211 75.7623 218.406 75.9106 219.041C76.0589 219.968 82.9306 223.582 86.49 224.607C87.6271 224.949 88.9619 225.535 89.4562 225.876C90.2967 226.462 90.2472 226.609 88.5169 228.025C86.0945 230.027 83.3755 232.859 80.5576 236.521C75.6634 242.771 73.7354 246.335 71.3624 253.61C69.9287 258.054 69.7804 259.177 69.5332 266.794C69.1872 277.878 70.1759 283.444 73.9825 291.452C75.8611 295.455 79.6183 300.973 81.9418 303.121L83.7216 304.83L85.5507 303.951C86.5889 303.463 88.3192 302.438 89.4068 301.656C92.8674 299.117 100.728 294.137 101.766 293.893C103.348 293.453 103.2 292.282 101.272 290.28C99.2447 288.131 95.092 280.807 93.4112 276.315C89.2585 265.231 89.3079 259.909 93.5595 250.095C96.1796 244.04 98.4537 240.818 102.606 237.058C105.968 234.031 107.55 233.249 108.143 234.275C108.292 234.47 109.478 235.056 110.763 235.544C114.323 236.863 114.422 236.96 113.384 239.597C112.889 240.866 111.999 243.064 111.456 244.529L110.417 247.116L111.406 249.314C111.95 250.534 113.433 252.976 114.718 254.733C117.437 258.542 117.536 259.714 115.509 266.794C114.422 270.651 114.372 271.53 114.817 273.874C115.064 275.339 115.559 277.975 115.855 279.733C116.548 283.444 117.981 286.618 119.464 287.545C120.058 287.887 122.233 288.278 124.26 288.375C127.424 288.571 128.313 288.424 130.192 287.448C132.417 286.325 132.417 286.276 132.565 283.542C132.664 281.344 132.318 279.587 130.736 275.046C129.698 271.921 128.907 268.991 129.055 268.6C129.302 268.063 129.104 267.966 128.215 268.259C126.633 268.747 122.628 268.649 120.305 268.014C117.487 267.282 116.894 266.013 117.388 261.96C117.635 260.104 117.882 258.542 117.981 258.444C118.031 258.347 119.118 258.933 120.305 259.763C121.541 260.544 123.37 261.423 124.408 261.716C126.089 262.155 126.237 262.35 126.237 263.913C126.237 264.938 126.435 265.524 126.732 265.329C127.028 265.182 127.226 264.401 127.226 263.669C127.226 262.35 127.374 262.253 129.945 261.96C131.428 261.813 133.158 261.472 133.752 261.227C134.394 260.983 135.531 260.642 136.322 260.446C137.459 260.202 137.657 259.958 137.41 259.079C137.262 258.493 137.459 256.491 137.855 254.587C138.25 252.731 138.794 249.753 139.091 247.995C139.783 244.04 147.198 214.402 148.731 209.422C152.389 197.703 152.587 196.58 152.241 190.233C151.895 183.69 149.571 167.479 148.929 166.698C148.632 166.454 148.484 166.649 148.484 167.235ZM121.145 269.04C122.48 269.235 124.556 269.43 125.842 269.43L128.116 269.479L129.945 274.997C132.268 282.223 132.219 284.762 129.698 286.471C128.165 287.497 127.572 287.594 124.655 287.399C120.651 287.155 119.118 286.276 117.882 283.493C116.35 280.124 115.262 271.969 115.905 268.991L116.449 266.452L117.635 267.575C118.278 268.161 119.81 268.845 121.145 269.04Z" fill="black"/>
<path d="M122.628 271.042C122.183 272.751 122.974 273.141 125.298 272.458C126.83 271.969 127.226 271.725 126.682 271.384C126.287 271.139 125.545 270.944 125.001 270.944C124.408 270.944 123.716 270.7 123.419 270.407C123.073 270.065 122.826 270.212 122.628 271.042Z" fill="black"/>
<path d="M123.123 274.704C123.568 275.046 124.309 275.387 124.705 275.387C125.15 275.436 124.606 275.632 123.518 275.827C121.986 276.071 121.738 276.218 122.431 276.51C123.568 277.048 125.199 276.559 126.88 275.143L128.264 274.02L125.248 274.069C122.727 274.118 122.381 274.216 123.123 274.704Z" fill="black"/>
<path d="M128.363 277.341C128.017 277.682 126.534 277.926 125.051 277.975C123.518 277.975 122.282 278.171 122.282 278.366C122.282 278.561 123.469 278.757 124.952 278.757C126.88 278.757 127.918 278.512 128.758 277.78C129.401 277.292 129.698 276.852 129.451 276.803C129.154 276.803 128.66 277.048 128.363 277.341Z" fill="black"/>
<path d="M128.511 201.414C128.313 202.098 128.264 202.781 128.363 202.928C128.511 203.025 128.758 202.537 128.907 201.805C129.104 201.121 129.154 200.437 129.055 200.291C128.907 200.193 128.66 200.682 128.511 201.414Z" fill="black"/>
<path d="M127.77 204.344C127.77 204.881 127.918 205.027 128.066 204.637C128.215 204.295 128.165 203.856 128.017 203.709C127.869 203.514 127.72 203.807 127.77 204.344Z" fill="black"/>
<path d="M126.534 207.176C126.138 208.055 125.248 210.545 124.556 212.644C123.815 214.793 123.024 216.941 122.777 217.478C121.887 219.529 120.354 224.07 120.552 224.07C120.799 224.07 122.134 221.14 122.777 219.187C123.024 218.504 123.765 216.404 124.507 214.549C126.583 209.129 127.77 205.516 127.424 205.516C127.325 205.516 126.929 206.248 126.534 207.176Z" fill="black"/>
<path d="M373.293 257.849C373.361 257.843 373.637 257.821 373.907 257.803C378.696 257.477 383.462 255.734 387.372 252.883C389.05 251.661 390.645 250.165 391.959 248.584C395.647 244.157 397.646 238.636 397.629 232.922C397.611 227.203 395.594 221.735 391.864 217.295C391.276 216.593 390.777 216.065 390.014 215.334C389.029 214.387 388.297 213.777 387.26 213.029C383.656 210.438 379.49 208.826 375.029 208.299C373.274 208.09 371.079 208.07 369.337 208.241C363.398 208.826 357.937 211.343 353.724 215.427C349.471 219.55 346.894 224.871 346.316 230.714C346.177 232.128 346.182 234.023 346.331 235.436C346.944 241.273 349.556 246.581 353.831 250.678C356.666 253.396 360.06 255.412 363.822 256.618C365.785 257.248 367.686 257.619 369.871 257.806C370.372 257.849 372.953 257.88 373.293 257.849ZM369.892 254.521C366.731 254.317 364.237 253.769 362.584 252.918C360.205 251.693 357.892 248.926 355.722 244.712C353.317 240.045 352.445 234.901 353.187 229.758C353.858 225.093 356.007 220.516 359.026 217.327C361.06 215.18 363.701 213.55 366.772 212.552C368.228 212.079 369.639 211.789 371.311 211.627C371.851 211.575 373.91 211.569 374.457 211.618C377.093 211.856 379.299 212.562 381.383 213.83C384.627 215.804 386.922 218.993 387.516 222.347C387.638 223.051 387.669 223.416 387.672 224.191C387.673 225.753 387.459 226.888 386.572 230.018C385.762 232.875 385.541 234.066 385.546 235.566C385.55 236.944 385.687 237.653 386.559 240.825C386.652 241.17 386.786 241.677 386.851 241.953C387.491 244.585 387.365 246.415 386.425 248.209C385.473 250.026 383.597 251.689 381.226 252.824C379.013 253.882 376.848 254.37 373.621 254.54C372.955 254.574 370.515 254.564 369.892 254.521Z" fill="#FFD10B"/>
<path d="M367.606 220.754C360.291 226.546 359.384 227.442 359.566 228.755C359.747 229.949 360.049 230.009 367.425 230.009C371.596 230.009 375.284 230.188 375.526 230.427C375.768 230.726 372.624 230.905 368.573 230.905H361.198L361.379 237.592L361.561 244.339L364.16 244.519L366.76 244.698L366.578 240.637C366.397 236.935 366.518 236.577 367.606 236.577C368.694 236.577 368.815 237.055 368.997 240.578L369.178 244.638H373.349C375.647 244.638 378.246 244.339 379.153 243.921C380.725 243.205 380.725 243.145 380.362 238.548C380.12 235.98 379.697 233.233 379.395 232.398C378.911 231.203 379.032 230.666 380.06 229.651L381.269 228.457L379.455 226.247C377.339 223.561 371.778 218.366 371.113 218.366C370.81 218.366 369.238 219.441 367.606 220.754ZM375.707 224.098C377.763 226.247 379.334 228.158 379.153 228.337C378.73 228.815 362.468 228.875 361.682 228.397C361.319 228.158 361.138 227.86 361.259 227.74C363.435 225.71 370.81 220.157 371.294 220.157C371.717 220.157 373.712 221.948 375.707 224.098ZM378.428 234.01C378.609 235.025 378.79 237.353 378.79 239.264V242.668L376.553 243.086C371.898 243.802 371.113 243.623 370.689 241.593C370.508 240.578 370.327 238.846 370.327 237.712C370.327 235.383 369.238 234.607 366.578 234.965L364.765 235.264L365.007 239.025C365.248 242.668 365.188 242.847 363.858 242.847C362.528 242.847 362.468 242.668 362.468 237.891C362.468 235.144 362.589 232.756 362.709 232.636C362.891 232.517 366.397 232.338 370.508 232.278L378.065 232.159L378.428 234.01Z" fill="black"/>
<path d="M329.669 243.357C326.653 244.724 312.119 249.46 310.834 249.46C309.894 249.46 309.499 250.388 310.092 251.071C312.07 253.464 315.184 261.618 316.667 268.259C318.447 276.364 316.123 286.227 310.784 293.6C308.757 296.432 303.171 302.682 302.726 302.682C302.133 302.682 292.097 292.428 291.751 291.452C291.356 290.377 290.367 290.133 290.367 291.061C290.367 291.403 290.12 298.483 289.873 306.783C289.477 318.893 289.477 321.969 289.971 322.31C290.318 322.506 291.751 322.701 293.135 322.701C294.52 322.701 296.596 323.043 297.733 323.434C298.821 323.824 303.171 324.703 307.274 325.387C317.013 326.998 324.577 328.365 325.22 328.609C325.961 328.853 329.323 328.121 329.62 327.633C329.768 327.389 326.802 324.752 323.045 321.725L316.222 316.256L319.535 312.887C324.923 307.418 331.103 299.02 334.069 293.112C340.051 281.149 340.891 273.141 337.628 260.3C336.244 254.929 335.058 251.657 333.031 247.849C332.24 246.482 331.548 244.724 331.399 243.992C331.152 242.722 331.103 242.673 329.669 243.357ZM330.757 245.896C331.844 247.458 333.97 252.097 335.058 255.319C340.051 270.114 339.507 280.075 332.932 292.965C328.977 300.68 318.546 313.668 315.332 314.889C313.652 315.524 314.097 316.256 317.804 318.844C319.436 320.016 320.919 321.187 321.117 321.48C321.265 321.773 322.797 322.945 324.429 324.117C329.422 327.682 328.631 328.023 319.139 326.363C315.135 325.68 310.438 324.898 308.659 324.605C306.879 324.361 303.023 323.58 300.007 322.945C297.041 322.262 293.729 321.627 292.74 321.48C291.603 321.285 290.861 320.895 290.762 320.406C290.367 318.453 291.158 294.87 291.603 294.43C291.998 294.039 293.679 295.455 297.239 299.02C300.007 301.852 302.479 304.147 302.677 304.147C302.874 304.147 304.259 302.78 305.742 301.168C307.225 299.508 309.103 297.36 309.993 296.383C313.306 292.721 317.261 284.713 317.755 280.807C318.645 273.239 318.645 272.214 317.359 266.794C315.975 261.179 314.344 256.589 312.416 252.878L311.279 250.73L320.227 247.702C325.121 246.042 329.323 244.675 329.521 244.626C329.719 244.577 330.262 245.163 330.757 245.896Z" fill="black"/>
<path d="M126.732 266.647C126.732 267.526 127.621 268.307 128.116 267.819C128.264 267.624 128.017 267.136 127.572 266.696C126.781 265.915 126.732 265.915 126.732 266.647Z" fill="black"/>
<path d="M172.708 306.002C172.708 307.418 140.969 319.723 137.262 319.772C136.026 319.772 135.729 320.992 136.817 321.383C137.212 321.529 138.448 323.141 139.585 324.996C140.673 326.803 142.551 329.683 143.688 331.344C147.643 337.105 153.427 347.31 153.427 348.58C153.427 349.068 153.773 349.605 154.218 349.751C155.355 350.191 155.355 350.142 155.108 348.824C155.009 348.14 155.207 346.968 155.603 346.236C155.998 345.504 157.234 343.062 158.42 340.767C159.557 338.472 160.546 336.568 160.596 336.47C160.645 336.422 162.474 336.91 164.6 337.545C174.191 340.474 178.047 341.304 186.995 342.232C195.696 343.16 208.796 343.648 213.987 343.209C224.863 342.281 230.796 341.597 231.834 341.207C232.625 340.963 232.922 340.474 232.823 339.693C232.625 338.179 230.005 331.685 227.632 326.851C226.544 324.654 225.902 322.848 226.149 322.652C226.445 322.506 226.297 322.115 225.852 321.725C225.407 321.383 225.16 320.797 225.308 320.455C225.605 319.674 224.171 319.137 223.38 319.772C223.034 320.064 220.661 320.748 218.14 321.334C214.432 322.115 211.713 322.359 204.841 322.408C195.992 322.457 185.858 322.018 177.898 321.285C173.4 320.846 169.395 319.723 169.643 318.99C169.692 318.746 170.631 316.012 171.768 312.936C174.092 306.49 174.191 306.051 173.35 305.758C173.004 305.612 172.708 305.758 172.708 306.002ZM172.213 308.297C172.213 308.883 169.296 316.842 168.506 318.258C168.061 319.137 167.863 320.064 168.11 320.26C169.395 321.432 177.997 322.701 186.55 322.945C190.505 323.043 196.833 323.287 200.689 323.482C208.005 323.824 214.729 323.287 220.562 321.871C222.243 321.432 223.726 321.188 223.825 321.285C224.27 321.871 230.153 334.615 230.796 336.373C231.834 339.254 231.735 340.23 230.45 340.523C229.807 340.67 226 341.109 221.897 341.548C212.85 342.476 198.81 342.476 190.752 341.548C187.489 341.158 183.386 340.67 181.606 340.523C179.827 340.328 176.86 339.742 174.932 339.205C173.054 338.668 170.928 338.131 170.236 337.984C167.517 337.447 162.029 335.738 161.436 335.25C160.546 334.566 160.398 334.81 157.135 341.109C155.603 344.136 154.268 346.627 154.169 346.627C153.971 346.627 153.23 345.357 148.187 336.861C147.001 334.859 144.974 331.685 143.688 329.781C142.403 327.926 140.623 325.143 139.783 323.629L138.201 320.846L140.772 320.113C146.803 318.356 167.566 310.299 170.631 308.59C171.571 308.053 172.213 307.906 172.213 308.297Z" fill="black"/>
<path d="M356.77 43.0106C351.536 43.3982 351.339 43.4628 350.031 45.5299C348.984 47.2741 348.788 48.6306 348.918 51.9897C349.115 56.2532 349.115 56.3178 351.078 56.447C352.648 56.5762 353.302 56.2532 354.349 54.509C355.462 52.8295 356.116 52.4419 357.948 52.4419C359.715 52.4419 360.369 52.7649 360.893 53.8631C361.874 56.0594 364.819 55.801 367.109 53.4109C369.726 50.6332 373.129 50.6332 374.306 53.4755C375.092 55.3488 375.353 55.478 377.513 55.0904C378.821 54.8966 380.588 54.7028 381.439 54.7028C382.813 54.7028 382.944 54.509 382.551 52.5711C382.158 50.3102 379.214 47.3387 377.905 47.7908C376.858 48.243 376.204 47.7262 374.045 44.8193L372.213 42.4292L367.174 42.5584C364.426 42.623 359.78 42.8168 356.77 43.0106ZM371.362 44.2379C371.755 44.4963 372.867 45.7883 373.848 47.0803C375.222 48.889 376.139 49.535 377.513 49.535C379.541 49.535 380.85 50.5686 380.85 52.2481C380.85 53.1525 380.326 53.4109 378.363 53.4109C376.269 53.4109 375.681 53.0879 375.092 51.7959C374.699 50.9562 373.652 50.0518 372.736 49.7934C370.446 49.2766 366.782 50.6332 365.538 52.5065C364.164 54.4444 363.379 54.4444 361.743 52.4419C360.827 51.2791 359.846 50.827 358.275 50.827C355.2 50.827 354.088 51.3437 352.975 53.4755C352.452 54.509 351.797 55.3488 351.47 55.3488C350.62 55.3488 349.965 51.3437 350.751 50.5686C351.078 50.2456 351.405 49.1474 351.405 48.1784C351.405 44.9485 353.172 44.4317 367.109 43.915C369.072 43.8504 371.035 43.9796 371.362 44.2379Z" fill="black"/>
<path d="M369.268 53.4108C367.305 54.1859 366.716 56.4469 368.156 57.9972C369.595 59.6122 371.82 59.5476 373.325 57.9326C374.503 56.6407 374.503 56.5761 373.259 54.8965C371.689 52.8294 371.166 52.6356 369.268 53.4108ZM372.213 56.0593C372.474 57.2867 370.446 58.2556 369.53 57.3513C368.614 56.4469 369.53 54.5735 370.838 54.8319C371.493 54.9611 372.082 55.4779 372.213 56.0593Z" fill="black"/>
<path d="M355.462 54.832C354.088 56.1885 354.48 59.0954 356.247 60.1936C359.388 62.1961 362.659 59.2246 360.958 55.8655C360.107 54.186 356.77 53.54 355.462 54.832ZM359.584 57.2867C359.584 58.3203 359.191 58.9662 358.341 59.0954C356.77 59.4184 355.92 57.9973 356.705 56.4469C357.621 54.7674 359.584 55.3487 359.584 57.2867Z" fill="black"/>
<path d="M341.401 63.8537C340.971 62.9485 340.672 62.2386 340.391 61.4801C338.805 57.1572 338.436 52.554 339.309 47.9794C339.632 46.2816 340.23 44.338 340.923 42.7331C342.037 40.1498 343.596 37.7272 345.485 35.6412C348.202 32.6426 351.711 30.2615 355.576 28.7998C364.358 25.4718 374.337 27.1334 381.576 33.1244C383.666 34.8555 385.382 36.8185 386.949 39.2663C387.294 39.7997 388.255 41.5772 388.512 42.1567C390.458 46.488 391.174 50.7833 390.71 55.3538C390.448 57.9296 389.751 60.5745 388.694 62.9892C387.86 64.8938 386.749 66.7606 385.465 68.41C383.572 70.8455 381.342 72.8406 378.591 74.5617C378.024 74.9124 376.157 75.9005 375.554 76.1631C373.714 76.9627 372.069 77.4968 370.289 77.8729C364.734 79.0383 359.004 78.3998 353.858 76.0305C348.701 73.6628 344.52 69.7293 341.877 64.7658C341.655 64.3484 341.44 63.9376 341.401 63.8537ZM345.061 59.2888C346.227 61.0074 347.737 62.0442 349.854 62.5772C350.705 62.7916 351.458 62.9155 353.011 63.0962C356.149 63.4623 357.206 63.6932 358.585 64.3239C359.837 64.8962 360.837 65.5424 363.173 67.2862C365.25 68.8368 366.42 69.577 367.603 70.0992C369.988 71.147 372.676 71.3374 375.387 70.6544C378.177 69.9542 380.736 68.3656 382.668 66.1386C385.623 62.7337 387.115 57.7043 386.633 52.7643C386.568 52.1043 386.363 50.8931 386.209 50.2629C385.844 48.7888 385.384 47.6145 384.639 46.23C383.908 44.8793 383.107 43.7223 382.078 42.5289C379.235 39.2299 375.792 36.8373 371.648 35.2757C370.954 35.0133 369.202 34.4857 368.501 34.3276C364.72 33.4675 361.197 33.4116 356.972 34.143C354.747 34.5282 353.072 35.0535 351.621 35.8222C350.641 36.3387 350.033 36.7878 349.323 37.5232C347.768 39.1345 346.292 41.5932 345.051 44.643C344.429 46.1653 343.85 47.9946 343.57 49.3296C342.94 52.2933 343.205 55.3895 344.299 57.8992C344.417 58.1701 344.899 59.0478 345.061 59.2888Z" fill="#DD7619"/>
</svg>
