<svg width="63" height="56" viewBox="0 0 63 56" fill="none" xmlns="http://www.w3.org/2000/svg">
<path d="M22.4345 51.9671C23.7772 51.9308 25.2983 51.7928 26.5573 51.5948C35.6918 50.1372 43.3297 47.2489 49.5031 42.9307C57.1977 37.5435 61.8143 30.1084 61.6777 23.3397C61.5771 18.2654 58.8975 14.7116 54.2571 13.4835C53.6779 13.3355 53.0492 13.2483 51.9407 13.1842C50.4416 13.0923 50.0017 13.1164 48.0305 13.367C46.7482 13.5378 44.2484 13.5353 42.9188 13.3768C40.0925 13.0289 37.1759 12.1556 34.0421 10.7269C33.0712 10.2851 29.7691 8.5684 28.0525 7.61967C22.3519 4.45779 20.1858 3.59498 17.5385 3.42907C14.6759 3.24874 12.6653 4.10119 10.4241 6.45502C8.88925 8.05569 7.67591 9.88634 6.35304 12.5565C3.69041 17.9318 1.5038 24.6671 0.705182 29.9221C0.464682 31.503 0.367873 35.2511 0.532391 36.6119C0.984463 40.4451 2.4094 43.7182 4.61843 46.0096C6.74195 48.2102 9.32275 49.7133 12.7152 50.7141C15.5683 51.5681 19.3574 52.0561 22.4345 51.9671Z" fill="#155E9F"/>
<path d="M27.7593 52.5869C29.6415 52.0851 30.2089 51.9086 31.4856 51.4285C40.9378 47.8053 48.3835 42.4694 53.0862 35.9275C53.9075 34.7823 55.3568 32.3714 55.8871 31.2634C57.4106 28.0832 58.2721 24.7538 58.3524 21.6732C58.3862 20.2286 58.0565 17.7537 57.6653 16.5858C57.0393 14.7267 56.1387 13.3 54.8549 12.1621C52.9554 10.4701 50.9326 9.82048 48.0801 9.97662C46.9526 10.0445 46.029 10.2499 44.37 10.801C42.6732 11.3676 39.5264 11.8741 37.9511 11.8341C34.439 11.7461 31.466 11.06 25.9026 9.05825C24.8304 8.67221 23.296 8.13334 22.4876 7.85632C16.7977 5.92223 13.7114 6.01185 11.0454 8.20199C8.22828 10.5111 6.20454 15.5141 4.85081 23.5241C3.36796 32.2556 3.61812 38.8809 5.61122 43.8054C6.9369 47.0857 9.03757 49.5691 11.8439 51.1625C12.8473 51.7395 14.9134 52.5242 16.1224 52.803C17.9203 53.2237 19.8821 53.3908 22.1137 53.3157C23.1824 53.2857 26.9962 52.795 27.7593 52.5869ZM23.5065 52.8075C19.6951 53.2032 15.9251 52.6548 12.8986 51.2578C10.3423 50.0692 8.11834 47.956 6.75493 45.4202C5.53164 43.1365 4.91551 41.0106 4.51242 37.686C3.99272 33.4333 4.21193 29.3078 5.26526 23.2302C6.82597 14.259 9.17738 9.30744 12.7186 7.58237C15.1516 6.39546 18.0925 6.68904 23.6141 8.67861C32.0545 11.7038 34.7298 12.3242 38.928 12.226C40.0699 12.2032 42.7431 11.7445 43.8139 11.3923C45.7481 10.7496 46.1577 10.6458 47.5668 10.4758C49.8645 10.1912 51.448 10.4571 53.1778 11.4095C57.766 13.9281 59.2744 20.6727 56.8543 27.8887C56.1016 30.1306 55.1864 32.02 53.8059 34.1832C49.2036 41.3717 41.2971 47.293 31.2357 51.0806C28.6757 52.0512 26.852 52.4584 23.5065 52.8075Z" fill="black"/>
<path d="M22.2973 22.6C22.4573 22.6 22.5853 22.656 22.6813 22.768C22.7853 22.872 22.8373 23.004 22.8373 23.164V30.388C22.8373 30.564 22.7773 30.712 22.6573 30.832C22.5453 30.944 22.4013 31 22.2253 31C22.1453 31 22.0573 30.984 21.9613 30.952C21.8733 30.92 21.8053 30.876 21.7573 30.82L16.8253 24.424L17.1013 24.268V30.448C17.1013 30.6 17.0493 30.732 16.9453 30.844C16.8413 30.948 16.7093 31 16.5493 31C16.3813 31 16.2453 30.948 16.1413 30.844C16.0453 30.732 15.9973 30.6 15.9973 30.448V23.212C15.9973 23.028 16.0573 22.88 16.1773 22.768C16.2973 22.656 16.4413 22.6 16.6093 22.6C16.6973 22.6 16.7893 22.62 16.8853 22.66C16.9893 22.692 17.0653 22.744 17.1133 22.816L21.9253 29.08L21.7453 29.248V23.164C21.7453 23.004 21.7973 22.872 21.9013 22.768C22.0053 22.656 22.1373 22.6 22.2973 22.6ZM26.0581 30.388C26.0501 30.564 25.9821 30.712 25.8541 30.832C25.7341 30.944 25.5901 31 25.4221 31C25.2381 31 25.0861 30.944 24.9661 30.832C24.8541 30.712 24.7981 30.564 24.7981 30.388V23.212C24.7981 23.036 24.8581 22.892 24.9781 22.78C25.0981 22.66 25.2541 22.6 25.4461 22.6C25.6061 22.6 25.7461 22.66 25.8661 22.78C25.9941 22.892 26.0581 23.036 26.0581 23.212V30.388ZM34.2973 22.6C34.4573 22.6 34.5853 22.656 34.6813 22.768C34.7853 22.872 34.8373 23.004 34.8373 23.164V30.388C34.8373 30.564 34.7773 30.712 34.6573 30.832C34.5453 30.944 34.4013 31 34.2253 31C34.1453 31 34.0573 30.984 33.9613 30.952C33.8733 30.92 33.8053 30.876 33.7573 30.82L28.8253 24.424L29.1013 24.268V30.448C29.1013 30.6 29.0493 30.732 28.9453 30.844C28.8413 30.948 28.7093 31 28.5493 31C28.3813 31 28.2453 30.948 28.1413 30.844C28.0453 30.732 27.9973 30.6 27.9973 30.448V23.212C27.9973 23.028 28.0573 22.88 28.1773 22.768C28.2973 22.656 28.4413 22.6 28.6093 22.6C28.6973 22.6 28.7893 22.62 28.8853 22.66C28.9893 22.692 29.0653 22.744 29.1133 22.816L33.9253 29.08L33.7453 29.248V23.164C33.7453 23.004 33.7973 22.872 33.9013 22.768C34.0053 22.656 34.1373 22.6 34.2973 22.6ZM29.8333 22.024C29.6813 22.024 29.5533 21.96 29.4493 21.832C29.3453 21.696 29.2973 21.512 29.3053 21.28C29.3213 21.024 29.4373 20.8 29.6533 20.608C29.8693 20.408 30.1653 20.308 30.5413 20.308C30.7893 20.308 31.0213 20.372 31.2373 20.5C31.4613 20.62 31.6693 20.74 31.8613 20.86C32.0533 20.98 32.2213 21.04 32.3653 21.04C32.4613 21.04 32.5373 21.012 32.5933 20.956C32.6493 20.892 32.6693 20.812 32.6533 20.716C32.6133 20.564 32.6333 20.444 32.7133 20.356C32.8013 20.268 32.9053 20.224 33.0253 20.224C33.1853 20.224 33.3173 20.292 33.4213 20.428C33.5253 20.556 33.5733 20.728 33.5653 20.944C33.5573 21.096 33.5093 21.248 33.4213 21.4C33.3413 21.552 33.2213 21.684 33.0613 21.796C32.9093 21.9 32.7133 21.952 32.4733 21.952C32.2173 21.952 31.9653 21.892 31.7173 21.772C31.4773 21.644 31.2533 21.52 31.0453 21.4C30.8373 21.28 30.6613 21.22 30.5173 21.22C30.4293 21.22 30.3533 21.248 30.2893 21.304C30.2253 21.36 30.1973 21.44 30.2053 21.544C30.2453 21.688 30.2213 21.804 30.1333 21.892C30.0533 21.98 29.9533 22.024 29.8333 22.024ZM44.4541 26.8C44.4541 27.408 44.3541 27.976 44.1541 28.504C43.9541 29.024 43.6701 29.48 43.3021 29.872C42.9421 30.264 42.5141 30.572 42.0181 30.796C41.5221 31.012 40.9781 31.12 40.3861 31.12C39.8021 31.12 39.2621 31.012 38.7661 30.796C38.2701 30.572 37.8381 30.264 37.4701 29.872C37.1101 29.48 36.8301 29.024 36.6301 28.504C36.4381 27.976 36.3421 27.408 36.3421 26.8C36.3421 26.192 36.4381 25.628 36.6301 25.108C36.8301 24.58 37.1101 24.12 37.4701 23.728C37.8381 23.336 38.2701 23.032 38.7661 22.816C39.2621 22.592 39.8021 22.48 40.3861 22.48C40.9781 22.48 41.5221 22.592 42.0181 22.816C42.5141 23.032 42.9421 23.336 43.3021 23.728C43.6701 24.12 43.9541 24.58 44.1541 25.108C44.3541 25.628 44.4541 26.192 44.4541 26.8ZM43.1581 26.8C43.1581 26.208 43.0381 25.676 42.7981 25.204C42.5661 24.732 42.2421 24.36 41.8261 24.088C41.4101 23.816 40.9301 23.68 40.3861 23.68C39.8501 23.68 39.3741 23.816 38.9581 24.088C38.5421 24.36 38.2181 24.732 37.9861 25.204C37.7541 25.668 37.6381 26.2 37.6381 26.8C37.6381 27.392 37.7541 27.924 37.9861 28.396C38.2181 28.868 38.5421 29.24 38.9581 29.512C39.3741 29.784 39.8501 29.92 40.3861 29.92C40.9301 29.92 41.4101 29.784 41.8261 29.512C42.2421 29.24 42.5661 28.868 42.7981 28.396C43.0381 27.924 43.1581 27.392 43.1581 26.8ZM48.507 31.12C47.931 31.12 47.419 31.04 46.971 30.88C46.523 30.72 46.095 30.456 45.687 30.088C45.599 30.024 45.531 29.948 45.483 29.86C45.443 29.764 45.423 29.668 45.423 29.572C45.423 29.42 45.479 29.284 45.591 29.164C45.703 29.044 45.843 28.984 46.011 28.984C46.139 28.984 46.259 29.028 46.371 29.116C46.675 29.396 46.991 29.608 47.319 29.752C47.655 29.896 48.047 29.968 48.495 29.968C48.815 29.968 49.107 29.916 49.371 29.812C49.643 29.708 49.859 29.568 50.019 29.392C50.179 29.216 50.259 29.012 50.259 28.78C50.259 28.492 50.175 28.256 50.007 28.072C49.847 27.88 49.611 27.724 49.299 27.604C48.995 27.476 48.627 27.368 48.195 27.28C47.795 27.208 47.435 27.108 47.115 26.98C46.803 26.852 46.535 26.692 46.311 26.5C46.087 26.3 45.915 26.064 45.795 25.792C45.675 25.52 45.615 25.204 45.615 24.844C45.615 24.356 45.743 23.936 45.999 23.584C46.255 23.232 46.603 22.96 47.043 22.768C47.483 22.576 47.979 22.48 48.531 22.48C49.035 22.48 49.507 22.56 49.947 22.72C50.387 22.872 50.743 23.08 51.015 23.344C51.207 23.512 51.303 23.692 51.303 23.884C51.303 24.028 51.243 24.164 51.123 24.292C51.011 24.412 50.879 24.472 50.727 24.472C50.615 24.472 50.519 24.44 50.439 24.376C50.311 24.24 50.139 24.12 49.923 24.016C49.707 23.904 49.475 23.812 49.227 23.74C48.987 23.668 48.755 23.632 48.531 23.632C48.171 23.632 47.863 23.684 47.607 23.788C47.351 23.884 47.155 24.02 47.019 24.196C46.883 24.364 46.815 24.564 46.815 24.796C46.815 25.068 46.891 25.292 47.043 25.468C47.203 25.644 47.423 25.788 47.703 25.9C47.983 26.004 48.303 26.1 48.663 26.188C49.103 26.284 49.495 26.392 49.839 26.512C50.191 26.632 50.487 26.788 50.727 26.98C50.967 27.164 51.151 27.396 51.279 27.676C51.407 27.956 51.471 28.304 51.471 28.72C51.471 29.2 51.335 29.62 51.063 29.98C50.791 30.34 50.431 30.62 49.983 30.82C49.543 31.02 49.051 31.12 48.507 31.12Z" fill="white"/>
</svg>
