<svg width="197" height="274" viewBox="0 0 197 274" fill="none" xmlns="http://www.w3.org/2000/svg">
<path d="M196.417 179.607C196.663 170.307 196.638 167.475 196.258 161.01C193.174 113.067 181.033 72.5128 160.955 43.3353C157.438 38.2364 149.705 28.8011 145.993 25.0947C135.337 14.4505 123.321 6.71124 111.361 2.87775C105.749 1.09797 95.6781 -0.152324 90.6494 0.35104C82.6404 1.16823 76.001 3.74549 70.0423 8.42567C61.1926 15.3412 56.2769 24.0002 53.5402 37.4159C52.4826 42.7252 52.2026 47.2429 52.4119 55.5622C52.6376 64.0746 50.9264 79.2498 48.9213 86.5166C44.4553 102.719 38.282 115.747 23.9205 139.321C21.1517 143.864 17.2425 150.381 15.2099 153.822C0.964915 178.058 -2.30637 192.484 3.13451 207.319C8.86364 222.989 26.064 238.003 55.8169 253.286C88.241 269.978 114.458 276.261 136.065 272.542C150.456 270.074 162.638 263.114 172.166 251.879C175.601 247.87 181.096 239.161 183.606 233.863C187.362 225.991 190.318 217.073 192.643 206.631C193.78 201.636 196.336 183.383 196.417 179.607ZM192.289 199.595C189.365 217.73 182.795 234.612 173.777 247.091C166.126 257.62 155.248 265.568 143.726 269.048C133.354 272.16 124.314 272.631 110.832 270.767C93.582 268.401 77.6973 262.749 55.1532 251.032C21.8823 233.709 5.26762 217.232 2.67367 198.857C0.884809 186.23 5.48476 172.91 19.7494 149.517C41.4916 113.739 47.0585 102.019 51.6013 82.4225C52.852 77.0967 54.1945 64.1737 54.0729 58.8079C53.8281 49.1083 53.9026 47.0905 54.8912 40.3589C56.474 29.3745 59.3727 22.3231 65.1293 15.3646C80.3682 -3.10206 108.529 -2.52618 133.923 16.8142C141.812 22.8265 148.131 29.197 154.975 38.0351C177.7 67.473 191.591 110.824 194.603 161.779C195.397 174.752 194.85 183.674 192.289 199.595Z" fill="black"/>
</svg>
