<svg width="229" height="346" viewBox="0 0 229 346" fill="none" xmlns="http://www.w3.org/2000/svg">
<path d="M238.204 235.543C239.31 228.878 240.13 221.247 240.435 214.862C242.559 168.519 236.894 128.389 223.476 94.3154C206.729 51.8421 177.951 22.8871 147.658 17.9716C124.95 14.2773 106.585 24.5835 96.7329 46.5006C95.5271 49.2407 94.5454 52.2754 93.2138 57.7003C91.3896 65.0325 91.082 67.2261 90.3386 77.174C89.8899 83.6517 87.5201 96.0025 85.5592 102.442C81.3422 116.122 74.6984 129.813 65.3747 144.119C62.4897 148.552 51.7235 163.452 45.8759 171.151C26.4063 196.71 20.5175 206.701 17.2802 219.646C13.7756 233.643 15.6772 244.283 24.0521 257.302C29.7371 266.209 36.7503 273.717 47.4013 282.46C68.8434 300.057 96.7954 316.426 119.46 324.713C126.278 327.207 142.89 330.781 149.11 331.092C166.618 332.024 182.549 327.686 194.845 318.663C206.655 309.987 215.788 298.475 223.45 282.537C229.947 269.143 235.697 250.822 238.204 235.543Z" fill="#155E9F"/>
</svg>
