<svg width="265" height="530" viewBox="0 0 265 530" fill="none" xmlns="http://www.w3.org/2000/svg">
<path d="M134.309 2.89413C135.068 3.06972 135.827 3.24531 136.608 3.42622C172.186 11.9915 206.246 32.5814 233.158 65.8305C233.89 66.735 234.623 67.6394 235.378 68.5712C250.6 88.3647 264.158 116.739 264.973 146.213C265.126 161.267 264.721 175.025 261.278 189.372C260.781 191.466 260.781 191.466 260.273 193.602C255.073 213.107 246.648 231.25 237.418 247.647C237.033 248.333 236.647 249.019 236.25 249.726C233.908 253.871 231.535 257.981 229.143 262.073C228.084 263.897 227.04 265.737 225.998 267.578C225.39 268.645 224.783 269.712 224.157 270.811C223.629 271.745 223.1 272.68 222.556 273.643C222.118 274.295 221.679 274.947 221.228 275.618C220.665 275.618 220.103 275.618 219.523 275.618C219.316 276.274 219.108 276.929 218.894 277.603C217.613 280.793 216.058 283.145 214.251 285.816C213.565 286.841 212.88 287.866 212.174 288.921C211.172 290.413 211.172 290.413 210.15 291.935C206.565 297.373 203.225 302.875 200.147 308.871C199.792 309.436 199.438 310.001 199.072 310.583C198.51 310.583 197.947 310.583 197.368 310.583C197.136 311.258 196.903 311.932 196.664 312.627C195.668 315.232 194.559 317.476 193.283 319.839C192.588 321.137 192.588 321.137 191.878 322.461C191.142 323.829 191.142 323.829 190.391 325.225C177.171 350.139 170.406 374.702 164.321 404.182C156.573 441.539 143.901 467.744 119.29 487.956C91.7552 508.323 60.487 520.887 29.4957 526.199C28.8262 526.319 28.1567 526.439 27.4669 526.562C5.78673 530.307 -17.0175 530.027 -38.6756 526.199C-39.529 526.048 -40.3824 525.898 -41.2616 525.743C-73.2882 519.875 -107.152 506.532 -127.774 469.964C-153.007 423.667 -160.08 364.205 -159.999 307.669C-159.999 306.442 -159.998 305.215 -159.998 303.951C-159.965 284.825 -159.37 266.372 -156.271 247.647C-156.089 246.523 -155.906 245.4 -155.718 244.242C-147.303 194.237 -126.665 152.871 -94.917 125.27C-88.4907 119.961 -81.917 115.012 -75.3177 110.119C-74.6357 109.612 -73.9537 109.106 -73.251 108.584C-67.0023 103.96 -60.6956 99.5104 -54.3337 95.1863C-40.2335 85.5825 -26.4568 75.7481 -13.2512 63.9719C32.3091 23.5074 78.1469 -10.132 134.309 2.89413Z" fill="#7E4E39"/>
</svg>
