<svg width="400" height="298" viewBox="0 0 400 298" fill="none" xmlns="http://www.w3.org/2000/svg">
<path d="M43.154 54.7503C44.1465 54.0597 44.1465 54.0597 45.159 53.3552C74.7553 33.1747 109.041 35.1118 139.416 35.3905C171.515 35.6524 202.308 27.7921 234.673 18.0682C301.372 -1.95849 301.372 -1.95849 332.5 2.72178C333.324 2.83533 334.149 2.94889 334.999 3.06588C343.66 4.39173 351.363 7.3743 358.773 11.4948C359.573 11.9316 360.373 12.3684 361.197 12.8184C371.786 18.8608 380.288 27.6633 386.692 38.4495C387.07 39.0838 387.447 39.718 387.836 40.3715C402.537 67.6307 401.261 103.853 393.775 137.49C393.525 138.616 393.279 139.741 393.038 140.867C389.889 155.545 385.325 170.338 379.096 184.444C378.64 185.532 378.186 186.621 377.734 187.71C374.274 195.995 370.432 204.031 366.16 212.003C365.633 212.989 365.107 213.975 364.564 214.99C348.238 244.249 322.37 267.463 293.823 280.462C293.211 280.741 292.6 281.02 291.971 281.307C282.541 285.541 273.131 288.659 263.477 291.255C262.511 291.52 261.545 291.785 260.55 292.057C240.428 297.255 220.296 298.537 200.747 297.575C199.995 297.542 199.995 297.542 199.227 297.508C193.824 297.269 188.502 296.795 183.2 296.146C181.831 295.987 180.46 295.835 179.08 295.718C173.772 295.264 168.6 294.426 163.425 293.507C161.98 293.251 160.534 293.001 159.087 292.751C147.25 290.687 147.25 290.687 143.663 289.374C143.451 288.943 143.238 288.513 143.02 288.069C142.571 288.384 142.123 288.699 141.661 289.024C139.796 288.517 138.003 287.953 136.192 287.321C135.091 286.948 133.99 286.576 132.888 286.205C132.341 286.02 131.795 285.835 131.232 285.645C129.195 284.978 127.123 284.412 125.047 283.842C118.786 282.006 112.904 279.378 106.967 276.846C105.034 276.038 103.082 275.275 101.126 274.514C97.1149 272.919 93.2864 271.056 89.4773 269.081C88.7891 268.725 88.1008 268.368 87.3918 268.001C46.9765 246.882 12.0136 214.386 2.59746 163.817C-1.61342 138.799 0.816799 111.709 15.3604 86.8152C20.0469 79.0043 25.2895 71.9389 31.2927 65.1255C32.3851 63.8727 32.3851 63.8727 33.4996 62.5947C36.4489 59.4703 39.7273 57.1333 43.154 54.7503Z" fill="#00A144"/>
</svg>
