<svg width="305" height="449" viewBox="0 0 305 449" fill="none" xmlns="http://www.w3.org/2000/svg">
<path d="M191.222 2.41513C191.883 2.56411 192.543 2.7131 193.224 2.8666C224.197 10.1341 253.849 27.6044 277.278 55.8158C277.916 56.5832 278.554 57.3506 279.211 58.1412C292.464 74.9357 304.267 99.0106 304.977 124.019C305.11 136.793 304.757 148.466 301.76 160.639C301.327 162.416 301.327 162.416 300.885 164.228C296.358 180.778 289.023 196.172 280.988 210.084C280.652 210.666 280.316 211.249 279.97 211.848C277.931 215.366 275.865 218.853 273.783 222.325C272.861 223.872 271.953 225.434 271.045 226.996C270.516 227.901 269.987 228.806 269.442 229.739C268.983 230.532 268.523 231.325 268.049 232.141C267.667 232.695 267.285 233.248 266.892 233.818C266.403 233.818 265.913 233.818 265.409 233.818C265.228 234.374 265.047 234.93 264.861 235.502C263.745 238.209 262.391 240.204 260.818 242.471C260.222 243.34 259.625 244.21 259.01 245.105C258.138 246.371 258.138 246.371 257.248 247.663C254.127 252.276 251.219 256.944 248.54 262.033C248.231 262.512 247.922 262.991 247.604 263.485C247.114 263.485 246.625 263.485 246.12 263.485C245.918 264.057 245.716 264.63 245.508 265.219C244.641 267.429 243.675 269.333 242.564 271.338C241.959 272.44 241.959 272.44 241.341 273.563C240.7 274.724 240.7 274.724 240.046 275.908C228.537 297.048 222.647 317.889 217.35 342.902C210.605 374.6 199.572 396.834 178.147 413.983C154.175 431.265 126.953 441.925 99.9728 446.432C99.3899 446.534 98.807 446.635 98.2065 446.74C79.332 449.918 59.4789 449.68 40.6236 446.432C39.8806 446.304 39.1377 446.177 38.3723 446.045C10.4903 441.066 -18.9909 429.745 -36.9447 398.717C-58.9123 359.435 -65.0697 308.983 -64.9994 261.013C-64.999 259.972 -64.9986 258.93 -64.9982 257.858C-64.9693 241.63 -64.4513 225.973 -61.7537 210.084C-61.5948 209.131 -61.4358 208.178 -61.272 207.196C-53.9463 164.767 -35.9791 129.668 -8.33949 106.25C-2.74482 101.745 2.97819 97.5458 8.7234 93.394C9.31715 92.9641 9.9109 92.5342 10.5226 92.0913C15.9627 88.1684 21.4532 84.3927 26.9918 80.7237C39.2673 72.5751 51.2612 64.2307 62.7578 54.2388C102.422 19.9052 142.328 -8.63734 191.222 2.41513Z" fill="#7E4E39"/>
</svg>
