<svg width="265" height="525" viewBox="0 0 265 525" fill="none" xmlns="http://www.w3.org/2000/svg">
<path d="M134.309 2.82392C135.068 2.99813 135.827 3.17234 136.608 3.35182C172.186 11.8495 206.246 32.2769 233.158 65.2634C233.89 66.1607 234.623 67.058 235.378 67.9825C250.6 87.6197 264.158 115.77 264.973 145.011C265.126 159.947 264.721 173.596 261.278 187.83C260.781 189.907 260.781 189.907 260.273 192.026C255.073 211.377 246.648 229.377 237.418 245.644C237.033 246.325 236.647 247.006 236.25 247.707C233.908 251.82 231.535 255.897 229.143 259.957C228.084 261.766 227.04 263.592 225.998 265.419C225.39 266.477 224.783 267.535 224.157 268.625C223.629 269.553 223.1 270.48 222.556 271.435C222.118 272.082 221.679 272.729 221.228 273.395C220.665 273.395 220.103 273.395 219.523 273.395C219.316 274.045 219.108 274.695 218.894 275.364C217.613 278.529 216.058 280.862 214.251 283.513C213.565 284.529 212.88 285.546 212.174 286.593C211.172 288.073 211.172 288.073 210.15 289.583C206.565 294.978 203.225 300.436 200.147 306.385C199.792 306.946 199.438 307.506 199.072 308.084C198.51 308.084 197.947 308.084 197.368 308.084C197.136 308.753 196.903 309.422 196.664 310.112C195.668 312.696 194.559 314.922 193.283 317.266C192.588 318.554 192.588 318.554 191.878 319.868C191.142 321.225 191.142 321.225 190.391 322.61C177.171 347.328 170.406 371.696 164.321 400.944C156.573 438.006 143.901 464.004 119.29 484.056C91.7552 504.263 60.487 516.727 29.4957 521.997C28.8262 522.116 28.1567 522.235 27.4669 522.358C5.78673 526.073 -17.0175 525.795 -38.6756 521.997C-39.529 521.848 -40.3824 521.699 -41.2616 521.545C-73.2882 515.723 -107.152 502.486 -127.774 466.206C-153.007 420.275 -160.08 361.283 -159.999 305.193C-159.999 303.976 -159.998 302.758 -159.998 301.504C-159.965 282.529 -159.37 264.222 -156.271 245.644C-156.089 244.53 -155.906 243.415 -155.718 242.267C-147.303 192.656 -126.665 151.616 -94.917 124.234C-88.4907 118.967 -81.917 114.057 -75.3177 109.202C-74.6357 108.7 -73.9537 108.197 -73.251 107.679C-67.0023 103.092 -60.6956 98.6775 -54.3337 94.3874C-40.2335 84.8595 -26.4568 75.1027 -13.2512 63.4195C32.3091 23.2745 78.1469 -10.0993 134.309 2.82392Z" fill="#9A4A4D"/>
</svg>
