<svg width="445" height="336" viewBox="0 0 445 336" fill="none" xmlns="http://www.w3.org/2000/svg">
<path d="M277.828 314.771C263.308 314.177 258.9 313.843 248.879 312.579C174.599 302.796 113.015 279.789 70.1921 245.703C62.7098 239.733 49.024 226.795 43.7364 220.669C28.5501 203.085 18.0669 183.703 13.6606 164.817C11.6228 155.956 10.9932 140.259 12.4355 132.539C14.7567 120.246 19.6404 110.253 27.7107 101.533C39.6416 88.5781 53.7734 81.886 75.0298 79.0596C83.4388 77.9803 90.5128 78.0202 103.445 79.214C116.675 80.4534 140.538 79.396 152.121 77.0572C177.945 71.8493 199.047 63.6705 237.649 43.9391C245.088 40.1349 255.751 34.7743 261.377 31.9927C300.996 12.5106 323.896 8.96356 346.292 18.9251C369.953 29.4196 391.089 57.5758 411.002 105.162C432.76 157.024 439.115 198.202 430.495 231.211C424.767 253.196 412.331 271.297 393.582 284.848C386.887 289.738 372.603 297.321 364.02 300.645C351.266 305.628 336.987 309.264 320.417 311.765C312.488 312.999 283.72 315.04 277.828 314.771ZM309.503 310.482C338.135 307.858 365.294 299.47 385.912 286.837C403.316 276.113 417.121 260.13 424.049 242.686C430.254 226.981 432.172 213.056 431.033 192.024C429.605 165.114 422.879 139.971 407.577 103.9C384.947 50.6631 361.454 23.2591 333.17 17.3275C313.736 13.2417 292.384 18.9581 254.077 38.5587C195.499 68.4214 176.513 75.7997 145.392 80.771C136.932 82.1471 116.626 82.8702 108.283 82.1209C93.2059 80.7277 90.053 80.6318 79.4376 81.4556C62.1194 82.753 50.7558 86.4955 39.1628 94.6652C8.40204 116.287 5.61345 159.873 32.4171 201.147C40.7503 213.969 49.8468 224.402 62.7186 235.905C105.601 274.111 171.312 300.115 250.293 310.102C270.398 312.685 284.368 312.773 309.503 310.482Z" fill="black"/>
</svg>
