<svg width="218" height="384" viewBox="0 0 218 384" fill="none" xmlns="http://www.w3.org/2000/svg">
<path d="M317.673 199.504C313.868 192.842 309.129 185.442 304.835 179.443C273.595 135.952 240.094 102.106 204.248 77.7454C159.548 47.3897 114.152 35.522 84.6055 46.4251C62.4503 54.5893 54.0172 73.3585 61.1864 98.4253C62.1049 101.546 63.4263 104.822 66.1523 110.464C69.8158 118.102 71.1165 120.266 77.5753 129.748C81.8113 135.904 88.5865 148.412 91.4958 155.302C97.631 169.965 101.689 185.873 103.882 203.706C104.565 209.23 105.941 228.339 106.408 238.358C107.908 271.648 109.975 283.785 116.429 297.278C123.403 311.869 132.629 320.64 149.117 328.297C160.359 333.558 171.744 336.863 187.137 339.449C218.124 344.652 253.83 345.421 279.225 341.482C286.866 340.298 303.695 335.123 309.263 332.246C324.978 324.197 335.577 312.127 339.708 297.618C343.67 283.673 343.307 268.494 338.521 250.013C334.55 234.452 326.42 214.762 317.673 199.504Z" fill="#155E9F"/>
</svg>
