<svg width="183" height="402" viewBox="0 0 183 402" fill="none" xmlns="http://www.w3.org/2000/svg">
<path d="M177.34 73.4935C177.694 74.6354 177.694 74.6354 178.055 75.8004C188.226 109.727 176.871 141.192 168.124 169.512C158.912 199.451 157.487 230.682 157.327 263.961C156.986 332.538 156.986 332.538 144.005 360.201C143.671 360.937 143.337 361.673 142.992 362.431C139.359 370.121 134.479 376.402 128.642 382.056C128.019 382.669 127.396 383.282 126.754 383.913C118.271 391.946 107.849 397.172 96.1997 399.822C95.5144 399.979 94.8292 400.136 94.1231 400.297C65.0981 405.607 32.3472 393.201 3.69482 375.787C2.73603 375.205 1.77579 374.626 0.813967 374.052C-11.7218 366.563 -23.9669 357.716 -35.1185 347.524C-35.9854 346.761 -36.8535 345.999 -37.7226 345.239C-44.3282 339.438 -50.5991 333.357 -56.6914 326.895C-57.4452 326.097 -58.1989 325.299 -58.9755 324.477C-81.1541 300.152 -95.1404 268.773 -99.0408 238.051C-99.125 237.393 -99.2091 236.735 -99.2959 236.057C-100.53 225.928 -100.749 216.162 -100.423 206.33C-100.395 205.345 -100.367 204.36 -100.338 203.345C-99.463 182.917 -95.0065 163.692 -88.6622 145.708C-88.4216 145.014 -88.4216 145.014 -88.1762 144.306C-86.447 139.328 -84.5268 134.497 -82.4511 129.739C-81.9229 128.509 -81.4006 127.274 -80.9084 126.019C-79.009 121.196 -76.7971 116.618 -74.5102 112.063C-73.8723 110.791 -73.2394 109.515 -72.6069 108.239C-67.4108 97.8085 -67.4108 97.8085 -65.2083 94.8605C-64.7551 94.7952 -64.302 94.73 -63.8351 94.6628C-63.9979 94.146 -64.1608 93.6293 -64.3285 93.0969C-63.3441 91.5093 -62.3265 90.0066 -61.2433 88.5092C-60.5943 87.5951 -59.9462 86.6801 -59.299 85.7643C-58.9773 85.3104 -58.6557 84.8564 -58.3243 84.3887C-57.1455 82.6908 -56.0487 80.9277 -54.9476 79.1624C-51.5187 73.8764 -47.4722 69.1886 -43.4981 64.42C-42.2198 62.8617 -40.9763 61.2725 -39.7339 59.6788C-37.1547 56.4217 -34.3816 53.4179 -31.5116 50.467C-30.9935 49.9337 -30.4754 49.4003 -29.9417 48.8508C0.660496 17.5916 40.136 -5.04695 88.9898 1.80133C113.034 5.60792 137.115 16.2666 155.803 37.5743C161.632 44.3751 166.624 51.4653 171.173 59.1888C172.013 60.5983 172.013 60.5983 172.869 62.0362C174.901 65.7616 176.12 69.5511 177.34 73.4935Z" fill="#E0C41A"/>
</svg>
