<svg width="114" height="88" viewBox="0 0 114 88" fill="none" xmlns="http://www.w3.org/2000/svg">
<path d="M39.9115 83.9327C42.2971 83.8097 44.995 83.5023 47.2243 83.1027C63.3976 80.1671 76.8446 74.8185 87.6221 67.0568C101.055 57.3739 108.922 44.279 108.368 32.552C107.956 23.7605 103.029 17.7203 94.7219 15.7991C93.6854 15.5685 92.5636 15.4456 90.5898 15.3841C87.9203 15.2919 87.1393 15.3533 83.6462 15.8759C81.3743 16.2294 76.9298 16.337 74.5585 16.1218C69.5177 15.6454 64.2922 14.2621 58.655 11.9259C56.9084 11.2035 50.9588 8.37552 47.8633 6.80781C37.5828 1.58213 33.6921 0.183497 28.9778 0.0144307C23.8802 -0.170005 20.3445 1.3977 16.468 5.57824C13.8127 8.42162 11.7395 11.6492 9.51021 16.337C5.02314 25.7739 1.44484 37.5471 0.266277 46.692C-0.0887113 49.4432 -0.0887119 55.9445 0.266276 58.2961C1.24605 64.9204 3.92977 70.5303 7.96245 74.4035C11.8389 78.1229 16.4964 80.6128 22.5738 82.1959C27.6857 83.5484 34.4447 84.2247 39.9115 83.9327Z" fill="#00A144"/>
<path d="M48.2276 87.9572C51.8444 87.6559 52.9413 87.5267 55.4316 87.1105C73.8863 83.9243 89.08 77.6525 99.5155 68.8834C101.339 67.3478 104.659 64.0468 105.934 62.4968C109.595 58.0477 112.071 53.211 113.034 48.561C113.479 46.3795 113.523 42.5475 113.108 40.6817C112.441 37.7109 111.152 35.3284 109.076 33.2905C106.008 30.2622 102.436 28.7839 97.1141 28.3247C95.0093 28.1524 93.2453 28.2385 90.0287 28.6691C86.738 29.114 80.7791 29.114 77.8738 28.6691C71.3961 27.6788 66.0746 25.9135 56.3062 21.5218C54.4236 20.675 51.7258 19.4838 50.3028 18.8667C40.2824 14.5467 34.5459 13.9296 29.0317 16.5991C23.2062 19.4121 18.1367 26.5019 13.5119 38.3136C8.4572 51.1874 7.16758 61.2912 9.5541 69.2422C11.1402 74.5381 14.3716 78.815 19.1446 81.915C20.8493 83.0345 24.4661 84.728 26.6303 85.4456C29.8469 86.522 33.4341 87.254 37.5846 87.6846C39.5709 87.8998 46.7601 88.0864 48.2276 87.9572ZM40.2972 87.254C33.1377 86.9239 26.3042 85.173 21.0716 82.3169C16.6544 79.8914 13.0968 76.1455 11.2439 71.9691C9.58375 68.2089 9.00565 64.8362 9.13906 59.6981C9.30211 53.1249 10.7992 46.9249 14.3568 37.9692C19.619 24.751 25.2814 17.819 32.2927 16.068C37.1102 14.8625 42.4762 16.025 52.1705 20.388C66.9936 27.033 71.7815 28.626 79.5784 29.5015C81.6981 29.7455 86.7676 29.7024 88.8429 29.4298C92.5931 28.9274 93.3787 28.87 96.0321 28.9561C100.36 29.0853 103.221 29.8747 106.171 31.7404C113.998 36.6775 115.006 47.2693 108.617 57.6171C106.631 60.832 104.437 63.4727 101.309 66.4149C90.8884 76.1886 74.6868 83.2354 55.061 86.522C50.0656 87.3688 46.5822 87.541 40.2972 87.254Z" fill="black"/>
</svg>
