<svg width="113" height="92" viewBox="0 0 113 92" fill="none" xmlns="http://www.w3.org/2000/svg">
<path d="M41.607 82.1284C44.0939 82.0081 46.9064 81.7073 49.2305 81.3163C66.0909 78.4438 80.1092 73.2101 91.3445 65.6153C105.348 56.1407 113.549 43.3273 112.971 31.8524C112.542 23.2499 107.406 17.3395 98.7459 15.4596C97.6653 15.234 96.4959 15.1137 94.4383 15.0536C91.6554 14.9633 90.8412 15.0235 87.1997 15.5348C84.8313 15.8807 80.198 15.986 77.7259 15.7754C72.4709 15.3092 67.0235 13.9557 61.1467 11.6697C59.326 10.9629 53.1236 8.19569 49.8966 6.66169C39.1794 1.54836 35.1234 0.179795 30.2089 0.0143637C24.8946 -0.166107 21.2087 1.36789 17.1676 5.45855C14.3994 8.2408 12.2382 11.399 9.91419 15.986C5.2365 25.2201 1.50619 36.7401 0.277554 45.6884C-0.092518 48.3804 -0.0925186 54.742 0.277553 57.043C1.29894 63.5249 4.09668 69.0142 8.30068 72.8041C12.3419 76.4436 17.1972 78.8799 23.5328 80.429C28.8618 81.7524 35.9079 82.4141 41.607 82.1284Z" fill="#155E9F"/>
<path d="M48.7117 91.9561C52.2797 91.644 53.3618 91.5102 55.8185 91.0792C74.0243 87.7796 89.0129 81.2845 99.3076 72.2032C101.106 70.6128 104.382 67.1943 105.639 65.5891C109.251 60.9816 111.693 55.9728 112.644 51.1572C113.083 48.898 113.126 44.9296 112.717 42.9974C112.059 39.9207 110.787 37.4535 108.74 35.3429C105.713 32.2068 102.188 30.6759 96.9387 30.2003C94.8622 30.022 93.122 30.1111 89.9488 30.557C86.7025 31.0178 80.824 31.0178 77.9579 30.557C71.5676 29.5315 66.3179 27.7033 56.6813 23.1553C54.8241 22.2783 52.1627 21.0447 50.7589 20.4056C40.8737 15.9318 35.2146 15.2927 29.7748 18.0572C24.0279 20.9704 19.0268 28.3127 14.4644 40.545C9.47789 53.8771 8.20568 64.3406 10.56 72.5747C12.1247 78.0592 15.3125 82.4884 20.0212 85.6988C21.7028 86.8581 25.2708 88.6119 27.4058 89.3551C30.579 90.4698 34.1178 91.2278 38.2123 91.6737C40.1718 91.8966 47.264 92.0899 48.7117 91.9561ZM40.8883 91.2278C33.8254 90.886 27.0841 89.0727 21.9222 86.1149C17.5645 83.6031 14.0549 79.7238 12.227 75.3987C10.5893 71.5046 10.0189 68.0118 10.1506 62.6908C10.3114 55.8836 11.7884 49.4628 15.2979 40.1883C20.4891 26.4994 26.0751 19.3206 32.9918 17.5073C37.7444 16.2588 43.0379 17.4627 52.6014 21.9811C67.2245 28.8627 71.9478 30.5124 79.6395 31.4191C81.7306 31.6718 86.7317 31.6272 88.779 31.3448C92.4786 30.8246 93.2536 30.7651 95.8712 30.8543C100.141 30.9881 102.963 31.8055 105.873 33.7377C113.594 38.8506 114.589 49.8195 108.286 60.5357C106.327 63.865 104.162 66.5998 101.077 69.6467C90.797 79.7684 74.8139 87.0662 55.4529 90.4698C50.5249 91.3467 47.0885 91.5251 40.8883 91.2278Z" fill="black"/>
</svg>
