<svg width="115" height="92" viewBox="0 0 115 92" fill="none" xmlns="http://www.w3.org/2000/svg">
<path d="M72.1406 9.87177C69.6306 9.99209 66.7918 10.2929 64.4461 10.6839C47.4284 13.5564 33.2794 18.79 21.9393 26.3848C7.8052 35.8595 -0.47205 48.6729 0.110642 60.1479C0.543926 68.7503 5.72841 74.6607 14.4688 76.5406C15.5595 76.7662 16.7398 76.8865 18.8166 76.9467C21.6255 77.0369 22.4473 76.9767 26.1227 76.4654C28.5133 76.1195 33.1897 76.0142 35.6849 76.2248C40.9889 76.691 46.4871 78.0445 52.4187 80.3305C54.2564 81.0373 60.5166 83.8046 63.7737 85.3386C74.5909 90.4519 78.6847 91.8205 83.6451 91.9859C89.0089 92.1664 92.7291 90.6324 96.808 86.5417C99.602 83.7594 101.783 80.6012 104.129 76.0142C108.85 66.7802 112.615 55.2601 113.856 46.3118C114.229 43.6198 114.229 37.2582 113.856 34.9572C112.825 28.4753 110.001 22.986 105.758 19.1961C101.679 15.5566 96.7781 13.1202 90.3834 11.5712C85.0047 10.2478 77.8929 9.58603 72.1406 9.87177Z" fill="#7E4E39"/>
<path d="M69.0067 0.0460631C65.1814 0.372227 64.0212 0.512012 61.3873 0.962428C41.8685 4.41044 25.7988 11.1978 14.7617 20.6876C12.8333 22.3495 9.32153 25.9217 7.97324 27.5991C4.10084 32.4139 1.48265 37.6481 0.463598 42.6803C-0.00673475 45.0411 -0.0537687 49.1881 0.385208 51.2072C1.09071 54.4222 2.45467 57.0005 4.64955 59.206C7.89485 62.4831 11.6732 64.0829 17.3015 64.5799C19.5277 64.7663 21.3934 64.6731 24.7955 64.2072C28.2759 63.7257 34.5784 63.7257 37.6512 64.2072C44.5024 65.2788 50.1307 67.1892 60.4623 71.9419C62.4534 72.8583 65.3068 74.1474 66.8118 74.8153C77.41 79.4903 83.4773 80.1581 89.3094 77.2693C95.4707 74.2251 100.833 66.5524 105.724 53.7699C111.07 39.8381 112.434 28.9038 109.91 20.2993C108.232 14.5681 104.815 9.93971 99.7665 6.58488C97.9635 5.37341 94.1382 3.54068 91.8492 2.7641C88.4471 1.59923 84.6531 0.807113 80.2633 0.341162C78.1625 0.108191 70.5588 -0.0937224 69.0067 0.0460631ZM77.3943 0.807112C84.9667 1.16434 92.1941 3.0592 97.7284 6.14999C102.4 8.77484 106.163 12.8286 108.123 17.3483C109.879 21.4176 110.49 25.0675 110.349 30.6278C110.176 37.7413 108.593 44.451 104.83 54.1427C99.2648 68.4473 93.2759 75.9491 85.8603 77.8439C80.765 79.1486 75.0897 77.8905 64.8364 73.1689C49.1587 65.9778 44.0948 64.2538 35.8483 63.3063C33.6064 63.0423 28.2446 63.0889 26.0497 63.384C22.0832 63.9276 21.2523 63.9897 18.446 63.8965C13.8681 63.7567 10.8423 62.9025 7.72239 60.8834C-0.555458 55.5405 -1.62154 44.0782 5.13557 32.8799C7.23639 29.4008 9.55669 26.543 12.8647 23.359C23.8862 12.782 41.0219 5.15596 61.7793 1.59922C67.0627 0.682858 70.747 0.49648 77.3943 0.807112Z" fill="black"/>
</svg>
