<svg width="119" height="92" viewBox="0 0 119 92" fill="none" xmlns="http://www.w3.org/2000/svg">
<path d="M75.2338 9.83581C72.6179 9.95569 69.6594 10.2554 67.2147 10.645C49.4793 13.5071 34.7336 18.7217 22.9152 26.289C8.18501 35.7294 -0.441331 48.4963 0.165936 59.9297C0.617494 68.5009 6.02063 74.3899 15.1297 76.263C16.2664 76.4878 17.4965 76.6077 19.6608 76.6676C22.5882 76.7575 23.4446 76.6976 27.2751 76.1881C29.7664 75.8434 34.6401 75.7386 37.2405 75.9483C42.7682 76.4129 48.4983 77.7615 54.68 80.0392C56.5953 80.7434 63.1195 83.5006 66.514 85.0291C77.7874 90.1239 82.0539 91.4875 87.2234 91.6523C92.8134 91.8321 96.6906 90.3037 100.941 86.2279C103.853 83.4557 106.127 80.3089 108.571 75.7386C113.492 66.538 117.416 55.0597 118.708 46.1438C119.097 43.4615 119.097 37.123 118.708 34.8303C117.634 28.3719 114.691 22.9025 110.269 19.1263C106.018 15.5 100.91 13.0725 94.246 11.5291C88.6404 10.2104 81.2286 9.5511 75.2338 9.83581Z" fill="#DD7619"/>
<path d="M67.7603 0.0438501C64.0071 0.354846 62.8688 0.488124 60.2847 0.91759C41.1341 4.20521 25.3676 10.6768 14.5387 19.7252C12.6467 21.3098 9.20116 24.7159 7.87831 26.3153C4.07897 30.9061 1.51018 35.8968 0.51035 40.695C0.0488904 42.946 0.0027438 46.9 0.433438 48.8252C1.12563 51.8907 2.46386 54.349 4.61733 56.4519C7.8014 59.5766 11.5085 61.102 17.0306 61.5759C19.2148 61.7536 21.0453 61.6647 24.3832 61.2205C27.7979 60.7614 33.9815 60.7614 36.9964 61.2205C43.7183 62.2423 49.2404 64.0638 59.3771 68.5954C61.3306 69.4692 64.1302 70.6983 65.6068 71.3351C76.005 75.7927 81.9578 76.4295 87.6799 73.675C93.7251 70.7724 98.9857 63.4566 103.785 51.2687C109.03 37.9849 110.368 27.5593 107.892 19.355C106.246 13.8904 102.893 9.47729 97.9397 6.27851C96.1708 5.12339 92.4176 3.37592 90.1718 2.63546C86.8339 1.52477 83.1115 0.7695 78.8046 0.325224C76.7434 0.103086 69.2831 -0.0894275 67.7603 0.0438501ZM75.9897 0.769498C83.4191 1.11011 90.5102 2.91683 95.9401 5.86385C100.524 8.3666 104.216 12.2318 106.138 16.5413C107.861 20.4213 108.461 23.9014 108.323 29.2031C108.153 35.9857 106.6 42.3832 102.908 51.6241C97.4475 65.2634 91.5716 72.4162 84.2959 74.2229C79.2968 75.4669 73.7285 74.2673 63.6687 69.7653C48.2867 62.9087 43.3184 61.2649 35.2274 60.3615C33.0278 60.1098 27.7672 60.1542 25.6137 60.4356C21.7221 60.9539 20.9068 61.0131 18.1535 60.9243C13.6619 60.791 10.6932 59.9765 7.6322 58.0513C-0.48948 52.9569 -1.53545 42.0278 5.09418 31.3504C7.15536 28.0331 9.43189 25.3083 12.6775 22.2724C23.491 12.1873 40.3035 4.91606 60.6692 1.52477C65.8529 0.651028 69.4677 0.473317 75.9897 0.769498Z" fill="black"/>
</svg>
