<svg width="125" height="88" viewBox="0 0 125 88" fill="none" xmlns="http://www.w3.org/2000/svg">
<path d="M46.0255 78.9369C48.7764 78.8213 51.8876 78.5322 54.4585 78.1563C73.1094 75.3955 88.6163 70.3652 101.045 63.0655C116.535 53.959 125.607 41.6435 124.968 30.6144C124.494 22.3463 118.811 16.6655 109.232 14.8587C108.037 14.6419 106.743 14.5262 104.467 14.4684C101.389 14.3817 100.488 14.4395 96.4599 14.931C93.8399 15.2634 88.7146 15.3646 85.98 15.1622C80.1669 14.7141 74.141 13.4132 67.6402 11.2161C65.6261 10.5367 58.7651 7.877 55.1954 6.4026C43.34 1.48796 38.8533 0.172574 33.4169 0.0135706C27.5383 -0.159888 23.461 1.3145 18.9907 5.24622C15.9286 7.92036 13.5379 10.9559 10.967 15.3646C5.79259 24.2399 1.66613 35.3122 0.307026 43.9129C-0.102345 46.5003 -0.102346 52.6147 0.307025 54.8263C1.43688 61.0563 4.53172 66.3323 9.18217 69.9749C13.6525 73.473 19.0234 75.8147 26.0318 77.3035C31.9268 78.5755 39.7212 79.2115 46.0255 78.9369Z" fill="#FFD10B" fill-opacity="0.78"/>
<path d="M49.3229 87.958C52.968 87.6594 54.0735 87.5315 56.5832 87.1192C75.1823 83.963 90.4948 77.7503 101.012 69.0639C102.849 67.5427 106.196 64.2728 107.48 62.7374C111.17 58.3302 113.665 53.5391 114.636 48.9329C115.084 46.7719 115.129 42.9761 114.711 41.1279C114.039 38.185 112.739 35.825 110.648 33.8062C107.555 30.8065 103.955 29.3422 98.5917 28.8872C96.4704 28.7166 94.6927 28.8019 91.4509 29.2284C88.1344 29.6691 82.129 29.6691 79.2009 29.2284C72.6726 28.2475 67.3095 26.4988 57.4646 22.1485C55.5674 21.3097 52.8485 20.1297 51.4143 19.5184C41.3156 15.2391 35.5342 14.6278 29.9769 17.2721C24.1058 20.0586 18.9967 27.0817 14.3357 38.7821C9.2415 51.5345 7.9418 61.5432 10.347 69.4193C11.9455 74.6653 15.2022 78.9019 20.0125 81.9727C21.7305 83.0816 25.3756 84.7592 27.5567 85.47C30.7985 86.5363 34.4137 87.2613 38.5967 87.6878C40.5985 87.9011 47.8439 88.0859 49.3229 87.958ZM41.3305 87.2613C34.115 86.9343 27.2281 85.1999 21.9546 82.3708C17.5028 79.9681 13.9174 76.2575 12.05 72.1205C10.3769 68.3957 9.79424 65.0547 9.92869 59.9651C10.093 53.4538 11.6019 47.3122 15.1872 38.4409C20.4906 25.3472 26.1973 18.4805 33.2634 16.7461C38.1186 15.5519 43.5265 16.7034 53.2967 21.0253C68.2357 27.6077 73.061 29.1858 80.9189 30.053C83.0552 30.2947 88.1643 30.252 90.2558 29.9819C94.0353 29.4843 94.8271 29.4275 97.5012 29.5128C101.863 29.6407 104.747 30.4226 107.719 32.2708C115.607 37.1614 116.623 47.6534 110.184 57.9037C108.183 61.0882 105.972 63.7041 102.819 66.6186C92.3174 76.3002 75.989 83.2806 56.2098 86.5363C51.1753 87.3751 47.6646 87.5457 41.3305 87.2613Z" fill="black"/>
</svg>
