<svg width="28" height="28" viewBox="0 0 28 28" fill="none" xmlns="http://www.w3.org/2000/svg">
<path d="M23.9093 4.07057C22.6199 2.77501 21.0843 1.74788 19.392 1.04904C17.6998 0.350201 15.8848 -0.00637746 14.0527 8.63282e-05C6.37594 8.63282e-05 0.119538 6.22657 0.112506 13.8705C0.112506 16.3188 0.755901 18.7005 1.97062 20.8093L0 28L7.39025 26.0715C9.43471 27.1791 11.7251 27.7597 14.0527 27.7603H14.0598C21.7383 27.7603 27.993 21.5338 28 13.8828C28.0018 12.0594 27.6411 10.2536 26.9387 8.5696C26.2363 6.88556 25.2079 5.35652 23.9093 4.07057ZM14.0527 25.4118C11.9766 25.4125 9.9387 24.8563 8.15319 23.8018L7.73129 23.5498L3.34706 24.6943L4.51783 20.4365L4.2436 19.9973C3.08303 18.1604 2.46924 16.0336 2.47338 13.8635C2.47338 7.51806 7.67152 2.34158 14.0598 2.34158C15.5817 2.33886 17.089 2.63606 18.495 3.21604C19.901 3.79601 21.1777 4.6473 22.2516 5.72082C23.3293 6.79015 24.1836 8.06131 24.7653 9.46096C25.347 10.8606 25.6446 12.3611 25.6409 13.8758C25.6338 20.244 20.4357 25.4118 14.0527 25.4118ZM20.4076 16.7773C20.0613 16.604 18.3508 15.7658 18.0291 15.6468C17.7092 15.533 17.4754 15.4735 17.2469 15.82C17.0131 16.1648 16.345 16.9505 16.1446 17.1763C15.9442 17.409 15.7368 17.4353 15.3887 17.2638C15.0424 17.0888 13.9191 16.7248 12.5902 15.54C11.553 14.6213 10.8586 13.4838 10.6512 13.139C10.4508 12.7925 10.6318 12.607 10.8059 12.4338C10.9588 12.2798 11.1522 12.0278 11.3262 11.8283C11.502 11.6288 11.56 11.4818 11.6743 11.2508C11.7885 11.0163 11.734 10.8168 11.6479 10.6436C11.56 10.4703 10.8656 8.76056 10.5721 8.07106C10.2908 7.39031 10.0043 7.48481 9.7898 7.47606C9.5894 7.46381 9.3556 7.46381 9.1218 7.46381C8.94524 7.46818 8.77149 7.50883 8.61146 7.58322C8.45144 7.6576 8.30858 7.76411 8.19186 7.89606C7.87192 8.24256 6.97715 9.08081 6.97715 10.7906C6.97715 12.5003 8.22526 14.1435 8.40105 14.3763C8.57333 14.609 10.8516 18.1073 14.3481 19.6123C15.1743 19.971 15.8247 20.1828 16.3327 20.3438C17.1678 20.6098 17.9219 20.5695 18.5231 20.4838C19.1911 20.3823 20.5816 19.6438 20.8752 18.8335C21.1635 18.0215 21.1635 17.3285 21.0756 17.1833C20.9894 17.0363 20.7556 16.9505 20.4076 16.7773Z" fill="black"/>
</svg>
